<?xml version="1.0" encoding="UTF-8"?>
<!--Generator: Apple Native CoreSVG 341-->
<!DOCTYPE svg
PUBLIC "-//W3C//DTD SVG 1.1//EN"
       "http://www.w3.org/Graphics/SVG/1.1/DTD/svg11.dtd">
<svg version="1.1" xmlns="http://www.w3.org/2000/svg" xmlns:xlink="http://www.w3.org/1999/xlink" viewBox="0 0 3300 2200">
 <!--glyph: "101CF9", point size: 100.0, font version: "20.0d10e1", template writer version: "138.0.0"-->
 <style>.monochrome-0 {-sfsymbols-motion-group:1;-sfsymbols-layer-tags:house.lodge}
.monochrome-1 {-sfsymbols-motion-group:1;-sfsymbols-layer-tags:house.lodge}
.monochrome-2 {opacity:0.0;-sfsymbols-clear-behind:true;-sfsymbols-motion-group:0;-sfsymbols-layer-tags:house.lodge}
.monochrome-3 {-sfsymbols-motion-group:0;-sfsymbols-layer-tags:house.lodge}

.multicolor-0:tintColor {-sfsymbols-motion-group:1;-sfsymbols-layer-tags:house.lodge}
.multicolor-1:tintColor {-sfsymbols-motion-group:1;-sfsymbols-layer-tags:house.lodge}
.multicolor-2:tintColor {opacity:0.0;-sfsymbols-clear-behind:true;-sfsymbols-motion-group:0;-sfsymbols-layer-tags:house.lodge}
.multicolor-3:tintColor {-sfsymbols-motion-group:0;-sfsymbols-layer-tags:house.lodge}

.hierarchical-0:primary {-sfsymbols-motion-group:1;-sfsymbols-layer-tags:house.lodge}
.hierarchical-1:primary {-sfsymbols-motion-group:1;-sfsymbols-layer-tags:house.lodge}
.hierarchical-2:primary {opacity:0.0;-sfsymbols-clear-behind:true;-sfsymbols-motion-group:0;-sfsymbols-layer-tags:house.lodge}
.hierarchical-3:primary {-sfsymbols-motion-group:0;-sfsymbols-layer-tags:house.lodge}

.SFSymbolsPreviewWireframe {fill:none;opacity:1.0;stroke:black;stroke-width:0.5}
</style>
 <g id="Notes">
  <rect height="2200" id="artboard" style="fill:white;opacity:1" width="3300" x="0" y="0"/>
  <line style="fill:none;stroke:black;opacity:1;stroke-width:0.5;" x1="263" x2="3036" y1="292" y2="292"/>
  <text style="stroke:none;fill:black;font-family:sans-serif;font-size:13;font-weight:bold;" transform="matrix(1 0 0 1 263 322)">Weight/Scale Variations</text>
  <text style="stroke:none;fill:black;font-family:sans-serif;font-size:13;text-anchor:middle;" transform="matrix(1 0 0 1 559.711 322)">Ultralight</text>
  <text style="stroke:none;fill:black;font-family:sans-serif;font-size:13;text-anchor:middle;" transform="matrix(1 0 0 1 856.422 322)">Thin</text>
  <text style="stroke:none;fill:black;font-family:sans-serif;font-size:13;text-anchor:middle;" transform="matrix(1 0 0 1 1153.13 322)">Light</text>
  <text style="stroke:none;fill:black;font-family:sans-serif;font-size:13;text-anchor:middle;" transform="matrix(1 0 0 1 1449.84 322)">Regular</text>
  <text style="stroke:none;fill:black;font-family:sans-serif;font-size:13;text-anchor:middle;" transform="matrix(1 0 0 1 1746.56 322)">Medium</text>
  <text style="stroke:none;fill:black;font-family:sans-serif;font-size:13;text-anchor:middle;" transform="matrix(1 0 0 1 2043.27 322)">Semibold</text>
  <text style="stroke:none;fill:black;font-family:sans-serif;font-size:13;text-anchor:middle;" transform="matrix(1 0 0 1 2339.98 322)">Bold</text>
  <text style="stroke:none;fill:black;font-family:sans-serif;font-size:13;text-anchor:middle;" transform="matrix(1 0 0 1 2636.69 322)">Heavy</text>
  <text style="stroke:none;fill:black;font-family:sans-serif;font-size:13;text-anchor:middle;" transform="matrix(1 0 0 1 2933.4 322)">Black</text>
  <line style="fill:none;stroke:black;opacity:1;stroke-width:0.5;" x1="263" x2="3036" y1="1903" y2="1903"/>
  <g transform="matrix(0.2 0 0 0.2 263 1933)">
   <path d="m46.2402 4.15039c21.7773 0 39.4531-17.627 39.4531-39.4043s-17.6758-39.4043-39.4531-39.4043c-21.7285 0-39.4043 17.627-39.4043 39.4043s17.6758 39.4043 39.4043 39.4043Zm0-7.42188c-17.6758 0-31.9336-14.3066-31.9336-31.9824s14.2578-31.9824 31.9336-31.9824 31.9824 14.3066 31.9824 31.9824-14.3066 31.9824-31.9824 31.9824Zm-17.9688-31.9824c0 2.14844 1.51367 3.61328 3.75977 3.61328h10.498v10.5957c0 2.19727 1.46484 3.71094 3.61328 3.71094 2.24609 0 3.71094-1.51367 3.71094-3.71094v-10.5957h10.5957c2.19727 0 3.71094-1.46484 3.71094-3.61328 0-2.19727-1.51367-3.71094-3.71094-3.71094h-10.5957v-10.5469c0-2.24609-1.46484-3.75977-3.71094-3.75977-2.14844 0-3.61328 1.51367-3.61328 3.75977v10.5469h-10.498c-2.24609 0-3.75977 1.51367-3.75977 3.71094Z"/>
  </g>
  <g transform="matrix(0.2 0 0 0.2 281.506 1933)">
   <path d="m58.5449 14.5508c27.4902 0 49.8047-22.3145 49.8047-49.8047s-22.3145-49.8047-49.8047-49.8047-49.8047 22.3145-49.8047 49.8047 22.3145 49.8047 49.8047 49.8047Zm0-8.30078c-22.9492 0-41.5039-18.5547-41.5039-41.5039s18.5547-41.5039 41.5039-41.5039 41.5039 18.5547 41.5039 41.5039-18.5547 41.5039-41.5039 41.5039Zm-22.6562-41.5039c0 2.39258 1.66016 4.00391 4.15039 4.00391h14.3555v14.4043c0 2.44141 1.66016 4.15039 4.05273 4.15039 2.44141 0 4.15039-1.66016 4.15039-4.15039v-14.4043h14.4043c2.44141 0 4.15039-1.61133 4.15039-4.00391 0-2.44141-1.70898-4.15039-4.15039-4.15039h-14.4043v-14.3555c0-2.49023-1.70898-4.19922-4.15039-4.19922-2.39258 0-4.05273 1.70898-4.05273 4.19922v14.3555h-14.3555c-2.49023 0-4.15039 1.70898-4.15039 4.15039Z"/>
  </g>
  <g transform="matrix(0.2 0 0 0.2 304.924 1933)">
   <path d="m74.8535 28.3203c35.1074 0 63.623-28.4668 63.623-63.5742s-28.5156-63.623-63.623-63.623-63.5742 28.5156-63.5742 63.623 28.4668 63.5742 63.5742 63.5742Zm0-9.08203c-30.127 0-54.4922-24.3652-54.4922-54.4922s24.3652-54.4922 54.4922-54.4922 54.4922 24.3652 54.4922 54.4922-24.3652 54.4922-54.4922 54.4922Zm-28.8574-54.4922c0 2.58789 1.85547 4.39453 4.58984 4.39453h19.7266v19.7754c0 2.68555 1.85547 4.58984 4.44336 4.58984 2.68555 0 4.54102-1.85547 4.54102-4.58984v-19.7754h19.7754c2.68555 0 4.58984-1.80664 4.58984-4.39453 0-2.73438-1.85547-4.58984-4.58984-4.58984h-19.7754v-19.7266c0-2.73438-1.85547-4.63867-4.54102-4.63867-2.58789 0-4.44336 1.9043-4.44336 4.63867v19.7266h-19.7266c-2.73438 0-4.58984 1.85547-4.58984 4.58984Z"/>
  </g>
  <text style="stroke:none;fill:black;font-family:sans-serif;font-size:13;font-weight:bold;" transform="matrix(1 0 0 1 263 1953)">Design Variations</text>
  <text style="stroke:none;fill:black;font-family:sans-serif;font-size:13;" transform="matrix(1 0 0 1 263 1971)">Symbols are supported in up to nine weights and three scales.</text>
  <text style="stroke:none;fill:black;font-family:sans-serif;font-size:13;" transform="matrix(1 0 0 1 263 1989)">For optimal layout with text and other symbols, vertically align</text>
  <text style="stroke:none;fill:black;font-family:sans-serif;font-size:13;" transform="matrix(1 0 0 1 263 2007)">symbols with the adjacent text.</text>
  <line style="fill:none;stroke:#00AEEF;stroke-width:0.5;opacity:1.0;" x1="776" x2="776" y1="1919" y2="1933"/>
  <g transform="matrix(0.2 0 0 0.2 776 1933)">
   <path d="m16.5527 0.78125c2.58789 0 3.85742-0.976562 4.78516-3.71094l6.29883-17.2363h28.8086l6.29883 17.2363c0.927734 2.73438 2.19727 3.71094 4.73633 3.71094 2.58789 0 4.24805-1.5625 4.24805-4.00391 0-0.830078-0.146484-1.61133-0.537109-2.63672l-22.9004-60.9863c-1.12305-2.97852-3.125-4.49219-6.25-4.49219-3.02734 0-5.07812 1.46484-6.15234 4.44336l-22.9004 61.084c-0.390625 1.02539-0.537109 1.80664-0.537109 2.63672 0 2.44141 1.5625 3.95508 4.10156 3.95508Zm13.4766-28.3691 11.8652-32.8613h0.244141l11.8652 32.8613Z"/>
  </g>
  <line style="fill:none;stroke:#00AEEF;stroke-width:0.5;opacity:1.0;" x1="792.836" x2="792.836" y1="1919" y2="1933"/>
  <text style="stroke:none;fill:black;font-family:sans-serif;font-size:13;font-weight:bold;" transform="matrix(1 0 0 1 776 1953)">Margins</text>
  <text style="stroke:none;fill:black;font-family:sans-serif;font-size:13;" transform="matrix(1 0 0 1 776 1971)">Leading and trailing margins on the left and right side of each symbol</text>
  <text style="stroke:none;fill:black;font-family:sans-serif;font-size:13;" transform="matrix(1 0 0 1 776 1989)">can be adjusted by modifying the x-location of the margin guidelines.</text>
  <text style="stroke:none;fill:black;font-family:sans-serif;font-size:13;" transform="matrix(1 0 0 1 776 2007)">Modifications are automatically applied proportionally to all</text>
  <text style="stroke:none;fill:black;font-family:sans-serif;font-size:13;" transform="matrix(1 0 0 1 776 2025)">scales and weights.</text>
  <g transform="matrix(0.2 0 0 0.2 1289 1933)">
   <path d="m14.209 9.32617 8.49609 8.54492c4.29688 4.3457 9.22852 4.05273 13.8672-1.07422l53.4668-58.9355-4.83398-4.88281-53.0762 58.3984c-1.75781 2.00195-3.41797 2.49023-5.76172 0.146484l-5.85938-5.81055c-2.34375-2.29492-1.80664-4.00391 0.195312-5.81055l57.373-54.0039-4.88281-4.83398-57.959 54.4434c-4.93164 4.58984-5.32227 9.47266-1.02539 13.8184Zm32.0801-90.9668c-2.09961 2.05078-2.24609 4.93164-1.07422 6.88477 1.17188 1.80664 3.4668 2.97852 6.68945 2.14844 7.32422-1.70898 14.9414-2.00195 22.0703 2.68555l-2.92969 7.27539c-1.70898 4.15039-0.830078 7.08008 1.85547 9.81445l11.4746 11.5723c2.44141 2.44141 4.49219 2.53906 7.32422 2.05078l5.32227-0.976562 3.32031 3.36914-0.195312 2.7832c-0.195312 2.49023 0.439453 4.39453 2.88086 6.78711l3.80859 3.71094c2.39258 2.39258 5.46875 2.53906 7.8125 0.195312l14.5508-14.5996c2.34375-2.34375 2.24609-5.32227-0.146484-7.71484l-3.85742-3.80859c-2.39258-2.39258-4.24805-3.17383-6.64062-2.97852l-2.88086 0.244141-3.22266-3.17383 1.2207-5.61523c0.634766-2.83203-0.146484-5.0293-3.07617-7.95898l-10.9863-10.9375c-16.6992-16.6016-38.8672-16.2109-53.3203-1.75781Zm7.4707 1.85547c12.1582-8.88672 28.6133-7.37305 39.7461 3.75977l12.1582 12.0605c1.17188 1.17188 1.36719 2.09961 1.02539 3.80859l-1.61133 7.42188 7.51953 7.42188 4.93164-0.292969c1.26953-0.0488281 1.66016 0.0488281 2.63672 1.02539l2.88086 2.88086-12.207 12.207-2.88086-2.88086c-0.976562-0.976562-1.12305-1.36719-1.07422-2.68555l0.341797-4.88281-7.4707-7.42188-7.61719 1.26953c-1.61133 0.341797-2.34375 0.195312-3.56445-0.976562l-10.0098-10.0098c-1.26953-1.17188-1.41602-2.00195-0.634766-3.85742l4.39453-10.4492c-7.8125-7.27539-17.9688-10.4004-28.125-7.42188-0.78125 0.195312-1.07422-0.439453-0.439453-0.976562Z"/>
  </g>
  <text style="stroke:none;fill:black;font-family:sans-serif;font-size:13;font-weight:bold;" transform="matrix(1 0 0 1 1289 1953)">Exporting</text>
  <text style="stroke:none;fill:black;font-family:sans-serif;font-size:13;" transform="matrix(1 0 0 1 1289 1971)">Symbols should be outlined when exporting to ensure the</text>
  <text style="stroke:none;fill:black;font-family:sans-serif;font-size:13;" transform="matrix(1 0 0 1 1289 1989)">design is preserved when submitting to Xcode.</text>
  <text id="template-version" style="stroke:none;fill:black;font-family:sans-serif;font-size:13;text-anchor:end;" transform="matrix(1 0 0 1 3036 1933)">Template v.6.0</text>
  <text style="stroke:none;fill:black;font-family:sans-serif;font-size:13;text-anchor:end;" transform="matrix(1 0 0 1 3036 1951)">Requires Xcode 16 or greater</text>
  <text id="descriptive-name" style="stroke:none;fill:black;font-family:sans-serif;font-size:13;text-anchor:end;" transform="matrix(1 0 0 1 3036 1969)">Generated from house.lodge</text>
  <text style="stroke:none;fill:black;font-family:sans-serif;font-size:13;text-anchor:end;" transform="matrix(1 0 0 1 3036 1987)">Typeset at 100.0 points</text>
  <text style="stroke:none;fill:black;font-family:sans-serif;font-size:13;" transform="matrix(1 0 0 1 263 726)">Small</text>
  <text style="stroke:none;fill:black;font-family:sans-serif;font-size:13;" transform="matrix(1 0 0 1 263 1156)">Medium</text>
  <text style="stroke:none;fill:black;font-family:sans-serif;font-size:13;" transform="matrix(1 0 0 1 263 1586)">Large</text>
 </g>
 <g id="Guides">
  <g id="H-reference" style="fill:#27AAE1;stroke:none;" transform="matrix(1 0 0 1 339 696)">
   <path d="M0.993654 0L3.63775 0L29.3281-67.1323L30.0303-67.1323L30.0303-70.459L28.1226-70.459ZM11.6885-24.4799L46.9815-24.4799L46.2315-26.7285L12.4385-26.7285ZM55.1196 0L57.7637 0L30.6382-70.459L29.4326-70.459L29.4326-67.1323Z"/>
  </g>
  <line id="Baseline-S" style="fill:none;stroke:#27AAE1;opacity:1;stroke-width:0.5;" x1="263" x2="3036" y1="696" y2="696"/>
  <line id="Capline-S" style="fill:none;stroke:#27AAE1;opacity:1;stroke-width:0.5;" x1="263" x2="3036" y1="625.541" y2="625.541"/>
  <g id="H-reference" style="fill:#27AAE1;stroke:none;" transform="matrix(1 0 0 1 339 1126)">
   <path d="M0.993654 0L3.63775 0L29.3281-67.1323L30.0303-67.1323L30.0303-70.459L28.1226-70.459ZM11.6885-24.4799L46.9815-24.4799L46.2315-26.7285L12.4385-26.7285ZM55.1196 0L57.7637 0L30.6382-70.459L29.4326-70.459L29.4326-67.1323Z"/>
  </g>
  <line id="Baseline-M" style="fill:none;stroke:#27AAE1;opacity:1;stroke-width:0.5;" x1="263" x2="3036" y1="1126" y2="1126"/>
  <line id="Capline-M" style="fill:none;stroke:#27AAE1;opacity:1;stroke-width:0.5;" x1="263" x2="3036" y1="1055.54" y2="1055.54"/>
  <g id="H-reference" style="fill:#27AAE1;stroke:none;" transform="matrix(1 0 0 1 339 1556)">
   <path d="M0.993654 0L3.63775 0L29.3281-67.1323L30.0303-67.1323L30.0303-70.459L28.1226-70.459ZM11.6885-24.4799L46.9815-24.4799L46.2315-26.7285L12.4385-26.7285ZM55.1196 0L57.7637 0L30.6382-70.459L29.4326-70.459L29.4326-67.1323Z"/>
  </g>
  <line id="Baseline-L" style="fill:none;stroke:#27AAE1;opacity:1;stroke-width:0.5;" x1="263" x2="3036" y1="1556" y2="1556"/>
  <line id="Capline-L" style="fill:none;stroke:#27AAE1;opacity:1;stroke-width:0.5;" x1="263" x2="3036" y1="1485.54" y2="1485.54"/>
  <line id="right-margin-Black-S" style="fill:none;stroke:#00AEEF;stroke-width:0.5;opacity:1.0;" x1="3029.69" x2="3029.69" y1="600.785" y2="720.121"/>
  <line id="left-margin-Black-S" style="fill:none;stroke:#00AEEF;stroke-width:0.5;opacity:1.0;" x1="2837.11" x2="2837.11" y1="600.785" y2="720.121"/>
  <line id="right-margin-Regular-S" style="fill:none;stroke:#00AEEF;stroke-width:0.5;opacity:1.0;" x1="1539.81" x2="1539.81" y1="600.785" y2="720.121"/>
  <line id="left-margin-Regular-S" style="fill:none;stroke:#00AEEF;stroke-width:0.5;opacity:1.0;" x1="1359.88" x2="1359.88" y1="600.785" y2="720.121"/>
  <line id="right-margin-Ultralight-S" style="fill:none;stroke:#00AEEF;stroke-width:0.5;opacity:1.0;" x1="639.074" x2="639.074" y1="600.785" y2="720.121"/>
  <line id="left-margin-Ultralight-S" style="fill:none;stroke:#00AEEF;stroke-width:0.5;opacity:1.0;" x1="480.348" x2="480.348" y1="600.785" y2="720.121"/>
 </g>
 <g id="Symbols">
  <g id="Black-S" transform="matrix(1 0 0 1 2837.11 696)">
   <path class="monochrome-0 multicolor-0:tintColor hierarchical-0:primary SFSymbolsPreviewWireframe" d="M16.9434-22.5586L98.0957-22.5586C105.469-22.5586 107.812-31.3965 102.002-35.5957L76.123-54.248C74.4141-55.4688 72.2656-56.1523 70.0195-56.1523L45.0195-56.1523C42.7734-56.1523 40.625-55.4688 38.916-54.248L13.0371-35.5957C7.22656-31.3965 9.57031-22.5586 16.9434-22.5586ZM35.8398-35.7422L45.2148-42.5293C45.6055-42.8223 46.1426-42.9688 46.6309-42.9688L68.4082-42.9688C68.8965-42.9688 69.4336-42.8223 69.8242-42.5293L79.1992-35.7422ZM28.7598 5.37109L86.2793 5.37109C93.8477 5.37109 98.3887 0.830078 98.3887-6.20117L98.3887-27.0508L84.2285-27.0508L84.2285-12.1094C84.2285-10.0098 83.0078-8.78906 80.9082-8.78906L34.1309-8.78906C32.0312-8.78906 30.8105-10.0098 30.8105-12.1094L30.8105-27.0508L16.6504-27.0508L16.6504-6.20117C16.6504 0.830078 21.1914 5.37109 28.7598 5.37109Z"/>
   <path class="monochrome-1 multicolor-1:tintColor hierarchical-1:primary SFSymbolsPreviewWireframe" d="M94.4824-22.5586L175.635-22.5586C183.008-22.5586 185.352-31.3965 179.541-35.5957L153.662-54.248C151.953-55.4688 149.805-56.1523 147.559-56.1523L122.559-56.1523C120.312-56.1523 118.164-55.4688 116.455-54.248L90.5762-35.5957C84.7656-31.3965 87.1094-22.5586 94.4824-22.5586ZM113.379-35.7422L122.754-42.5293C123.145-42.8223 123.682-42.9688 124.17-42.9688L145.947-42.9688C146.436-42.9688 146.973-42.8223 147.363-42.5293L156.738-35.7422ZM106.299 5.37109L163.818 5.37109C171.387 5.37109 175.928 0.830078 175.928-6.20117L175.928-27.0508L161.768-27.0508L161.768-12.1094C161.768-10.0098 160.547-8.78906 158.447-8.78906L111.67-8.78906C109.57-8.78906 108.35-10.0098 108.35-12.1094L108.35-27.0508L94.1895-27.0508L94.1895-6.20117C94.1895 0.830078 98.7305 5.37109 106.299 5.37109Z"/>
   <path class="monochrome-2 multicolor-2:tintColor hierarchical-2:primary SFSymbolsPreviewWireframe" d="M60.498 5.37109L132.08 5.37109C139.648 5.37109 144.189 0.830078 144.189-6.20117L144.189-22.8027L144.189-22.8027C150.879-21.1914 156.104-29.7363 149.805-35.0586L105.42-72.3633C102.783-74.6094 99.5117-75.7812 96.2891-75.7812C93.0664-75.7812 89.7949-74.6094 87.1582-72.3633L42.7734-35.0586C36.4746-29.7363 41.6504-21.1914 48.3887-22.8027L48.3887-22.8027L48.3887-6.20117C48.3887 0.830078 52.9297 5.37109 60.498 5.37109Z"/>
   <path class="monochrome-3 multicolor-3:tintColor hierarchical-3:primary SFSymbolsPreviewWireframe" d="M52.1973-24.8535L93.2617-59.375C94.1895-60.1562 95.2637-60.5957 96.2891-60.5957C97.3145-60.5957 98.3887-60.1562 99.3164-59.375L140.381-24.8535C148.584-17.9199 157.275-28.7598 149.805-35.0586L105.42-72.3633C102.783-74.6094 99.5117-75.7812 96.2891-75.7812C93.0664-75.7812 89.7949-74.6094 87.1582-72.3633L42.7734-35.0586C35.3027-28.7598 43.9453-17.9199 52.1973-24.8535ZM60.498 5.37109L132.08 5.37109C139.648 5.37109 144.189 0.830078 144.189-6.20117L144.189-27.0508L130.029-27.0508L130.029-12.1094C130.029-10.0098 128.809-8.78906 126.709-8.78906L65.8691-8.78906C63.7695-8.78906 62.5488-10.0098 62.5488-12.1094L62.5488-27.0508L48.3887-27.0508L48.3887-6.20117C48.3887 0.830078 52.9297 5.37109 60.498 5.37109ZM84.7168-1.31836L107.861-1.31836L107.861-24.4629C107.861-26.3672 106.641-27.5879 104.736-27.5879L87.8906-27.5879C85.9863-27.5879 84.7168-26.3672 84.7168-24.4629Z"/>
  </g>
  <g id="Regular-S" transform="matrix(1 0 0 1 1359.88 696)">
   <path class="monochrome-0 multicolor-0:tintColor hierarchical-0:primary SFSymbolsPreviewWireframe" d="M13.3789-27.3438L98.4863-27.3438C102.148-27.3438 103.174-31.543 100.781-33.252L75.6836-51.2207C74.5605-52.0508 73.0957-52.4902 71.6309-52.4902L40.1855-52.4902C38.7207-52.4902 37.2559-52.0508 36.1328-51.2207L11.084-33.252C8.64258-31.543 9.66797-27.3438 13.3789-27.3438ZM21.1914-33.252L39.5508-46.3867C39.8438-46.582 39.8926-46.582 40.1855-46.582L71.6309-46.582C71.9238-46.582 71.9727-46.582 72.2656-46.3867L90.625-33.252ZM26.2207-1.26953L85.5957-1.26953C91.0156-1.26953 94.2383-4.3457 94.2383-9.7168L94.2383-30.5176L87.4023-30.5176L87.4023-11.377C87.4023-9.27734 86.2305-8.10547 84.2285-8.10547L27.5879-8.10547C25.5859-8.10547 24.4629-9.27734 24.4629-11.377L24.4629-30.5176L17.5781-30.5176L17.5781-9.7168C17.5781-4.3457 20.8008-1.26953 26.2207-1.26953Z"/>
   <path class="monochrome-1 multicolor-1:tintColor hierarchical-1:primary SFSymbolsPreviewWireframe" d="M81.4453-27.3438L166.553-27.3438C170.215-27.3438 171.24-31.543 168.848-33.252L143.799-51.2207C142.627-52.0508 141.211-52.4902 139.746-52.4902L108.252-52.4902C106.787-52.4902 105.371-52.0508 104.199-51.2207L79.1504-33.252C76.7578-31.543 77.7832-27.3438 81.4453-27.3438ZM89.2578-33.252L107.617-46.3867C107.91-46.582 107.959-46.582 108.252-46.582L139.746-46.582C140.039-46.582 140.088-46.582 140.332-46.3867L158.74-33.252ZM94.3359-1.26953L153.662-1.26953C159.082-1.26953 162.305-4.3457 162.305-9.7168L162.305-30.5176L155.469-30.5176L155.469-11.377C155.469-9.27734 154.297-8.10547 152.295-8.10547L95.7031-8.10547C93.7012-8.10547 92.5293-9.27734 92.5293-11.377L92.5293-30.5176L85.6934-30.5176L85.6934-9.7168C85.6934-4.3457 88.916-1.26953 94.3359-1.26953Z"/>
   <path class="monochrome-2 multicolor-2:tintColor hierarchical-2:primary SFSymbolsPreviewWireframe" d="M56.1035-1.26953L123.779-1.26953C129.199-1.26953 132.373-4.3457 132.373-9.7168L132.373-28.7598L132.861-28.3691C137.109-25.0488 141.357-30.5664 137.891-33.3008L94.9707-67.1387C93.3105-68.457 91.6504-69.1406 89.9414-69.1406C88.1836-69.1406 86.5723-68.457 84.9121-67.1387L41.9922-33.3008C38.5254-30.5664 42.7734-25.0488 47.0215-28.3691L47.4609-28.7598L47.4609-9.7168C47.4609-4.3457 50.6836-1.26953 56.1035-1.26953Z"/>
   <path class="monochrome-3 multicolor-3:tintColor hierarchical-3:primary SFSymbolsPreviewWireframe" d="M47.0215-28.3691L88.3789-60.8887C88.7695-61.2305 89.4043-61.5234 89.9414-61.5234C90.4785-61.5234 91.0645-61.2305 91.5527-60.8887L132.861-28.3691C137.109-25.0488 141.357-30.5664 137.891-33.3008L94.9707-67.1387C93.3105-68.457 91.6504-69.1406 89.9414-69.1406C88.1836-69.1406 86.5723-68.457 84.9121-67.1387L41.9922-33.3008C38.5254-30.5664 42.7734-25.0488 47.0215-28.3691ZM56.1035-1.26953L123.779-1.26953C129.199-1.26953 132.373-4.3457 132.373-9.7168L132.373-35.1562L125.586-35.2539L125.586-11.377C125.586-9.27734 124.414-8.10547 122.412-8.10547L57.4707-8.10547C55.4199-8.10547 54.2969-9.27734 54.2969-11.377L54.2969-35.2539L47.4609-35.1562L47.4609-9.7168C47.4609-4.3457 50.6836-1.26953 56.1035-1.26953ZM79.9805-6.10352L99.8535-6.10352L99.8535-24.6094C99.8535-26.3184 98.7305-27.4414 97.0215-27.4414L82.8613-27.4414C81.2012-27.4414 79.9805-26.3184 79.9805-24.6094Z"/>
  </g>
  <g id="Ultralight-S" transform="matrix(1 0 0 1 480.348 696)">
   <path class="monochrome-0 multicolor-0:tintColor hierarchical-0:primary SFSymbolsPreviewWireframe" d="M10.9722-28.9331L80.1862-28.9331C81.487-28.9331 81.7404-30.3623 80.8463-30.9361L58.1554-44.5455C56.6691-45.4664 55.3859-45.815 53.1491-45.815L38.0967-45.815C35.8145-45.815 34.5313-45.4664 32.9995-44.5455L10.312-30.9361C9.41454-30.3623 9.62256-28.9331 10.9722-28.9331ZM14.1529-31.0723L34.2378-42.7993C35.2574-43.4033 36.2144-43.6758 38.0967-43.6758L53.0128-43.6758C54.9406-43.6758 55.8976-43.4033 56.9171-42.7993L77.0021-31.0723ZM22.043-4.76609L69.0665-4.76609C73.8507-4.76609 76.3468-7.20652 76.3468-11.9873L76.3468-30.3813L74.1427-30.3813L74.1427-12.4668C74.1427-8.64161 72.4713-6.92481 68.6075-6.92481L22.5474-6.92481C18.6836-6.92481 17.0157-8.64161 17.0157-12.4668L17.0157-30.3813L14.8081-30.3813L14.8081-11.9873C14.8081-7.20652 17.3042-4.76609 22.043-4.76609Z"/>
   <path class="monochrome-1 multicolor-1:tintColor hierarchical-1:primary SFSymbolsPreviewWireframe" d="M78.5391-28.9331L147.708-28.9331C149.054-28.9331 149.307-30.3623 148.413-30.9361L125.726-44.5455C124.236-45.4664 122.956-45.815 120.719-45.815L105.664-45.815C103.381-45.815 102.102-45.4664 100.566-44.5455L77.8789-30.9361C76.9395-30.3623 77.1929-28.9331 78.5391-28.9331ZM81.7198-31.0723L101.805-42.7993C102.824-43.4033 103.736-43.6758 105.664-43.6758L120.583-43.6758C122.511-43.6758 123.422-43.4033 124.484-42.7993L144.572-31.0723ZM89.6133-4.76609L136.633-4.76609C141.418-4.76609 143.914-7.20652 143.914-11.9873L143.914-30.3813L141.71-30.3813L141.71-12.4668C141.71-8.64161 139.993-6.92481 136.174-6.92481L90.1177-6.92481C86.254-6.92481 84.5826-8.64161 84.5826-12.4668L84.5826-30.3813L82.3784-30.3813L82.3784-11.9873C82.3784-7.20652 84.8291-4.76609 89.6133-4.76609Z"/>
   <path class="monochrome-2 multicolor-2:tintColor hierarchical-2:primary SFSymbolsPreviewWireframe" d="M48.7925-4.76609L109.884-4.76609C114.623-4.76609 117.07-7.20652 117.07-11.9873L117.07-35.3442L125.005-29.2319C126.302-28.2729 127.598-29.9761 126.447-30.8487L83.3004-64.187C82.0489-65.1421 80.6612-65.7349 79.3155-65.7349C77.9664-65.7349 76.6729-65.1421 75.3761-64.187L32.2291-30.8487C31.0782-29.9761 32.3746-28.2729 33.671-29.2319L41.6031-35.3442L41.6031-11.9873C41.6031-7.20652 44.0084-4.76609 48.7925-4.76609Z"/>
   <path class="monochrome-3 multicolor-3:tintColor hierarchical-3:primary SFSymbolsPreviewWireframe" d="M33.671-29.2319L76.9356-62.6597C77.6895-63.2285 78.4605-63.6123 79.3609-63.6123C80.2159-63.6123 81.0289-63.2285 81.7442-62.6597L125.005-29.2319C126.302-28.2729 127.598-29.9761 126.447-30.8487L83.3004-64.187C82.0489-65.1421 80.6612-65.7349 79.3609-65.7349C78.0118-65.7349 76.6729-65.1421 75.3761-64.187L32.2291-30.8487C31.0782-29.9761 32.3746-28.2729 33.671-29.2319ZM48.7925-4.76609L109.884-4.76609C114.668-4.76609 117.07-7.20652 117.07-11.9873L117.07-37.0181L114.915-38.478L114.915-12.4668C114.915-8.64161 113.198-6.92481 109.379-6.92481L49.2969-6.92481C45.4752-6.92481 43.8072-8.64161 43.8072-12.4668L43.8072-38.478L41.6031-37.0181L41.6031-11.9873C41.6031-7.20652 44.0084-4.76609 48.7925-4.76609ZM69.1275-6.0127L89.5455-6.0127L89.5455-26.3349C89.5455-27.272 88.7403-28.0317 87.7579-28.0317L70.8731-28.0317C69.9395-28.0317 69.1275-27.272 69.1275-26.3349Z"/>
  </g>
 </g>
</svg>
