<?xml version="1.0" encoding="UTF-8"?>
<!--Generator: Apple Native CoreSVG 341-->
<!DOCTYPE svg
PUBLIC "-//W3C//DTD SVG 1.1//EN"
       "http://www.w3.org/Graphics/SVG/1.1/DTD/svg11.dtd">
<svg version="1.1" xmlns="http://www.w3.org/2000/svg" xmlns:xlink="http://www.w3.org/1999/xlink" viewBox="0 0 3300 2200">
 <!--glyph: "10035F", point size: 100.0, font version: "20.0d10e1", template writer version: "138.0.0"-->
 <style>.defaults {-sfsymbols-wiggle-style:clockwise;-sfsymbols-rotates-clockwise:true}

.monochrome-0 {-sfsymbols-motion-group:0;-sfsymbols-always-rotates:true;-sfsymbols-layer-tags:gear}

.multicolor-0:systemGrayColor {-sfsymbols-motion-group:0;-sfsymbols-always-rotates:true;-sfsymbols-layer-tags:gear}

.hierarchical-0:primary {-sfsymbols-motion-group:0;-sfsymbols-always-rotates:true;-sfsymbols-layer-tags:gear}

.SFSymbolsPreviewWireframe {fill:none;opacity:1.0;stroke:black;stroke-width:0.5}
</style>
 <g id="Notes">
  <rect height="2200" id="artboard" style="fill:white;opacity:1" width="3300" x="0" y="0"/>
  <line style="fill:none;stroke:black;opacity:1;stroke-width:0.5;" x1="263" x2="3036" y1="292" y2="292"/>
  <text style="stroke:none;fill:black;font-family:sans-serif;font-size:13;font-weight:bold;" transform="matrix(1 0 0 1 263 322)">Weight/Scale Variations</text>
  <text style="stroke:none;fill:black;font-family:sans-serif;font-size:13;text-anchor:middle;" transform="matrix(1 0 0 1 559.711 322)">Ultralight</text>
  <text style="stroke:none;fill:black;font-family:sans-serif;font-size:13;text-anchor:middle;" transform="matrix(1 0 0 1 856.422 322)">Thin</text>
  <text style="stroke:none;fill:black;font-family:sans-serif;font-size:13;text-anchor:middle;" transform="matrix(1 0 0 1 1153.13 322)">Light</text>
  <text style="stroke:none;fill:black;font-family:sans-serif;font-size:13;text-anchor:middle;" transform="matrix(1 0 0 1 1449.84 322)">Regular</text>
  <text style="stroke:none;fill:black;font-family:sans-serif;font-size:13;text-anchor:middle;" transform="matrix(1 0 0 1 1746.56 322)">Medium</text>
  <text style="stroke:none;fill:black;font-family:sans-serif;font-size:13;text-anchor:middle;" transform="matrix(1 0 0 1 2043.27 322)">Semibold</text>
  <text style="stroke:none;fill:black;font-family:sans-serif;font-size:13;text-anchor:middle;" transform="matrix(1 0 0 1 2339.98 322)">Bold</text>
  <text style="stroke:none;fill:black;font-family:sans-serif;font-size:13;text-anchor:middle;" transform="matrix(1 0 0 1 2636.69 322)">Heavy</text>
  <text style="stroke:none;fill:black;font-family:sans-serif;font-size:13;text-anchor:middle;" transform="matrix(1 0 0 1 2933.4 322)">Black</text>
  <line style="fill:none;stroke:black;opacity:1;stroke-width:0.5;" x1="263" x2="3036" y1="1903" y2="1903"/>
  <g transform="matrix(0.2 0 0 0.2 263 1933)">
   <path d="m46.2402 4.15039c21.7773 0 39.4531-17.627 39.4531-39.4043s-17.6758-39.4043-39.4531-39.4043c-21.7285 0-39.4043 17.627-39.4043 39.4043s17.6758 39.4043 39.4043 39.4043Zm0-7.42188c-17.6758 0-31.9336-14.3066-31.9336-31.9824s14.2578-31.9824 31.9336-31.9824 31.9824 14.3066 31.9824 31.9824-14.3066 31.9824-31.9824 31.9824Zm-17.9688-31.9824c0 2.14844 1.51367 3.61328 3.75977 3.61328h10.498v10.5957c0 2.19727 1.46484 3.71094 3.61328 3.71094 2.24609 0 3.71094-1.51367 3.71094-3.71094v-10.5957h10.5957c2.19727 0 3.71094-1.46484 3.71094-3.61328 0-2.19727-1.51367-3.71094-3.71094-3.71094h-10.5957v-10.5469c0-2.24609-1.46484-3.75977-3.71094-3.75977-2.14844 0-3.61328 1.51367-3.61328 3.75977v10.5469h-10.498c-2.24609 0-3.75977 1.51367-3.75977 3.71094Z"/>
  </g>
  <g transform="matrix(0.2 0 0 0.2 281.506 1933)">
   <path d="m58.5449 14.5508c27.4902 0 49.8047-22.3145 49.8047-49.8047s-22.3145-49.8047-49.8047-49.8047-49.8047 22.3145-49.8047 49.8047 22.3145 49.8047 49.8047 49.8047Zm0-8.30078c-22.9492 0-41.5039-18.5547-41.5039-41.5039s18.5547-41.5039 41.5039-41.5039 41.5039 18.5547 41.5039 41.5039-18.5547 41.5039-41.5039 41.5039Zm-22.6562-41.5039c0 2.39258 1.66016 4.00391 4.15039 4.00391h14.3555v14.4043c0 2.44141 1.66016 4.15039 4.05273 4.15039 2.44141 0 4.15039-1.66016 4.15039-4.15039v-14.4043h14.4043c2.44141 0 4.15039-1.61133 4.15039-4.00391 0-2.44141-1.70898-4.15039-4.15039-4.15039h-14.4043v-14.3555c0-2.49023-1.70898-4.19922-4.15039-4.19922-2.39258 0-4.05273 1.70898-4.05273 4.19922v14.3555h-14.3555c-2.49023 0-4.15039 1.70898-4.15039 4.15039Z"/>
  </g>
  <g transform="matrix(0.2 0 0 0.2 304.924 1933)">
   <path d="m74.8535 28.3203c35.1074 0 63.623-28.4668 63.623-63.5742s-28.5156-63.623-63.623-63.623-63.5742 28.5156-63.5742 63.623 28.4668 63.5742 63.5742 63.5742Zm0-9.08203c-30.127 0-54.4922-24.3652-54.4922-54.4922s24.3652-54.4922 54.4922-54.4922 54.4922 24.3652 54.4922 54.4922-24.3652 54.4922-54.4922 54.4922Zm-28.8574-54.4922c0 2.58789 1.85547 4.39453 4.58984 4.39453h19.7266v19.7754c0 2.68555 1.85547 4.58984 4.44336 4.58984 2.68555 0 4.54102-1.85547 4.54102-4.58984v-19.7754h19.7754c2.68555 0 4.58984-1.80664 4.58984-4.39453 0-2.73438-1.85547-4.58984-4.58984-4.58984h-19.7754v-19.7266c0-2.73438-1.85547-4.63867-4.54102-4.63867-2.58789 0-4.44336 1.9043-4.44336 4.63867v19.7266h-19.7266c-2.73438 0-4.58984 1.85547-4.58984 4.58984Z"/>
  </g>
  <text style="stroke:none;fill:black;font-family:sans-serif;font-size:13;font-weight:bold;" transform="matrix(1 0 0 1 263 1953)">Design Variations</text>
  <text style="stroke:none;fill:black;font-family:sans-serif;font-size:13;" transform="matrix(1 0 0 1 263 1971)">Symbols are supported in up to nine weights and three scales.</text>
  <text style="stroke:none;fill:black;font-family:sans-serif;font-size:13;" transform="matrix(1 0 0 1 263 1989)">For optimal layout with text and other symbols, vertically align</text>
  <text style="stroke:none;fill:black;font-family:sans-serif;font-size:13;" transform="matrix(1 0 0 1 263 2007)">symbols with the adjacent text.</text>
  <line style="fill:none;stroke:#00AEEF;stroke-width:0.5;opacity:1.0;" x1="776" x2="776" y1="1919" y2="1933"/>
  <g transform="matrix(0.2 0 0 0.2 776 1933)">
   <path d="m16.5527 0.78125c2.58789 0 3.85742-0.976562 4.78516-3.71094l6.29883-17.2363h28.8086l6.29883 17.2363c0.927734 2.73438 2.19727 3.71094 4.73633 3.71094 2.58789 0 4.24805-1.5625 4.24805-4.00391 0-0.830078-0.146484-1.61133-0.537109-2.63672l-22.9004-60.9863c-1.12305-2.97852-3.125-4.49219-6.25-4.49219-3.02734 0-5.07812 1.46484-6.15234 4.44336l-22.9004 61.084c-0.390625 1.02539-0.537109 1.80664-0.537109 2.63672 0 2.44141 1.5625 3.95508 4.10156 3.95508Zm13.4766-28.3691 11.8652-32.8613h0.244141l11.8652 32.8613Z"/>
  </g>
  <line style="fill:none;stroke:#00AEEF;stroke-width:0.5;opacity:1.0;" x1="792.836" x2="792.836" y1="1919" y2="1933"/>
  <text style="stroke:none;fill:black;font-family:sans-serif;font-size:13;font-weight:bold;" transform="matrix(1 0 0 1 776 1953)">Margins</text>
  <text style="stroke:none;fill:black;font-family:sans-serif;font-size:13;" transform="matrix(1 0 0 1 776 1971)">Leading and trailing margins on the left and right side of each symbol</text>
  <text style="stroke:none;fill:black;font-family:sans-serif;font-size:13;" transform="matrix(1 0 0 1 776 1989)">can be adjusted by modifying the x-location of the margin guidelines.</text>
  <text style="stroke:none;fill:black;font-family:sans-serif;font-size:13;" transform="matrix(1 0 0 1 776 2007)">Modifications are automatically applied proportionally to all</text>
  <text style="stroke:none;fill:black;font-family:sans-serif;font-size:13;" transform="matrix(1 0 0 1 776 2025)">scales and weights.</text>
  <g transform="matrix(0.2 0 0 0.2 1289 1933)">
   <path d="m14.209 9.32617 8.49609 8.54492c4.29688 4.3457 9.22852 4.05273 13.8672-1.07422l53.4668-58.9355-4.83398-4.88281-53.0762 58.3984c-1.75781 2.00195-3.41797 2.49023-5.76172 0.146484l-5.85938-5.81055c-2.34375-2.29492-1.80664-4.00391 0.195312-5.81055l57.373-54.0039-4.88281-4.83398-57.959 54.4434c-4.93164 4.58984-5.32227 9.47266-1.02539 13.8184Zm32.0801-90.9668c-2.09961 2.05078-2.24609 4.93164-1.07422 6.88477 1.17188 1.80664 3.4668 2.97852 6.68945 2.14844 7.32422-1.70898 14.9414-2.00195 22.0703 2.68555l-2.92969 7.27539c-1.70898 4.15039-0.830078 7.08008 1.85547 9.81445l11.4746 11.5723c2.44141 2.44141 4.49219 2.53906 7.32422 2.05078l5.32227-0.976562 3.32031 3.36914-0.195312 2.7832c-0.195312 2.49023 0.439453 4.39453 2.88086 6.78711l3.80859 3.71094c2.39258 2.39258 5.46875 2.53906 7.8125 0.195312l14.5508-14.5996c2.34375-2.34375 2.24609-5.32227-0.146484-7.71484l-3.85742-3.80859c-2.39258-2.39258-4.24805-3.17383-6.64062-2.97852l-2.88086 0.244141-3.22266-3.17383 1.2207-5.61523c0.634766-2.83203-0.146484-5.0293-3.07617-7.95898l-10.9863-10.9375c-16.6992-16.6016-38.8672-16.2109-53.3203-1.75781Zm7.4707 1.85547c12.1582-8.88672 28.6133-7.37305 39.7461 3.75977l12.1582 12.0605c1.17188 1.17188 1.36719 2.09961 1.02539 3.80859l-1.61133 7.42188 7.51953 7.42188 4.93164-0.292969c1.26953-0.0488281 1.66016 0.0488281 2.63672 1.02539l2.88086 2.88086-12.207 12.207-2.88086-2.88086c-0.976562-0.976562-1.12305-1.36719-1.07422-2.68555l0.341797-4.88281-7.4707-7.42188-7.61719 1.26953c-1.61133 0.341797-2.34375 0.195312-3.56445-0.976562l-10.0098-10.0098c-1.26953-1.17188-1.41602-2.00195-0.634766-3.85742l4.39453-10.4492c-7.8125-7.27539-17.9688-10.4004-28.125-7.42188-0.78125 0.195312-1.07422-0.439453-0.439453-0.976562Z"/>
  </g>
  <text style="stroke:none;fill:black;font-family:sans-serif;font-size:13;font-weight:bold;" transform="matrix(1 0 0 1 1289 1953)">Exporting</text>
  <text style="stroke:none;fill:black;font-family:sans-serif;font-size:13;" transform="matrix(1 0 0 1 1289 1971)">Symbols should be outlined when exporting to ensure the</text>
  <text style="stroke:none;fill:black;font-family:sans-serif;font-size:13;" transform="matrix(1 0 0 1 1289 1989)">design is preserved when submitting to Xcode.</text>
  <text id="template-version" style="stroke:none;fill:black;font-family:sans-serif;font-size:13;text-anchor:end;" transform="matrix(1 0 0 1 3036 1933)">Template v.6.0</text>
  <text style="stroke:none;fill:black;font-family:sans-serif;font-size:13;text-anchor:end;" transform="matrix(1 0 0 1 3036 1951)">Requires Xcode 16 or greater</text>
  <text id="descriptive-name" style="stroke:none;fill:black;font-family:sans-serif;font-size:13;text-anchor:end;" transform="matrix(1 0 0 1 3036 1969)">Generated from gear</text>
  <text style="stroke:none;fill:black;font-family:sans-serif;font-size:13;text-anchor:end;" transform="matrix(1 0 0 1 3036 1987)">Typeset at 100.0 points</text>
  <text style="stroke:none;fill:black;font-family:sans-serif;font-size:13;" transform="matrix(1 0 0 1 263 726)">Small</text>
  <text style="stroke:none;fill:black;font-family:sans-serif;font-size:13;" transform="matrix(1 0 0 1 263 1156)">Medium</text>
  <text style="stroke:none;fill:black;font-family:sans-serif;font-size:13;" transform="matrix(1 0 0 1 263 1586)">Large</text>
 </g>
 <g id="Guides">
  <g id="H-reference" style="fill:#27AAE1;stroke:none;" transform="matrix(1 0 0 1 339 696)">
   <path d="M0.993654 0L3.63775 0L29.3281-67.1323L30.0303-67.1323L30.0303-70.459L28.1226-70.459ZM11.6885-24.4799L46.9815-24.4799L46.2315-26.7285L12.4385-26.7285ZM55.1196 0L57.7637 0L30.6382-70.459L29.4326-70.459L29.4326-67.1323Z"/>
  </g>
  <line id="Baseline-S" style="fill:none;stroke:#27AAE1;opacity:1;stroke-width:0.5;" x1="263" x2="3036" y1="696" y2="696"/>
  <line id="Capline-S" style="fill:none;stroke:#27AAE1;opacity:1;stroke-width:0.5;" x1="263" x2="3036" y1="625.541" y2="625.541"/>
  <g id="H-reference" style="fill:#27AAE1;stroke:none;" transform="matrix(1 0 0 1 339 1126)">
   <path d="M0.993654 0L3.63775 0L29.3281-67.1323L30.0303-67.1323L30.0303-70.459L28.1226-70.459ZM11.6885-24.4799L46.9815-24.4799L46.2315-26.7285L12.4385-26.7285ZM55.1196 0L57.7637 0L30.6382-70.459L29.4326-70.459L29.4326-67.1323Z"/>
  </g>
  <line id="Baseline-M" style="fill:none;stroke:#27AAE1;opacity:1;stroke-width:0.5;" x1="263" x2="3036" y1="1126" y2="1126"/>
  <line id="Capline-M" style="fill:none;stroke:#27AAE1;opacity:1;stroke-width:0.5;" x1="263" x2="3036" y1="1055.54" y2="1055.54"/>
  <g id="H-reference" style="fill:#27AAE1;stroke:none;" transform="matrix(1 0 0 1 339 1556)">
   <path d="M0.993654 0L3.63775 0L29.3281-67.1323L30.0303-67.1323L30.0303-70.459L28.1226-70.459ZM11.6885-24.4799L46.9815-24.4799L46.2315-26.7285L12.4385-26.7285ZM55.1196 0L57.7637 0L30.6382-70.459L29.4326-70.459L29.4326-67.1323Z"/>
  </g>
  <line id="Baseline-L" style="fill:none;stroke:#27AAE1;opacity:1;stroke-width:0.5;" x1="263" x2="3036" y1="1556" y2="1556"/>
  <line id="Capline-L" style="fill:none;stroke:#27AAE1;opacity:1;stroke-width:0.5;" x1="263" x2="3036" y1="1485.54" y2="1485.54"/>
  <line id="right-margin-Black-S" style="fill:none;stroke:#00AEEF;stroke-width:0.5;opacity:1.0;" x1="2986.96" x2="2986.96" y1="600.785" y2="720.121"/>
  <line id="left-margin-Black-S" style="fill:none;stroke:#00AEEF;stroke-width:0.5;opacity:1.0;" x1="2879.84" x2="2879.84" y1="600.785" y2="720.121"/>
  <line id="right-margin-Regular-S" style="fill:none;stroke:#00AEEF;stroke-width:0.5;opacity:1.0;" x1="1499.84" x2="1499.84" y1="600.785" y2="720.121"/>
  <line id="left-margin-Regular-S" style="fill:none;stroke:#00AEEF;stroke-width:0.5;opacity:1.0;" x1="1399.84" x2="1399.84" y1="600.785" y2="720.121"/>
  <line id="right-margin-Ultralight-S" style="fill:none;stroke:#00AEEF;stroke-width:0.5;opacity:1.0;" x1="604.83" x2="604.83" y1="600.785" y2="720.121"/>
  <line id="left-margin-Ultralight-S" style="fill:none;stroke:#00AEEF;stroke-width:0.5;opacity:1.0;" x1="514.593" x2="514.593" y1="600.785" y2="720.121"/>
 </g>
 <g id="Symbols">
  <g id="Black-S" transform="matrix(1 0 0 1 2879.84 696)">
   <path class="monochrome-0 multicolor-0:systemGrayColor hierarchical-0:primary SFSymbolsPreviewWireframe" d="M53.5645 5.12695C54.1992 5.12695 54.834 5.12695 55.4688 5.07812L57.373 8.64258C58.252 10.3027 59.9121 11.084 61.6699 10.7422C63.4766 10.498 64.5996 9.13086 64.8926 7.27539L65.5273 3.32031C66.7969 2.92969 68.0176 2.49023 69.1895 2.00195L72.168 4.6875C73.5352 5.95703 75.3906 6.10352 76.9043 5.22461C78.5156 4.3457 79.1016 2.68555 78.7598 0.830078L78.0273-3.125C79.0527-3.90625 80.0293-4.73633 81.0059-5.61523L84.7168-4.10156C86.4746-3.36914 88.2324-3.85742 89.3555-5.22461C90.5273-6.5918 90.5762-8.34961 89.5996-9.96094L87.5488-13.4277C88.2324-14.502 88.8672-15.625 89.502-16.7969L93.5059-16.6504C95.3613-16.6016 96.875-17.627 97.4609-19.2871C98.0957-20.9473 97.5586-22.6562 96.0938-23.8281L92.9688-26.3672C93.2617-27.5879 93.457-28.8574 93.6523-30.1758L97.4609-31.4453C99.2188-32.0312 100.293-33.4961 100.293-35.2539C100.293-37.0117 99.2188-38.4766 97.4609-39.0625L93.6523-40.332C93.457-41.6504 93.2617-42.9199 92.9688-44.1406L96.0938-46.582C97.6074-47.7539 98.0469-49.5605 97.4121-51.2695C96.875-52.9297 95.3613-53.7598 93.457-53.7598L89.4531-53.7598C88.8672-54.8828 88.2324-56.0059 87.5488-57.0801L89.6484-60.4492C90.6738-62.0605 90.4785-63.916 89.3066-65.2832C88.2324-66.6992 86.5234-66.9922 84.7168-66.3086L80.957-64.8926C80.0293-65.7715 79.0527-66.6016 78.0273-67.3828L78.8574-71.2891C79.248-73.1445 78.4668-74.8047 76.9043-75.6836C75.3906-76.6602 73.6816-76.3184 72.2168-75.0977L69.1895-72.5098C68.0176-72.998 66.7969-73.4375 65.5762-73.8281L64.9902-77.7832C64.7461-79.6387 63.4277-80.957 61.6699-81.25C59.9121-81.6406 58.3984-80.7129 57.4707-79.1016L55.4688-75.5859C54.834-75.6348 54.1992-75.6348 53.5645-75.6348C52.9297-75.6348 52.2949-75.6348 51.6602-75.5859L49.7559-79.1504C48.877-80.8105 47.2168-81.5918 45.459-81.25C43.6523-81.0059 42.5293-79.6387 42.2363-77.7832L41.6016-73.8281C40.332-73.4375 39.1113-72.998 37.9395-72.5098L34.9609-75.1953C33.5938-76.4648 31.7383-76.6113 30.2246-75.7324C28.6133-74.8535 28.0273-73.1934 28.3691-71.3379L29.1016-67.3828C28.0762-66.6016 27.0996-65.7715 26.123-64.8926L22.4121-66.4062C20.6543-67.1387 18.8965-66.6504 17.7734-65.2832C16.6016-63.916 16.5527-62.1582 17.5293-60.5469L19.5801-57.0801C18.8965-56.0059 18.2617-54.8828 17.627-53.7109L13.623-53.8574C11.7676-53.9062 10.2539-52.8809 9.66797-51.2207C9.0332-49.5605 9.57031-47.8516 11.0352-46.6797L14.1602-44.1406C13.8672-42.9199 13.6719-41.6504 13.4766-40.332L9.66797-39.0625C7.91016-38.4766 6.83594-37.0117 6.83594-35.2539C6.83594-33.4961 7.91016-32.0312 9.66797-31.4453L13.4766-30.1758C13.6719-28.8574 13.8672-27.5879 14.1602-26.3672L11.0352-23.9258C9.52148-22.7539 9.08203-20.9473 9.7168-19.2383C10.2539-17.5781 11.7676-16.748 13.6719-16.748L17.6758-16.748C18.2617-15.625 18.8965-14.502 19.5801-13.4277L17.4805-10.0586C16.4551-8.44727 16.6504-6.5918 17.8223-5.22461C18.8965-3.80859 20.6055-3.51562 22.4121-4.19922L26.1719-5.61523C27.0996-4.73633 28.0762-3.90625 29.1016-3.125L28.2715 0.78125C27.8809 2.63672 28.6621 4.29688 30.2246 5.17578C31.7383 6.15234 33.4473 5.81055 34.9121 4.58984L37.9395 2.00195C39.1113 2.49023 40.332 2.92969 41.5527 3.32031L42.1387 7.27539C42.3828 9.13086 43.7012 10.4492 45.459 10.7422C47.2168 11.1328 48.7305 10.2051 49.6582 8.59375L51.6602 5.07812C52.2949 5.12695 52.9297 5.12695 53.5645 5.12695ZM53.5645-7.42188C38.1836-7.42188 25.7324-19.873 25.7324-35.2539C25.7324-50.6348 38.1836-63.0859 53.5645-63.0859C68.9453-63.0859 81.3965-50.6348 81.3965-35.2539C81.3965-19.873 68.9453-7.42188 53.5645-7.42188ZM43.0176-42.7734L52.1484-48.3398L41.5039-66.7969L31.7871-62.3047ZM65.2832-29.8828L86.8164-29.8828L86.8164-40.8691L65.332-40.8691ZM51.9531-22.2656L43.0176-28.125L31.2988-8.64258L40.8691-3.95508ZM53.5645-21.3867C61.2305-21.3867 67.4316-27.5879 67.4316-35.2539C67.4316-42.9199 61.2305-49.1211 53.5645-49.1211C45.8984-49.1211 39.6973-42.9199 39.6973-35.2539C39.6973-27.5879 45.8984-21.3867 53.5645-21.3867ZM53.5645-30.6641C51.0254-30.6641 48.9746-32.7148 48.9746-35.2539C48.9746-37.793 51.0254-39.8438 53.5645-39.8438C56.1035-39.8438 58.1543-37.793 58.1543-35.2539C58.1543-32.7148 56.1035-30.6641 53.5645-30.6641Z"/>
  </g>
  <g id="Regular-S" transform="matrix(1 0 0 1 1399.84 696)">
   <path class="monochrome-0 multicolor-0:systemGrayColor hierarchical-0:primary SFSymbolsPreviewWireframe" d="M50 1.9043C50.8789 1.9043 51.8066 1.85547 52.6855 1.80664L54.834 5.95703C55.3711 6.98242 56.3965 7.42188 57.4707 7.27539C58.6426 7.08008 59.375 6.25 59.5215 5.12695L60.2051 0.537109C61.9629 0 63.5742-0.634766 65.2344-1.31836L68.6523 1.80664C69.4336 2.58789 70.6055 2.68555 71.582 2.14844C72.6074 1.5625 73.0469 0.537109 72.8027-0.585938L71.7773-5.12695C73.2422-6.20117 74.6094-7.32422 75.8789-8.54492L80.1758-6.78711C81.25-6.34766 82.3242-6.64062 83.1055-7.51953C83.8379-8.39844 83.8867-9.52148 83.3008-10.4492L80.7617-14.4043C81.7871-15.918 82.666-17.4316 83.4473-19.043L88.0859-18.8477C89.2578-18.7988 90.1855-19.3848 90.5762-20.5078C91.0156-21.582 90.6738-22.6562 89.7461-23.3398L86.0352-26.1719C86.4746-27.8809 86.7676-29.6387 86.9629-31.4453L91.4062-32.8613C92.5293-33.2031 93.1641-34.082 93.1641-35.2539C93.1641-36.4258 92.5293-37.3047 91.4062-37.6465L86.9629-39.0625C86.7676-40.8691 86.4746-42.627 86.0352-44.3359L89.7461-47.168C90.6738-47.8516 90.918-48.9258 90.625-50C90.1855-51.1719 89.209-51.709 88.0859-51.6602L83.4473-51.5137C82.666-53.125 81.7871-54.6387 80.7617-56.1523L83.3008-60.0586C83.8867-60.9863 83.7891-62.1094 83.1543-62.9883C82.3242-63.916 81.25-64.1602 80.1758-63.7207L75.8789-61.9629C74.6094-63.2324 73.1934-64.3555 71.7773-65.3809L72.8027-69.9219C73.0469-71.0449 72.6074-72.0703 71.6309-72.6562C70.6055-73.2422 69.4336-73.0957 68.6523-72.3145L65.1855-69.1895C63.5742-69.9219 61.9141-70.5078 60.1562-71.0449L59.5215-75.6348C59.375-76.7578 58.6426-77.5391 57.5195-77.7832C56.3477-77.9785 55.3711-77.4902 54.834-76.4648L52.6855-72.3145C51.8066-72.3633 50.8789-72.4121 50-72.4121C49.1211-72.4121 48.2422-72.3633 47.3145-72.3145L45.166-76.4648C44.6289-77.4902 43.6523-77.9297 42.5293-77.7832C41.3574-77.5879 40.625-76.7578 40.4785-75.6348L39.7949-71.0449C38.0859-70.5078 36.4258-69.873 34.8145-69.1895L31.3965-72.3145C30.5664-73.0957 29.4434-73.1934 28.418-72.6562C27.3926-72.0703 27.002-71.0449 27.2461-69.9219L28.2227-65.332C26.7578-64.3066 25.3906-63.1836 24.1211-61.9141L19.8242-63.7207C18.7988-64.1602 17.6758-63.8672 16.9434-62.9883C16.1621-62.1094 16.1133-60.9863 16.748-60.0586L19.2383-56.1035C18.2617-54.5898 17.334-53.0762 16.5527-51.4648L11.9629-51.6602C10.791-51.709 9.86328-51.123 9.47266-50C9.0332-48.9258 9.375-47.8516 10.2539-47.168L13.9648-44.3359C13.5254-42.627 13.2324-40.8691 13.0371-39.0625L8.59375-37.6465C7.4707-37.3047 6.83594-36.4258 6.83594-35.2539C6.83594-34.082 7.4707-33.2031 8.59375-32.8613L13.0371-31.4453C13.2324-29.6387 13.5254-27.8809 13.9648-26.1719L10.2539-23.3398C9.375-22.6562 9.08203-21.582 9.42383-20.5078C9.86328-19.3359 10.791-18.7988 11.9141-18.8477L16.5527-18.9941C17.334-17.3828 18.2617-15.8691 19.2383-14.3555L16.748-10.4492C16.1133-9.52148 16.2109-8.34961 16.8945-7.51953C17.6758-6.5918 18.7988-6.34766 19.8242-6.78711L24.1211-8.59375C25.3906-7.27539 26.8066-6.15234 28.2227-5.12695L27.2461-0.585938C27.002 0.537109 27.3926 1.5625 28.3691 2.14844C29.4434 2.73438 30.5664 2.58789 31.3965 1.80664L34.8633-1.31836C36.4258-0.585938 38.1348 0 39.8438 0.537109L40.4785 5.12695C40.625 6.25 41.4062 7.03125 42.4805 7.27539C43.6523 7.4707 44.6289 6.98242 45.166 5.95703L47.3145 1.80664C48.2422 1.85547 49.1211 1.9043 50 1.9043ZM50-5.37109C33.4961-5.37109 20.1172-18.75 20.1172-35.2539C20.1172-51.7578 33.4961-65.1367 50-65.1367C66.5039-65.1367 79.8828-51.7578 79.8828-35.2539C79.8828-18.75 66.5039-5.37109 50-5.37109ZM42.8223-41.2109L47.9492-44.4336L35.3027-66.1133L29.9316-63.1348ZM58.8867-32.2754L84.082-32.2754L84.082-38.2324L58.8867-38.2324ZM47.9004-25.8789L42.8711-29.248L29.4922-7.42188L34.7656-4.3457ZM50-24.707C55.8105-24.707 60.5469-29.4434 60.5469-35.2539C60.5469-41.0645 55.8105-45.8008 50-45.8008C44.1895-45.8008 39.502-41.0645 39.502-35.2539C39.502-29.4434 44.1895-24.707 50-24.707ZM50-31.25C47.8027-31.25 45.9961-33.0566 45.9961-35.2539C45.9961-37.4512 47.8027-39.2578 50-39.2578C52.1973-39.2578 54.0039-37.4512 54.0039-35.2539C54.0039-33.0566 52.1973-31.25 50-31.25Z"/>
  </g>
  <g id="Ultralight-S" transform="matrix(1 0 0 1 514.593 696)">
   <path class="monochrome-0 multicolor-0:systemGrayColor hierarchical-0:primary SFSymbolsPreviewWireframe" d="M45.1412-1.3198C46.2471-1.3198 47.3565-1.36863 48.4624-1.46286L50.1568 1.59769C50.6031 2.44144 50.9473 2.56303 51.7945 2.46195C52.6485 2.31205 52.8814 2.02689 53.0279 1.13089L53.5298-2.32371C55.7417-2.90623 57.8072-3.67722 59.7852-4.63327L62.4312-2.32565C63.1216-1.68063 63.5669-1.7192 64.3165-2.12008C65.024-2.52438 65.191-2.91404 64.9922-3.81003L64.2393-7.2158C66.1128-8.47166 67.8433-9.91258 69.3853-11.4511L72.6378-10.2383C73.5303-9.88962 73.9234-10.0464 74.4776-10.6982C75.0284-11.3047 75.0772-11.7012 74.5821-12.4927L72.7242-15.4941C73.9766-17.2803 75.128-19.2026 76.0455-21.2226L79.5489-21.1181C80.4937-21.1147 80.8311-21.3828 81.0855-22.188C81.3887-22.9897 81.3648-23.3374 80.6187-23.9302L77.816-26.1265C78.3917-28.1987 78.8209-30.3652 78.9708-32.626L82.3243-33.7241C83.2203-34.0205 83.401-34.3999 83.401-35.2539C83.401-36.1079 83.2203-36.4873 82.3243-36.7837L78.9708-37.8364C78.8209-40.0972 78.4371-42.3091 77.816-44.4268L80.5733-46.5776C81.3194-47.1704 81.2911-47.5181 81.0435-48.3652C80.8311-49.1738 80.3995-49.3477 79.5943-49.3443L76.0455-49.2886C75.128-51.3086 73.9766-53.231 72.7242-55.0171L74.5367-58.0152C75.0318-58.8067 74.9342-59.2031 74.4356-59.9004C73.878-60.5103 73.4395-60.5728 72.6832-60.2696L69.3853-59.0567C67.8433-60.6441 66.1094-62.0396 64.2393-63.292L64.9468-66.6524C65.1456-67.6392 64.9332-67.938 64.2291-68.3877C63.5215-68.8374 63.1216-68.7364 62.4766-68.1822L59.7818-65.8745C57.8072-66.8794 55.6929-67.6016 53.5264-68.1841L53.0279-71.5933C52.8814-72.5347 52.5577-72.771 51.7525-72.9698C50.8985-73.1197 50.5577-72.9038 50.1568-72.1509L48.417-69.0449C47.3565-69.1392 46.2471-69.188 45.1412-69.188C44.0352-69.188 42.8838-69.1392 41.7745-69.0449L40.1255-72.1055C39.6792-72.9493 39.293-73.0708 38.4424-72.9698C37.5884-72.8199 37.3555-72.4893 37.209-71.6387L36.7071-68.1841C34.4986-67.6016 32.3843-66.8306 30.4097-65.8291L27.8091-68.1822C27.1153-68.8272 26.7188-68.7886 25.9658-68.3877C25.2129-67.9834 25.0947-67.5484 25.2481-66.6978L25.9522-63.2432C24.124-61.9907 22.439-60.5952 20.8516-59.0078L17.5991-60.2696C16.7554-60.6182 16.3135-60.4615 15.7627-59.8096C15.2539-59.2031 15.2505-58.7612 15.6582-58.0152L17.5127-55.0137C16.2183-53.2275 15.1089-51.3052 14.1914-49.2852L10.6914-49.3897C9.792-49.4385 9.45459-49.125 9.15479-48.3198C8.85156-47.5181 9.01172-47.1704 9.70899-46.5776L12.4209-44.3813C11.7998-42.2637 11.416-40.0972 11.2661-37.8364L7.95801-36.7837C7.06201-36.4873 6.83594-36.1079 6.83594-35.2539C6.83594-34.3999 7.06201-34.0205 7.95801-33.7241L11.2661-32.626C11.416-30.3652 11.7998-28.1987 12.4209-26.1265L9.70899-23.8848C9.01172-23.292 8.9458-22.9443 9.19678-22.1426C9.5-21.334 9.792-21.1601 10.6426-21.1636L14.1914-21.2646C15.1089-19.1992 16.2183-17.3223 17.5127-15.4907L15.749-12.4927C15.2505-11.6557 15.3482-11.2558 15.8047-10.6074C16.3589-9.99753 16.7554-9.93503 17.5537-10.2383L20.8516-11.5C22.3936-9.90916 24.1275-8.51365 25.9068-7.26121L25.2935-3.81003C25.1402-2.86863 25.3037-2.52438 26.0078-2.07467C26.7642-1.67038 27.1153-1.68063 27.7637-2.28024L30.4585-4.63327C32.4297-3.6738 34.502-2.90623 36.6651-2.32371L37.209 1.08548C37.3555 2.02689 37.6826 2.26322 38.4844 2.46195C39.3384 2.61185 39.6792 2.44144 40.1255 1.6431L41.7745-1.46286C42.8838-1.36863 44.0352-1.3198 45.1412-1.3198ZM45.1412-3.50929C27.5928-3.50929 13.3965-17.751 13.3965-35.2539C13.3965-52.7568 27.5928-66.9985 45.1412-66.9985C62.6441-66.9985 76.8858-52.7568 76.8858-35.2539C76.8858-17.751 62.6441-3.50929 45.1412-3.50929ZM40.6426-40.8022L42.5-41.8906L29.2632-64.751L27.3887-63.7251ZM52.1207-34.4097L78.542-34.4097L78.542-36.5977L52.1207-36.5977ZM43.087-28.7397L41.1455-29.793L27.4487-6.92237L29.3619-5.84423ZM45.232-27.477C49.4986-27.477 52.9634-30.9873 52.9634-35.2539C52.9634-39.5205 49.4986-43.0308 45.232-43.0308C40.9199-43.0308 37.4585-39.5205 37.4585-35.2539C37.4585-30.9873 40.9199-27.477 45.232-27.477ZM45.232-29.7061C42.1265-29.7061 39.6841-32.1939 39.6841-35.2539C39.6841-38.314 42.1265-40.8017 45.232-40.8017C48.292-40.8017 50.7344-38.314 50.7344-35.2539C50.7344-32.1939 48.292-29.7061 45.232-29.7061Z"/>
  </g>
 </g>
</svg>
