<?xml version="1.0" encoding="UTF-8"?>
<!--Generator: Apple Native CoreSVG 341-->
<!DOCTYPE svg
PUBLIC "-//W3C//DTD SVG 1.1//EN"
       "http://www.w3.org/Graphics/SVG/1.1/DTD/svg11.dtd">
<svg version="1.1" xmlns="http://www.w3.org/2000/svg" xmlns:xlink="http://www.w3.org/1999/xlink" viewBox="0 0 3300 2200">
 <!--glyph: "1012F8", point size: 100.0, font version: "20.0d10e1", template writer version: "138.0.0"-->
 <style>.monochrome-0 {-sfsymbols-motion-group:0;-sfsymbols-layer-tags:beach.umbrella}

.multicolor-0:tintColor {-sfsymbols-motion-group:0;-sfsymbols-layer-tags:beach.umbrella}

.hierarchical-0:primary {-sfsymbols-motion-group:0;-sfsymbols-layer-tags:beach.umbrella}

.SFSymbolsPreviewWireframe {fill:none;opacity:1.0;stroke:black;stroke-width:0.5}
</style>
 <g id="Notes">
  <rect height="2200" id="artboard" style="fill:white;opacity:1" width="3300" x="0" y="0"/>
  <line style="fill:none;stroke:black;opacity:1;stroke-width:0.5;" x1="263" x2="3036" y1="292" y2="292"/>
  <text style="stroke:none;fill:black;font-family:sans-serif;font-size:13;font-weight:bold;" transform="matrix(1 0 0 1 263 322)">Weight/Scale Variations</text>
  <text style="stroke:none;fill:black;font-family:sans-serif;font-size:13;text-anchor:middle;" transform="matrix(1 0 0 1 559.711 322)">Ultralight</text>
  <text style="stroke:none;fill:black;font-family:sans-serif;font-size:13;text-anchor:middle;" transform="matrix(1 0 0 1 856.422 322)">Thin</text>
  <text style="stroke:none;fill:black;font-family:sans-serif;font-size:13;text-anchor:middle;" transform="matrix(1 0 0 1 1153.13 322)">Light</text>
  <text style="stroke:none;fill:black;font-family:sans-serif;font-size:13;text-anchor:middle;" transform="matrix(1 0 0 1 1449.84 322)">Regular</text>
  <text style="stroke:none;fill:black;font-family:sans-serif;font-size:13;text-anchor:middle;" transform="matrix(1 0 0 1 1746.56 322)">Medium</text>
  <text style="stroke:none;fill:black;font-family:sans-serif;font-size:13;text-anchor:middle;" transform="matrix(1 0 0 1 2043.27 322)">Semibold</text>
  <text style="stroke:none;fill:black;font-family:sans-serif;font-size:13;text-anchor:middle;" transform="matrix(1 0 0 1 2339.98 322)">Bold</text>
  <text style="stroke:none;fill:black;font-family:sans-serif;font-size:13;text-anchor:middle;" transform="matrix(1 0 0 1 2636.69 322)">Heavy</text>
  <text style="stroke:none;fill:black;font-family:sans-serif;font-size:13;text-anchor:middle;" transform="matrix(1 0 0 1 2933.4 322)">Black</text>
  <line style="fill:none;stroke:black;opacity:1;stroke-width:0.5;" x1="263" x2="3036" y1="1903" y2="1903"/>
  <g transform="matrix(0.2 0 0 0.2 263 1933)">
   <path d="m46.2402 4.15039c21.7773 0 39.4531-17.627 39.4531-39.4043s-17.6758-39.4043-39.4531-39.4043c-21.7285 0-39.4043 17.627-39.4043 39.4043s17.6758 39.4043 39.4043 39.4043Zm0-7.42188c-17.6758 0-31.9336-14.3066-31.9336-31.9824s14.2578-31.9824 31.9336-31.9824 31.9824 14.3066 31.9824 31.9824-14.3066 31.9824-31.9824 31.9824Zm-17.9688-31.9824c0 2.14844 1.51367 3.61328 3.75977 3.61328h10.498v10.5957c0 2.19727 1.46484 3.71094 3.61328 3.71094 2.24609 0 3.71094-1.51367 3.71094-3.71094v-10.5957h10.5957c2.19727 0 3.71094-1.46484 3.71094-3.61328 0-2.19727-1.51367-3.71094-3.71094-3.71094h-10.5957v-10.5469c0-2.24609-1.46484-3.75977-3.71094-3.75977-2.14844 0-3.61328 1.51367-3.61328 3.75977v10.5469h-10.498c-2.24609 0-3.75977 1.51367-3.75977 3.71094Z"/>
  </g>
  <g transform="matrix(0.2 0 0 0.2 281.506 1933)">
   <path d="m58.5449 14.5508c27.4902 0 49.8047-22.3145 49.8047-49.8047s-22.3145-49.8047-49.8047-49.8047-49.8047 22.3145-49.8047 49.8047 22.3145 49.8047 49.8047 49.8047Zm0-8.30078c-22.9492 0-41.5039-18.5547-41.5039-41.5039s18.5547-41.5039 41.5039-41.5039 41.5039 18.5547 41.5039 41.5039-18.5547 41.5039-41.5039 41.5039Zm-22.6562-41.5039c0 2.39258 1.66016 4.00391 4.15039 4.00391h14.3555v14.4043c0 2.44141 1.66016 4.15039 4.05273 4.15039 2.44141 0 4.15039-1.66016 4.15039-4.15039v-14.4043h14.4043c2.44141 0 4.15039-1.61133 4.15039-4.00391 0-2.44141-1.70898-4.15039-4.15039-4.15039h-14.4043v-14.3555c0-2.49023-1.70898-4.19922-4.15039-4.19922-2.39258 0-4.05273 1.70898-4.05273 4.19922v14.3555h-14.3555c-2.49023 0-4.15039 1.70898-4.15039 4.15039Z"/>
  </g>
  <g transform="matrix(0.2 0 0 0.2 304.924 1933)">
   <path d="m74.8535 28.3203c35.1074 0 63.623-28.4668 63.623-63.5742s-28.5156-63.623-63.623-63.623-63.5742 28.5156-63.5742 63.623 28.4668 63.5742 63.5742 63.5742Zm0-9.08203c-30.127 0-54.4922-24.3652-54.4922-54.4922s24.3652-54.4922 54.4922-54.4922 54.4922 24.3652 54.4922 54.4922-24.3652 54.4922-54.4922 54.4922Zm-28.8574-54.4922c0 2.58789 1.85547 4.39453 4.58984 4.39453h19.7266v19.7754c0 2.68555 1.85547 4.58984 4.44336 4.58984 2.68555 0 4.54102-1.85547 4.54102-4.58984v-19.7754h19.7754c2.68555 0 4.58984-1.80664 4.58984-4.39453 0-2.73438-1.85547-4.58984-4.58984-4.58984h-19.7754v-19.7266c0-2.73438-1.85547-4.63867-4.54102-4.63867-2.58789 0-4.44336 1.9043-4.44336 4.63867v19.7266h-19.7266c-2.73438 0-4.58984 1.85547-4.58984 4.58984Z"/>
  </g>
  <text style="stroke:none;fill:black;font-family:sans-serif;font-size:13;font-weight:bold;" transform="matrix(1 0 0 1 263 1953)">Design Variations</text>
  <text style="stroke:none;fill:black;font-family:sans-serif;font-size:13;" transform="matrix(1 0 0 1 263 1971)">Symbols are supported in up to nine weights and three scales.</text>
  <text style="stroke:none;fill:black;font-family:sans-serif;font-size:13;" transform="matrix(1 0 0 1 263 1989)">For optimal layout with text and other symbols, vertically align</text>
  <text style="stroke:none;fill:black;font-family:sans-serif;font-size:13;" transform="matrix(1 0 0 1 263 2007)">symbols with the adjacent text.</text>
  <line style="fill:none;stroke:#00AEEF;stroke-width:0.5;opacity:1.0;" x1="776" x2="776" y1="1919" y2="1933"/>
  <g transform="matrix(0.2 0 0 0.2 776 1933)">
   <path d="m16.5527 0.78125c2.58789 0 3.85742-0.976562 4.78516-3.71094l6.29883-17.2363h28.8086l6.29883 17.2363c0.927734 2.73438 2.19727 3.71094 4.73633 3.71094 2.58789 0 4.24805-1.5625 4.24805-4.00391 0-0.830078-0.146484-1.61133-0.537109-2.63672l-22.9004-60.9863c-1.12305-2.97852-3.125-4.49219-6.25-4.49219-3.02734 0-5.07812 1.46484-6.15234 4.44336l-22.9004 61.084c-0.390625 1.02539-0.537109 1.80664-0.537109 2.63672 0 2.44141 1.5625 3.95508 4.10156 3.95508Zm13.4766-28.3691 11.8652-32.8613h0.244141l11.8652 32.8613Z"/>
  </g>
  <line style="fill:none;stroke:#00AEEF;stroke-width:0.5;opacity:1.0;" x1="792.836" x2="792.836" y1="1919" y2="1933"/>
  <text style="stroke:none;fill:black;font-family:sans-serif;font-size:13;font-weight:bold;" transform="matrix(1 0 0 1 776 1953)">Margins</text>
  <text style="stroke:none;fill:black;font-family:sans-serif;font-size:13;" transform="matrix(1 0 0 1 776 1971)">Leading and trailing margins on the left and right side of each symbol</text>
  <text style="stroke:none;fill:black;font-family:sans-serif;font-size:13;" transform="matrix(1 0 0 1 776 1989)">can be adjusted by modifying the x-location of the margin guidelines.</text>
  <text style="stroke:none;fill:black;font-family:sans-serif;font-size:13;" transform="matrix(1 0 0 1 776 2007)">Modifications are automatically applied proportionally to all</text>
  <text style="stroke:none;fill:black;font-family:sans-serif;font-size:13;" transform="matrix(1 0 0 1 776 2025)">scales and weights.</text>
  <g transform="matrix(0.2 0 0 0.2 1289 1933)">
   <path d="m14.209 9.32617 8.49609 8.54492c4.29688 4.3457 9.22852 4.05273 13.8672-1.07422l53.4668-58.9355-4.83398-4.88281-53.0762 58.3984c-1.75781 2.00195-3.41797 2.49023-5.76172 0.146484l-5.85938-5.81055c-2.34375-2.29492-1.80664-4.00391 0.195312-5.81055l57.373-54.0039-4.88281-4.83398-57.959 54.4434c-4.93164 4.58984-5.32227 9.47266-1.02539 13.8184Zm32.0801-90.9668c-2.09961 2.05078-2.24609 4.93164-1.07422 6.88477 1.17188 1.80664 3.4668 2.97852 6.68945 2.14844 7.32422-1.70898 14.9414-2.00195 22.0703 2.68555l-2.92969 7.27539c-1.70898 4.15039-0.830078 7.08008 1.85547 9.81445l11.4746 11.5723c2.44141 2.44141 4.49219 2.53906 7.32422 2.05078l5.32227-0.976562 3.32031 3.36914-0.195312 2.7832c-0.195312 2.49023 0.439453 4.39453 2.88086 6.78711l3.80859 3.71094c2.39258 2.39258 5.46875 2.53906 7.8125 0.195312l14.5508-14.5996c2.34375-2.34375 2.24609-5.32227-0.146484-7.71484l-3.85742-3.80859c-2.39258-2.39258-4.24805-3.17383-6.64062-2.97852l-2.88086 0.244141-3.22266-3.17383 1.2207-5.61523c0.634766-2.83203-0.146484-5.0293-3.07617-7.95898l-10.9863-10.9375c-16.6992-16.6016-38.8672-16.2109-53.3203-1.75781Zm7.4707 1.85547c12.1582-8.88672 28.6133-7.37305 39.7461 3.75977l12.1582 12.0605c1.17188 1.17188 1.36719 2.09961 1.02539 3.80859l-1.61133 7.42188 7.51953 7.42188 4.93164-0.292969c1.26953-0.0488281 1.66016 0.0488281 2.63672 1.02539l2.88086 2.88086-12.207 12.207-2.88086-2.88086c-0.976562-0.976562-1.12305-1.36719-1.07422-2.68555l0.341797-4.88281-7.4707-7.42188-7.61719 1.26953c-1.61133 0.341797-2.34375 0.195312-3.56445-0.976562l-10.0098-10.0098c-1.26953-1.17188-1.41602-2.00195-0.634766-3.85742l4.39453-10.4492c-7.8125-7.27539-17.9688-10.4004-28.125-7.42188-0.78125 0.195312-1.07422-0.439453-0.439453-0.976562Z"/>
  </g>
  <text style="stroke:none;fill:black;font-family:sans-serif;font-size:13;font-weight:bold;" transform="matrix(1 0 0 1 1289 1953)">Exporting</text>
  <text style="stroke:none;fill:black;font-family:sans-serif;font-size:13;" transform="matrix(1 0 0 1 1289 1971)">Symbols should be outlined when exporting to ensure the</text>
  <text style="stroke:none;fill:black;font-family:sans-serif;font-size:13;" transform="matrix(1 0 0 1 1289 1989)">design is preserved when submitting to Xcode.</text>
  <text id="template-version" style="stroke:none;fill:black;font-family:sans-serif;font-size:13;text-anchor:end;" transform="matrix(1 0 0 1 3036 1933)">Template v.6.0</text>
  <text style="stroke:none;fill:black;font-family:sans-serif;font-size:13;text-anchor:end;" transform="matrix(1 0 0 1 3036 1951)">Requires Xcode 16 or greater</text>
  <text id="descriptive-name" style="stroke:none;fill:black;font-family:sans-serif;font-size:13;text-anchor:end;" transform="matrix(1 0 0 1 3036 1969)">Generated from beach.umbrella</text>
  <text style="stroke:none;fill:black;font-family:sans-serif;font-size:13;text-anchor:end;" transform="matrix(1 0 0 1 3036 1987)">Typeset at 100.0 points</text>
  <text style="stroke:none;fill:black;font-family:sans-serif;font-size:13;" transform="matrix(1 0 0 1 263 726)">Small</text>
  <text style="stroke:none;fill:black;font-family:sans-serif;font-size:13;" transform="matrix(1 0 0 1 263 1156)">Medium</text>
  <text style="stroke:none;fill:black;font-family:sans-serif;font-size:13;" transform="matrix(1 0 0 1 263 1586)">Large</text>
 </g>
 <g id="Guides">
  <g id="H-reference" style="fill:#27AAE1;stroke:none;" transform="matrix(1 0 0 1 339 696)">
   <path d="M0.993654 0L3.63775 0L29.3281-67.1323L30.0303-67.1323L30.0303-70.459L28.1226-70.459ZM11.6885-24.4799L46.9815-24.4799L46.2315-26.7285L12.4385-26.7285ZM55.1196 0L57.7637 0L30.6382-70.459L29.4326-70.459L29.4326-67.1323Z"/>
  </g>
  <line id="Baseline-S" style="fill:none;stroke:#27AAE1;opacity:1;stroke-width:0.5;" x1="263" x2="3036" y1="696" y2="696"/>
  <line id="Capline-S" style="fill:none;stroke:#27AAE1;opacity:1;stroke-width:0.5;" x1="263" x2="3036" y1="625.541" y2="625.541"/>
  <g id="H-reference" style="fill:#27AAE1;stroke:none;" transform="matrix(1 0 0 1 339 1126)">
   <path d="M0.993654 0L3.63775 0L29.3281-67.1323L30.0303-67.1323L30.0303-70.459L28.1226-70.459ZM11.6885-24.4799L46.9815-24.4799L46.2315-26.7285L12.4385-26.7285ZM55.1196 0L57.7637 0L30.6382-70.459L29.4326-70.459L29.4326-67.1323Z"/>
  </g>
  <line id="Baseline-M" style="fill:none;stroke:#27AAE1;opacity:1;stroke-width:0.5;" x1="263" x2="3036" y1="1126" y2="1126"/>
  <line id="Capline-M" style="fill:none;stroke:#27AAE1;opacity:1;stroke-width:0.5;" x1="263" x2="3036" y1="1055.54" y2="1055.54"/>
  <g id="H-reference" style="fill:#27AAE1;stroke:none;" transform="matrix(1 0 0 1 339 1556)">
   <path d="M0.993654 0L3.63775 0L29.3281-67.1323L30.0303-67.1323L30.0303-70.459L28.1226-70.459ZM11.6885-24.4799L46.9815-24.4799L46.2315-26.7285L12.4385-26.7285ZM55.1196 0L57.7637 0L30.6382-70.459L29.4326-70.459L29.4326-67.1323Z"/>
  </g>
  <line id="Baseline-L" style="fill:none;stroke:#27AAE1;opacity:1;stroke-width:0.5;" x1="263" x2="3036" y1="1556" y2="1556"/>
  <line id="Capline-L" style="fill:none;stroke:#27AAE1;opacity:1;stroke-width:0.5;" x1="263" x2="3036" y1="1485.54" y2="1485.54"/>
  <line id="right-margin-Black-S" style="fill:none;stroke:#00AEEF;stroke-width:0.5;opacity:1.0;" x1="2983.33" x2="2983.33" y1="600.785" y2="720.121"/>
  <line id="left-margin-Black-S" style="fill:none;stroke:#00AEEF;stroke-width:0.5;opacity:1.0;" x1="2883.47" x2="2883.47" y1="600.785" y2="720.121"/>
  <line id="right-margin-Regular-S" style="fill:none;stroke:#00AEEF;stroke-width:0.5;opacity:1.0;" x1="1497.72" x2="1497.72" y1="600.785" y2="720.121"/>
  <line id="left-margin-Regular-S" style="fill:none;stroke:#00AEEF;stroke-width:0.5;opacity:1.0;" x1="1401.97" x2="1401.97" y1="600.785" y2="720.121"/>
  <line id="right-margin-Ultralight-S" style="fill:none;stroke:#00AEEF;stroke-width:0.5;opacity:1.0;" x1="604.976" x2="604.976" y1="600.785" y2="720.121"/>
  <line id="left-margin-Ultralight-S" style="fill:none;stroke:#00AEEF;stroke-width:0.5;opacity:1.0;" x1="514.446" x2="514.446" y1="600.785" y2="720.121"/>
 </g>
 <g id="Symbols">
  <g id="Black-S" transform="matrix(1 0 0 1 2883.47 696)">
   <path class="monochrome-0 multicolor-0:tintColor hierarchical-0:primary SFSymbolsPreviewWireframe" d="M9.17969-48.584C7.95898-45.3125 9.57031-41.8457 12.6465-40.7227C15.3809-39.7461 17.6758-40.2344 21.9238-41.7969C23.4863-42.3828 25.0488-42.4316 26.6113-41.8945C28.125-41.3086 29.2969-39.9414 30.7129-36.9141C31.7383-34.7168 32.959-33.3496 34.9609-32.6172C36.7676-31.9336 38.7207-32.2266 40.8203-33.1543C41.1133-33.3008 41.4551-33.3984 41.7969-33.4961L28.6133 2.58789C27.3438 6.10352 29.1504 9.91211 32.6172 11.1816C36.084 12.4512 39.9414 10.6934 41.2109 7.17773L54.3457-28.9551C54.4922-28.6621 54.6875-28.3691 54.834-28.0762C55.8594-25.9766 57.1289-24.5117 58.9844-23.877C60.9375-23.1445 62.793-23.4375 64.9414-24.4141C68.0176-25.8789 69.8242-26.1719 71.3379-25.5859C72.8516-25.0488 74.0723-23.9746 74.8535-22.5586C77.1484-18.6035 78.5156-16.748 81.2988-15.7227C84.375-14.5996 87.8418-16.2598 89.0137-19.5312C93.9941-33.2031 90.7227-57.4707 68.8965-68.9941L70.3613-73.0957C71.6797-76.6602 69.873-80.3711 66.4062-81.6406C62.8906-82.9102 59.1797-81.25 57.8613-77.6367L56.3965-73.5352C32.2754-78.7598 14.1602-62.3047 9.17969-48.584ZM26.5625-54.0527C31.6895-59.082 38.8672-62.1094 46.4355-62.4023C42.7246-59.0332 39.1602-54.5898 36.4258-49.0234C34.9609-50.7324 33.0078-52.1973 30.5664-53.125C29.248-53.6133 27.9297-53.9551 26.5625-54.0527ZM44.4336-45.459C48.4863-53.2715 54.248-58.0566 58.6914-60.4492C60.5957-55.7617 61.9141-48.3887 59.9609-39.7949C58.1543-42.041 55.6641-43.9453 53.0273-44.9219C50.3906-45.8984 47.2656-45.9961 44.4336-45.459ZM68.4082-37.3535C69.873-43.4082 70.0195-49.0723 69.3359-54.0527C74.9512-48.9746 78.4668-42.041 79.1504-34.9121C78.0762-35.6934 76.8555-36.2793 75.5371-36.7676C73.0957-37.6465 70.6055-37.793 68.4082-37.3535Z"/>
  </g>
  <g id="Regular-S" transform="matrix(1 0 0 1 1401.97 696)">
   <path class="monochrome-0 multicolor-0:tintColor hierarchical-0:primary SFSymbolsPreviewWireframe" d="M9.08203-50.0977C8.20312-47.6074 9.42383-45.5566 11.2305-44.9219C12.5977-44.4336 13.916-45.0684 14.9902-45.9473C18.3105-48.3887 21.5332-49.5605 25.4883-48.1445C29.4434-46.7285 30.957-43.7988 31.5918-39.8438C31.7871-38.4766 32.2754-37.207 33.5449-36.8164C34.9121-36.2793 36.0352-36.9141 37.1094-37.793C39.2578-39.6484 42.041-40.7227 44.8242-40.7227L27.7344 6.20117C27.0996 7.95898 28.0273 10.0586 29.8828 10.7422C31.6895 11.3281 33.7891 10.4004 34.4238 8.59375L51.5137-38.2812C53.6133-36.4746 55.0293-33.8867 55.5176-31.1035C55.8105-29.7363 56.2012-28.5156 57.5684-28.0762C58.8379-27.5879 59.9609-28.2227 61.0352-29.1016C64.1113-31.7383 67.0898-33.0078 71.0449-31.5918C75-30.127 76.709-27.1484 77.6855-23.0957C77.9297-21.6797 78.5645-20.3613 79.8828-19.9219C81.6895-19.2871 84.0332-20.0684 84.8633-22.5586C90.0391-36.7188 86.6699-60.7422 63.4766-71.1914L65.332-76.2695C66.0645-78.3691 65.2344-80.2734 63.2324-81.0547C61.2793-81.7871 59.4238-80.7617 58.6426-78.7109L56.7871-73.584C32.373-80.5664 14.2578-64.3555 9.08203-50.0977ZM19.3848-55.1758C26.0254-64.502 37.6465-69.6777 49.9512-68.0664C44.0918-63.916 38.623-57.2754 35.0586-48.9746C33.4473-51.5625 30.957-53.418 27.832-54.4922C25-55.5176 22.168-55.8105 19.3848-55.1758ZM40.2344-46.7773C44.3359-56.3477 51.416-63.3789 57.8125-66.1621C61.0352-59.9121 61.9141-49.9512 58.8867-39.9414C56.9824-42.9688 54.0039-45.2148 50.6836-46.4844C47.3633-47.7051 43.6035-47.8027 40.2344-46.7773ZM64.2578-38.3301C66.8945-46.9727 66.9434-55.5664 65.1855-62.5C75.6348-55.8105 81.1523-44.3848 80.2246-33.0566C78.4668-35.2539 76.1719-36.8652 73.3398-37.9395C70.2148-39.0625 67.1387-39.2578 64.2578-38.3301Z"/>
  </g>
  <g id="Ultralight-S" transform="matrix(1 0 0 1 514.446 696)">
   <path class="monochrome-0 multicolor-0:tintColor hierarchical-0:primary SFSymbolsPreviewWireframe" d="M8.90039-47.146C8.61181-46.2905 8.92432-45.6475 9.59572-45.376C10.2818-45.1147 10.7373-45.477 11.312-45.8564C15.6314-48.9336 19.4898-49.7876 23.4903-48.2808C27.5361-46.8193 29.5493-43.9351 30.4566-39.208C30.6519-38.1587 30.9585-37.6157 31.6377-37.3613C32.2783-37.1421 32.8111-37.3682 33.6128-38.02C36.5786-40.4658 41.042-41.2222 44.7334-40.4502L28.4609 4.11232C28.0986 5.05276 28.6177 6.01712 29.5195 6.38285C30.418 6.69633 31.4278 6.22269 31.7901 5.27883L48.0171-39.2349C51.252-37.4282 54.2573-34.0229 54.9273-30.2407C55.1294-29.2822 55.4292-28.6973 56.0244-28.4849C56.7036-28.2236 57.2818-28.4951 58.1289-29.147C61.8408-32.1924 65.228-33.0986 69.2739-31.6372C73.3198-30.1724 75.71-27.0576 77.0498-21.915C77.2485-21.271 77.3838-20.7246 78.0664-20.4668C78.7832-20.1953 79.4468-20.5225 79.6866-21.3325C84.9986-36.0376 80.6758-58.6533 58.3453-67.7403L60.8365-74.544C61.2056-75.5991 60.8296-76.459 59.8267-76.877C58.8272-77.2461 57.9253-76.7657 57.5527-75.7593L55.0615-68.9522C32.1006-76.3433 14.2578-61.8125 8.90039-47.146ZM11.8013-48.6368C17.6246-61.5957 32.9239-72.9926 52.7212-67.4307C45.0454-63.916 37.2153-54.687 32.0161-41.482C30.8135-45.9771 28.2779-48.8316 24.1992-50.2691C20.1412-51.7486 16.0831-51.2242 11.8013-48.6368ZM34.1041-40.8287C39.6587-54.8037 48.1465-64.1055 55.9961-66.3892C60.5811-59.6397 61.1421-46.9995 56.3892-32.6758C54.939-36.7022 51.3247-40.4468 47.0962-41.9434C42.9131-43.482 37.7457-42.9893 34.1041-40.8287ZM58.3999-31.9273C62.8531-45.3833 62.7657-57.4736 59.146-65.0884C77.9053-56.5825 82.2876-37.982 78.4536-24.4288C76.832-29.1236 74.083-32.1426 69.9795-33.6255C65.9463-35.0664 62.2344-34.5806 58.3999-31.9273Z"/>
  </g>
 </g>
</svg>
