<?xml version="1.0" encoding="UTF-8"?>
<!--Generator: Apple Native CoreSVG 341-->
<!DOCTYPE svg
PUBLIC "-//W3C//DTD SVG 1.1//EN"
       "http://www.w3.org/Graphics/SVG/1.1/DTD/svg11.dtd">
<svg version="1.1" xmlns="http://www.w3.org/2000/svg" xmlns:xlink="http://www.w3.org/1999/xlink" viewBox="0 0 3300 2200">
 <!--glyph: "100658", point size: 100.0, font version: "20.0d10e1", template writer version: "138.0.0"-->
 <style>.monochrome-0 {-sfsymbols-motion-group:0;-sfsymbols-layer-tags:car}

.multicolor-0:systemBlueColor {-sfsymbols-motion-group:0;-sfsymbols-layer-tags:car}

.hierarchical-0:primary {-sfsymbols-motion-group:0;-sfsymbols-layer-tags:car}

.SFSymbolsPreviewWireframe {fill:none;opacity:1.0;stroke:black;stroke-width:0.5}
</style>
 <g id="Notes">
  <rect height="2200" id="artboard" style="fill:white;opacity:1" width="3300" x="0" y="0"/>
  <line style="fill:none;stroke:black;opacity:1;stroke-width:0.5;" x1="263" x2="3036" y1="292" y2="292"/>
  <text style="stroke:none;fill:black;font-family:sans-serif;font-size:13;font-weight:bold;" transform="matrix(1 0 0 1 263 322)">Weight/Scale Variations</text>
  <text style="stroke:none;fill:black;font-family:sans-serif;font-size:13;text-anchor:middle;" transform="matrix(1 0 0 1 559.711 322)">Ultralight</text>
  <text style="stroke:none;fill:black;font-family:sans-serif;font-size:13;text-anchor:middle;" transform="matrix(1 0 0 1 856.422 322)">Thin</text>
  <text style="stroke:none;fill:black;font-family:sans-serif;font-size:13;text-anchor:middle;" transform="matrix(1 0 0 1 1153.13 322)">Light</text>
  <text style="stroke:none;fill:black;font-family:sans-serif;font-size:13;text-anchor:middle;" transform="matrix(1 0 0 1 1449.84 322)">Regular</text>
  <text style="stroke:none;fill:black;font-family:sans-serif;font-size:13;text-anchor:middle;" transform="matrix(1 0 0 1 1746.56 322)">Medium</text>
  <text style="stroke:none;fill:black;font-family:sans-serif;font-size:13;text-anchor:middle;" transform="matrix(1 0 0 1 2043.27 322)">Semibold</text>
  <text style="stroke:none;fill:black;font-family:sans-serif;font-size:13;text-anchor:middle;" transform="matrix(1 0 0 1 2339.98 322)">Bold</text>
  <text style="stroke:none;fill:black;font-family:sans-serif;font-size:13;text-anchor:middle;" transform="matrix(1 0 0 1 2636.69 322)">Heavy</text>
  <text style="stroke:none;fill:black;font-family:sans-serif;font-size:13;text-anchor:middle;" transform="matrix(1 0 0 1 2933.4 322)">Black</text>
  <line style="fill:none;stroke:black;opacity:1;stroke-width:0.5;" x1="263" x2="3036" y1="1903" y2="1903"/>
  <g transform="matrix(0.2 0 0 0.2 263 1933)">
   <path d="m46.2402 4.15039c21.7773 0 39.4531-17.627 39.4531-39.4043s-17.6758-39.4043-39.4531-39.4043c-21.7285 0-39.4043 17.627-39.4043 39.4043s17.6758 39.4043 39.4043 39.4043Zm0-7.42188c-17.6758 0-31.9336-14.3066-31.9336-31.9824s14.2578-31.9824 31.9336-31.9824 31.9824 14.3066 31.9824 31.9824-14.3066 31.9824-31.9824 31.9824Zm-17.9688-31.9824c0 2.14844 1.51367 3.61328 3.75977 3.61328h10.498v10.5957c0 2.19727 1.46484 3.71094 3.61328 3.71094 2.24609 0 3.71094-1.51367 3.71094-3.71094v-10.5957h10.5957c2.19727 0 3.71094-1.46484 3.71094-3.61328 0-2.19727-1.51367-3.71094-3.71094-3.71094h-10.5957v-10.5469c0-2.24609-1.46484-3.75977-3.71094-3.75977-2.14844 0-3.61328 1.51367-3.61328 3.75977v10.5469h-10.498c-2.24609 0-3.75977 1.51367-3.75977 3.71094Z"/>
  </g>
  <g transform="matrix(0.2 0 0 0.2 281.506 1933)">
   <path d="m58.5449 14.5508c27.4902 0 49.8047-22.3145 49.8047-49.8047s-22.3145-49.8047-49.8047-49.8047-49.8047 22.3145-49.8047 49.8047 22.3145 49.8047 49.8047 49.8047Zm0-8.30078c-22.9492 0-41.5039-18.5547-41.5039-41.5039s18.5547-41.5039 41.5039-41.5039 41.5039 18.5547 41.5039 41.5039-18.5547 41.5039-41.5039 41.5039Zm-22.6562-41.5039c0 2.39258 1.66016 4.00391 4.15039 4.00391h14.3555v14.4043c0 2.44141 1.66016 4.15039 4.05273 4.15039 2.44141 0 4.15039-1.66016 4.15039-4.15039v-14.4043h14.4043c2.44141 0 4.15039-1.61133 4.15039-4.00391 0-2.44141-1.70898-4.15039-4.15039-4.15039h-14.4043v-14.3555c0-2.49023-1.70898-4.19922-4.15039-4.19922-2.39258 0-4.05273 1.70898-4.05273 4.19922v14.3555h-14.3555c-2.49023 0-4.15039 1.70898-4.15039 4.15039Z"/>
  </g>
  <g transform="matrix(0.2 0 0 0.2 304.924 1933)">
   <path d="m74.8535 28.3203c35.1074 0 63.623-28.4668 63.623-63.5742s-28.5156-63.623-63.623-63.623-63.5742 28.5156-63.5742 63.623 28.4668 63.5742 63.5742 63.5742Zm0-9.08203c-30.127 0-54.4922-24.3652-54.4922-54.4922s24.3652-54.4922 54.4922-54.4922 54.4922 24.3652 54.4922 54.4922-24.3652 54.4922-54.4922 54.4922Zm-28.8574-54.4922c0 2.58789 1.85547 4.39453 4.58984 4.39453h19.7266v19.7754c0 2.68555 1.85547 4.58984 4.44336 4.58984 2.68555 0 4.54102-1.85547 4.54102-4.58984v-19.7754h19.7754c2.68555 0 4.58984-1.80664 4.58984-4.39453 0-2.73438-1.85547-4.58984-4.58984-4.58984h-19.7754v-19.7266c0-2.73438-1.85547-4.63867-4.54102-4.63867-2.58789 0-4.44336 1.9043-4.44336 4.63867v19.7266h-19.7266c-2.73438 0-4.58984 1.85547-4.58984 4.58984Z"/>
  </g>
  <text style="stroke:none;fill:black;font-family:sans-serif;font-size:13;font-weight:bold;" transform="matrix(1 0 0 1 263 1953)">Design Variations</text>
  <text style="stroke:none;fill:black;font-family:sans-serif;font-size:13;" transform="matrix(1 0 0 1 263 1971)">Symbols are supported in up to nine weights and three scales.</text>
  <text style="stroke:none;fill:black;font-family:sans-serif;font-size:13;" transform="matrix(1 0 0 1 263 1989)">For optimal layout with text and other symbols, vertically align</text>
  <text style="stroke:none;fill:black;font-family:sans-serif;font-size:13;" transform="matrix(1 0 0 1 263 2007)">symbols with the adjacent text.</text>
  <line style="fill:none;stroke:#00AEEF;stroke-width:0.5;opacity:1.0;" x1="776" x2="776" y1="1919" y2="1933"/>
  <g transform="matrix(0.2 0 0 0.2 776 1933)">
   <path d="m16.5527 0.78125c2.58789 0 3.85742-0.976562 4.78516-3.71094l6.29883-17.2363h28.8086l6.29883 17.2363c0.927734 2.73438 2.19727 3.71094 4.73633 3.71094 2.58789 0 4.24805-1.5625 4.24805-4.00391 0-0.830078-0.146484-1.61133-0.537109-2.63672l-22.9004-60.9863c-1.12305-2.97852-3.125-4.49219-6.25-4.49219-3.02734 0-5.07812 1.46484-6.15234 4.44336l-22.9004 61.084c-0.390625 1.02539-0.537109 1.80664-0.537109 2.63672 0 2.44141 1.5625 3.95508 4.10156 3.95508Zm13.4766-28.3691 11.8652-32.8613h0.244141l11.8652 32.8613Z"/>
  </g>
  <line style="fill:none;stroke:#00AEEF;stroke-width:0.5;opacity:1.0;" x1="792.836" x2="792.836" y1="1919" y2="1933"/>
  <text style="stroke:none;fill:black;font-family:sans-serif;font-size:13;font-weight:bold;" transform="matrix(1 0 0 1 776 1953)">Margins</text>
  <text style="stroke:none;fill:black;font-family:sans-serif;font-size:13;" transform="matrix(1 0 0 1 776 1971)">Leading and trailing margins on the left and right side of each symbol</text>
  <text style="stroke:none;fill:black;font-family:sans-serif;font-size:13;" transform="matrix(1 0 0 1 776 1989)">can be adjusted by modifying the x-location of the margin guidelines.</text>
  <text style="stroke:none;fill:black;font-family:sans-serif;font-size:13;" transform="matrix(1 0 0 1 776 2007)">Modifications are automatically applied proportionally to all</text>
  <text style="stroke:none;fill:black;font-family:sans-serif;font-size:13;" transform="matrix(1 0 0 1 776 2025)">scales and weights.</text>
  <g transform="matrix(0.2 0 0 0.2 1289 1933)">
   <path d="m14.209 9.32617 8.49609 8.54492c4.29688 4.3457 9.22852 4.05273 13.8672-1.07422l53.4668-58.9355-4.83398-4.88281-53.0762 58.3984c-1.75781 2.00195-3.41797 2.49023-5.76172 0.146484l-5.85938-5.81055c-2.34375-2.29492-1.80664-4.00391 0.195312-5.81055l57.373-54.0039-4.88281-4.83398-57.959 54.4434c-4.93164 4.58984-5.32227 9.47266-1.02539 13.8184Zm32.0801-90.9668c-2.09961 2.05078-2.24609 4.93164-1.07422 6.88477 1.17188 1.80664 3.4668 2.97852 6.68945 2.14844 7.32422-1.70898 14.9414-2.00195 22.0703 2.68555l-2.92969 7.27539c-1.70898 4.15039-0.830078 7.08008 1.85547 9.81445l11.4746 11.5723c2.44141 2.44141 4.49219 2.53906 7.32422 2.05078l5.32227-0.976562 3.32031 3.36914-0.195312 2.7832c-0.195312 2.49023 0.439453 4.39453 2.88086 6.78711l3.80859 3.71094c2.39258 2.39258 5.46875 2.53906 7.8125 0.195312l14.5508-14.5996c2.34375-2.34375 2.24609-5.32227-0.146484-7.71484l-3.85742-3.80859c-2.39258-2.39258-4.24805-3.17383-6.64062-2.97852l-2.88086 0.244141-3.22266-3.17383 1.2207-5.61523c0.634766-2.83203-0.146484-5.0293-3.07617-7.95898l-10.9863-10.9375c-16.6992-16.6016-38.8672-16.2109-53.3203-1.75781Zm7.4707 1.85547c12.1582-8.88672 28.6133-7.37305 39.7461 3.75977l12.1582 12.0605c1.17188 1.17188 1.36719 2.09961 1.02539 3.80859l-1.61133 7.42188 7.51953 7.42188 4.93164-0.292969c1.26953-0.0488281 1.66016 0.0488281 2.63672 1.02539l2.88086 2.88086-12.207 12.207-2.88086-2.88086c-0.976562-0.976562-1.12305-1.36719-1.07422-2.68555l0.341797-4.88281-7.4707-7.42188-7.61719 1.26953c-1.61133 0.341797-2.34375 0.195312-3.56445-0.976562l-10.0098-10.0098c-1.26953-1.17188-1.41602-2.00195-0.634766-3.85742l4.39453-10.4492c-7.8125-7.27539-17.9688-10.4004-28.125-7.42188-0.78125 0.195312-1.07422-0.439453-0.439453-0.976562Z"/>
  </g>
  <text style="stroke:none;fill:black;font-family:sans-serif;font-size:13;font-weight:bold;" transform="matrix(1 0 0 1 1289 1953)">Exporting</text>
  <text style="stroke:none;fill:black;font-family:sans-serif;font-size:13;" transform="matrix(1 0 0 1 1289 1971)">Symbols should be outlined when exporting to ensure the</text>
  <text style="stroke:none;fill:black;font-family:sans-serif;font-size:13;" transform="matrix(1 0 0 1 1289 1989)">design is preserved when submitting to Xcode.</text>
  <text id="template-version" style="stroke:none;fill:black;font-family:sans-serif;font-size:13;text-anchor:end;" transform="matrix(1 0 0 1 3036 1933)">Template v.6.0</text>
  <text style="stroke:none;fill:black;font-family:sans-serif;font-size:13;text-anchor:end;" transform="matrix(1 0 0 1 3036 1951)">Requires Xcode 16 or greater</text>
  <text id="descriptive-name" style="stroke:none;fill:black;font-family:sans-serif;font-size:13;text-anchor:end;" transform="matrix(1 0 0 1 3036 1969)">Generated from car</text>
  <text style="stroke:none;fill:black;font-family:sans-serif;font-size:13;text-anchor:end;" transform="matrix(1 0 0 1 3036 1987)">Typeset at 100.0 points</text>
  <text style="stroke:none;fill:black;font-family:sans-serif;font-size:13;" transform="matrix(1 0 0 1 263 726)">Small</text>
  <text style="stroke:none;fill:black;font-family:sans-serif;font-size:13;" transform="matrix(1 0 0 1 263 1156)">Medium</text>
  <text style="stroke:none;fill:black;font-family:sans-serif;font-size:13;" transform="matrix(1 0 0 1 263 1586)">Large</text>
 </g>
 <g id="Guides">
  <g id="H-reference" style="fill:#27AAE1;stroke:none;" transform="matrix(1 0 0 1 339 696)">
   <path d="M0.993654 0L3.63775 0L29.3281-67.1323L30.0303-67.1323L30.0303-70.459L28.1226-70.459ZM11.6885-24.4799L46.9815-24.4799L46.2315-26.7285L12.4385-26.7285ZM55.1196 0L57.7637 0L30.6382-70.459L29.4326-70.459L29.4326-67.1323Z"/>
  </g>
  <line id="Baseline-S" style="fill:none;stroke:#27AAE1;opacity:1;stroke-width:0.5;" x1="263" x2="3036" y1="696" y2="696"/>
  <line id="Capline-S" style="fill:none;stroke:#27AAE1;opacity:1;stroke-width:0.5;" x1="263" x2="3036" y1="625.541" y2="625.541"/>
  <g id="H-reference" style="fill:#27AAE1;stroke:none;" transform="matrix(1 0 0 1 339 1126)">
   <path d="M0.993654 0L3.63775 0L29.3281-67.1323L30.0303-67.1323L30.0303-70.459L28.1226-70.459ZM11.6885-24.4799L46.9815-24.4799L46.2315-26.7285L12.4385-26.7285ZM55.1196 0L57.7637 0L30.6382-70.459L29.4326-70.459L29.4326-67.1323Z"/>
  </g>
  <line id="Baseline-M" style="fill:none;stroke:#27AAE1;opacity:1;stroke-width:0.5;" x1="263" x2="3036" y1="1126" y2="1126"/>
  <line id="Capline-M" style="fill:none;stroke:#27AAE1;opacity:1;stroke-width:0.5;" x1="263" x2="3036" y1="1055.54" y2="1055.54"/>
  <g id="H-reference" style="fill:#27AAE1;stroke:none;" transform="matrix(1 0 0 1 339 1556)">
   <path d="M0.993654 0L3.63775 0L29.3281-67.1323L30.0303-67.1323L30.0303-70.459L28.1226-70.459ZM11.6885-24.4799L46.9815-24.4799L46.2315-26.7285L12.4385-26.7285ZM55.1196 0L57.7637 0L30.6382-70.459L29.4326-70.459L29.4326-67.1323Z"/>
  </g>
  <line id="Baseline-L" style="fill:none;stroke:#27AAE1;opacity:1;stroke-width:0.5;" x1="263" x2="3036" y1="1556" y2="1556"/>
  <line id="Capline-L" style="fill:none;stroke:#27AAE1;opacity:1;stroke-width:0.5;" x1="263" x2="3036" y1="1485.54" y2="1485.54"/>
  <line id="right-margin-Black-S" style="fill:none;stroke:#00AEEF;stroke-width:0.5;opacity:1.0;" x1="2993.56" x2="2993.56" y1="600.785" y2="720.121"/>
  <line id="left-margin-Black-S" style="fill:none;stroke:#00AEEF;stroke-width:0.5;opacity:1.0;" x1="2873.24" x2="2873.24" y1="600.785" y2="720.121"/>
  <line id="right-margin-Regular-S" style="fill:none;stroke:#00AEEF;stroke-width:0.5;opacity:1.0;" x1="1505.36" x2="1505.36" y1="600.785" y2="720.121"/>
  <line id="left-margin-Regular-S" style="fill:none;stroke:#00AEEF;stroke-width:0.5;opacity:1.0;" x1="1394.33" x2="1394.33" y1="600.785" y2="720.121"/>
  <line id="right-margin-Ultralight-S" style="fill:none;stroke:#00AEEF;stroke-width:0.5;opacity:1.0;" x1="612.572" x2="612.572" y1="600.785" y2="720.121"/>
  <line id="left-margin-Ultralight-S" style="fill:none;stroke:#00AEEF;stroke-width:0.5;opacity:1.0;" x1="506.85" x2="506.85" y1="600.785" y2="720.121"/>
 </g>
 <g id="Symbols">
  <g id="Black-S" transform="matrix(1 0 0 1 2873.24 696)">
   <path class="monochrome-0 multicolor-0:systemBlueColor hierarchical-0:primary SFSymbolsPreviewWireframe" d="M33.8379-53.125C33.252-50.6836 34.3262-49.0723 37.0117-49.1211C40.3809-49.1699 46.582-49.4629 60.1562-49.4629C73.7305-49.4629 79.9316-49.1699 83.3008-49.1211C85.9863-49.0723 87.0605-50.6836 86.4746-53.125C86.0352-55.0293 85.1074-57.8125 84.5703-58.9355C83.252-61.7188 81.3965-62.6953 78.0273-63.1836C76.2695-63.4277 70.166-63.5254 60.1562-63.5254C50.1465-63.5254 44.043-63.4277 42.2852-63.1836C38.916-62.6953 37.1094-61.7188 35.7422-58.9355C35.2051-57.8125 34.3262-55.0293 33.8379-53.125ZM32.0801-22.4121C36.377-22.4121 39.6484-25.6836 39.6484-29.9805C39.6484-34.2773 36.377-37.5488 32.0801-37.5488C27.7832-37.5488 24.5117-34.2773 24.5117-29.9805C24.5117-25.6836 27.7832-22.4121 32.0801-22.4121ZM48.8281-24.4141L71.4844-24.4141C74.707-24.4141 77.0508-26.7578 77.0508-29.9805C77.0508-33.2031 74.707-35.5469 71.4844-35.5469L48.8281-35.5469C45.6055-35.5469 43.2617-33.2031 43.2617-29.9805C43.2617-26.7578 45.6055-24.4141 48.8281-24.4141ZM88.2324-22.4121C92.5293-22.4121 95.8008-25.6836 95.8008-29.9805C95.8008-34.2773 92.5293-37.5488 88.2324-37.5488C83.9355-37.5488 80.6641-34.2773 80.6641-29.9805C80.6641-25.6836 83.9355-22.4121 88.2324-22.4121ZM60.1562-7.71484C74.2676-7.71484 91.6016-8.39844 98.9746-9.22852C106.152-10.0586 110.547-14.5508 110.547-21.4844L110.547-28.2227C110.547-36.2793 109.863-40.8691 105.811-45.5078L101.709-50.1953C100.244-57.0801 97.7051-64.2578 96.3379-67.1387C93.7988-72.5098 88.9648-75.8789 82.7148-76.709C79.0527-77.1973 71.6309-77.4902 60.1562-77.4902C48.6816-77.4902 41.2598-77.1973 37.5977-76.709C31.3477-75.8789 26.4648-72.5586 23.9746-67.1387C22.6562-64.2578 20.0684-57.0801 18.6035-50.1953L14.502-45.5078C10.4492-40.8691 9.76562-36.2793 9.76562-28.2227L9.76562-21.4844C9.76562-14.5508 14.1602-10.0586 21.3379-9.22852C28.7109-8.39844 46.0449-7.71484 60.1562-7.71484ZM60.1562-19.1406C46.5332-19.1406 32.0801-19.873 25.4883-20.5566C22.2168-20.8984 20.7031-22.4121 20.7031-25.3906L20.7031-30.1758C20.7031-35.0098 22.2168-37.5 23.7305-39.502L28.8086-46.2402C29.4434-49.4141 31.7383-58.3008 33.252-61.3281C34.7168-64.3066 37.2559-65.5273 40.0391-65.918C43.3594-66.4062 49.6582-66.6504 60.1562-66.6504C70.6543-66.6504 76.9531-66.3086 80.2734-65.918C83.0078-65.5762 85.498-64.3066 87.1094-61.1816C88.4766-58.5449 90.7715-49.7559 91.5039-46.2402L96.582-39.502C98.0957-37.5 99.6094-35.0098 99.6094-30.1758L99.6094-25.3906C99.6094-22.4121 98.0957-20.8984 94.8242-20.5566C88.2324-19.873 73.7793-19.1406 60.1562-19.1406ZM17.3828 3.07617L22.4609 3.07617C25.6348 3.07617 28.125 0.585938 28.125-2.58789L28.125-13.2812L11.7188-19.043L11.7188-2.58789C11.7188 0.585938 14.209 3.07617 17.3828 3.07617ZM97.8516 3.07617L102.93 3.07617C106.104 3.07617 108.594 0.585938 108.594-2.58789L108.594-19.043L92.1875-13.2812L92.1875-2.58789C92.1875 0.585938 94.6777 3.07617 97.8516 3.07617Z"/>
  </g>
  <g id="Regular-S" transform="matrix(1 0 0 1 1394.33 696)">
   <path class="monochrome-0 multicolor-0:systemBlueColor hierarchical-0:primary SFSymbolsPreviewWireframe" d="M28.6621-46.7285C28.3203-45.3125 28.9551-44.8242 30.4199-44.9219C36.377-45.3125 43.6523-45.7031 55.5176-45.7031C67.334-45.7031 74.6582-45.3125 80.6152-44.9219C82.0801-44.8242 82.7148-45.3125 82.373-46.7285C81.4941-50.4883 79.7363-55.9082 78.5156-58.0078C77.5879-59.668 76.6113-60.2539 74.9023-60.498C72.168-60.8887 66.0156-61.1816 55.5176-61.1816C44.9707-61.1816 38.8672-60.8887 36.1328-60.498C34.4238-60.2539 33.4473-59.668 32.4707-58.0078C31.25-55.9082 29.4922-50.4883 28.6621-46.7285ZM27.9297-20.5566C31.5918-20.5566 34.375-23.3398 34.375-27.002C34.375-30.6641 31.5918-33.4473 27.9297-33.4473C24.2676-33.4473 21.4844-30.6641 21.4844-27.002C21.4844-23.3398 24.2676-20.5566 27.9297-20.5566ZM45.2148-22.2656L65.8203-22.2656C68.5547-22.2656 70.459-24.2188 70.459-26.9531C70.459-29.6875 68.5547-31.5918 65.8203-31.5918L45.2148-31.5918C42.4805-31.5918 40.5762-29.6875 40.5762-26.9531C40.5762-24.2188 42.4805-22.2656 45.2148-22.2656ZM83.1055-20.5566C86.7676-20.5566 89.5508-23.3398 89.5508-27.002C89.5508-30.6641 86.7676-33.4473 83.1055-33.4473C79.4434-33.4473 76.6602-30.6641 76.6602-27.002C76.6602-23.3398 79.4434-20.5566 83.1055-20.5566ZM55.5176-10.3027C68.5547-10.3027 85.6445-10.9375 92.9199-11.7676C98.291-12.3535 101.27-15.3809 101.27-20.4102L101.27-27.1484C101.27-33.4961 100.049-37.207 96.3379-41.9922L93.1641-46.1426C91.748-53.0273 89.209-60.2539 87.8906-63.0859C85.8398-67.3828 81.8359-70.1172 76.5625-70.8008C73.9746-71.1426 65.7227-71.3379 55.5176-71.3379C45.3125-71.3379 37.0117-71.0938 34.4727-70.8008C29.1992-70.166 25.1953-67.3828 23.1445-63.0859C21.8262-60.2539 19.2871-53.0273 17.8711-46.1426L14.6973-41.9922C10.9863-37.207 9.76562-33.4961 9.76562-27.1484L9.76562-20.4102C9.76562-15.3809 12.7441-12.3535 18.1152-11.7676C25.3906-10.9375 42.4805-10.3027 55.5176-10.3027ZM55.5176-15.918C42.2852-15.918 25.6348-16.5039 19.7266-17.2363C16.5039-17.6758 15.4297-19.3848 15.4297-22.2656L15.4297-27.1484C15.4297-32.373 16.2598-34.7168 19.1406-38.5254L23.1445-43.7012C24.0723-48.9746 26.5625-56.8359 28.2715-60.498C29.4434-63.0371 31.7871-64.6484 35.1562-65.0391C37.6465-65.332 45.2637-65.7227 55.5176-65.7227C65.7715-65.7227 73.584-65.332 75.7812-65.0391C79.2969-64.5996 81.543-62.9883 82.7637-60.498C84.4727-56.8359 86.9141-48.9746 87.8906-43.7012L91.8457-38.5254C94.7754-34.7168 95.6055-32.373 95.6055-27.1484L95.6055-22.2656C95.6055-19.3848 94.4824-17.627 91.3086-17.2363C85.4004-16.5039 68.7012-15.918 55.5176-15.918ZM16.8457 0.390625L21.4355 0.390625C24.3652 0.390625 26.6113-1.80664 26.6113-4.6875L26.6113-14.2578L11.7188-16.4551L11.7188-4.6875C11.7188-1.80664 13.9648 0.390625 16.8457 0.390625ZM89.5996 0.390625L94.1406 0.390625C97.0703 0.390625 99.3164-1.80664 99.3164-4.6875L99.3164-16.4551L84.4238-14.2578L84.4238-4.6875C84.4238-1.80664 86.6699 0.390625 89.5996 0.390625Z"/>
  </g>
  <g id="Ultralight-S" transform="matrix(1 0 0 1 506.85 696)">
   <path class="monochrome-0 multicolor-0:systemBlueColor hierarchical-0:primary SFSymbolsPreviewWireframe" d="M23.5762-46.6377C23.3706-45.7212 23.6421-44.8696 25.0162-44.9673C31.8814-45.4487 38.9297-45.7031 52.8838-45.7031C66.8345-45.7031 73.8862-45.4487 80.7061-44.9673C82.0801-44.8696 82.397-45.7212 82.1914-46.6377C80.9492-52.1684 79.2822-56.771 78.0615-58.8706C76.8613-60.9849 75.0674-62.4336 71.9961-62.8139C68.8985-63.2046 62.0196-63.3613 52.8838-63.3613C43.6992-63.3613 36.8237-63.2046 33.7715-62.8139C30.6548-62.4336 28.8609-60.9849 27.7027-58.8706C26.5274-56.771 24.815-52.1684 23.5762-46.6377ZM25.2959-21.2832C28.0498-21.2832 30.1065-23.3398 30.1065-26.1392C30.1065-28.8931 28.0498-30.9497 25.2959-30.9497C22.4966-30.9497 20.4854-28.8931 20.4854-26.1392C20.4854-23.3398 22.4966-21.2832 25.2959-21.2832ZM43.5347-21.8115L62.1875-21.8115C64.2408-21.8115 65.6001-23.1289 65.6001-25.1821C65.6001-27.2354 64.2408-28.5948 62.1875-28.5948L43.5347-28.5948C41.5269-28.5948 40.1675-27.2354 40.1675-25.1821C40.1675-23.1289 41.5269-21.8115 43.5347-21.8115ZM80.4717-21.2832C83.2256-21.2832 85.2823-23.3398 85.2823-26.1392C85.2823-28.8931 83.2256-30.9497 80.4717-30.9497C77.6724-30.9497 75.6611-28.8931 75.6611-26.1392C75.6611-23.3398 77.6724-21.2832 80.4717-21.2832ZM52.8838-10.7114C64.9673-10.7114 81.9663-11.3462 89.1509-12.1763C93.3868-12.6714 95.9566-14.7451 95.9566-19.0933L95.9566-25.8316C95.9566-32.7695 94.2364-35.8901 91.4336-39.6309L88.0328-44.0537C86.6621-50.9385 84.1231-58.2105 82.8047-60.9971C80.7994-65.2486 76.9317-67.211 72.7935-67.7583C70.1602-68.1001 61.3633-68.2954 52.8838-68.2954C44.4043-68.2954 35.5586-68.0967 32.9287-67.7583C28.8359-67.2144 24.9683-65.2486 22.9629-60.9971C21.6445-58.2105 19.1055-50.9385 17.7349-44.0537L14.334-39.6309C11.4858-35.8901 9.76562-32.7695 9.76562-25.8316L9.76562-19.0933C9.76562-14.7451 12.3809-12.6714 16.5713-12.1763C23.7559-11.3462 40.7549-10.7114 52.8838-10.7114ZM52.8838-12.8755C40.7866-12.8755 23.9092-13.4614 16.9112-14.3301C13.3252-14.7696 11.8877-16.1607 11.8877-19.2232L11.8877-25.8316C11.8877-31.2832 12.8086-34.1265 16.0528-38.3438L19.6934-43.1563C21.0298-49.9282 23.5655-57.29 24.8657-60.0894C26.4009-63.1733 29.1988-65.1025 33.2036-65.584C35.5576-65.8769 43.6743-66.1313 52.8838-66.1313C62.0479-66.1313 70.1782-65.8769 72.5117-65.584C76.5723-65.0991 79.3633-63.1699 80.8565-60.0894C82.2022-57.29 84.7344-49.9282 86.0288-43.1563L89.7114-38.3438C92.9136-34.1265 93.8345-31.2832 93.8345-25.8316L93.8345-19.2232C93.8345-16.1607 92.3936-14.7207 88.8565-14.3301C81.813-13.5523 64.9322-12.8755 52.8838-12.8755ZM16.437-0.926259L20.6636-0.926259C23.2754-0.926259 25.3399-2.9873 25.3399-5.5957L25.3399-12.6231L11.7188-14.3662L11.7188-5.5957C11.7188-3.03271 13.7832-0.926259 16.437-0.926259ZM85.104-0.926259L89.3272-0.926259C91.9844-0.926259 94.0035-2.9873 94.0035-5.5957L94.0035-14.3662L80.3824-12.6231L80.3824-5.5957C80.3824-2.9873 82.4468-0.926259 85.104-0.926259Z"/>
  </g>
 </g>
</svg>
