<?xml version="1.0" encoding="UTF-8"?>
<!--Generator: Apple Native CoreSVG 341-->
<!DOCTYPE svg
PUBLIC "-//W3C//DTD SVG 1.1//EN"
       "http://www.w3.org/Graphics/SVG/1.1/DTD/svg11.dtd">
<svg version="1.1" xmlns="http://www.w3.org/2000/svg" xmlns:xlink="http://www.w3.org/1999/xlink" viewBox="0 0 3300 2200">
 <!--glyph: "101B46", point size: 100.0, font version: "20.0d10e1", template writer version: "138.0.0"-->
 <style>.monochrome-0 {-sfsymbols-motion-group:2;-sfsymbols-layer-tags:guitars}
.monochrome-1 {opacity:0.0;-sfsymbols-clear-behind:true;-sfsymbols-motion-group:1;-sfsymbols-layer-tags:guitars}
.monochrome-2 {-sfsymbols-motion-group:1;-sfsymbols-layer-tags:guitars}
.monochrome-3 {opacity:0.0;-sfsymbols-clear-behind:true;-sfsymbols-motion-group:0;-sfsymbols-layer-tags:guitars}
.monochrome-4 {-sfsymbols-motion-group:0;-sfsymbols-layer-tags:guitars}

.multicolor-0:tintColor {-sfsymbols-motion-group:2;-sfsymbols-layer-tags:guitars}
.multicolor-1:tintColor {opacity:0.0;-sfsymbols-clear-behind:true;-sfsymbols-motion-group:1;-sfsymbols-layer-tags:guitars}
.multicolor-2:tintColor {-sfsymbols-motion-group:1;-sfsymbols-layer-tags:guitars}
.multicolor-3:tintColor {opacity:0.0;-sfsymbols-clear-behind:true;-sfsymbols-motion-group:0;-sfsymbols-layer-tags:guitars}
.multicolor-4:tintColor {-sfsymbols-motion-group:0;-sfsymbols-layer-tags:guitars}

.hierarchical-0:tertiary {-sfsymbols-motion-group:2;-sfsymbols-layer-tags:guitars}
.hierarchical-1:primary {opacity:0.0;-sfsymbols-clear-behind:true;-sfsymbols-motion-group:1;-sfsymbols-layer-tags:guitars}
.hierarchical-2:secondary {-sfsymbols-motion-group:1;-sfsymbols-layer-tags:guitars}
.hierarchical-3:primary {opacity:0.0;-sfsymbols-clear-behind:true;-sfsymbols-motion-group:0;-sfsymbols-layer-tags:guitars}
.hierarchical-4:primary {-sfsymbols-motion-group:0;-sfsymbols-layer-tags:guitars}

.SFSymbolsPreviewWireframe {fill:none;opacity:1.0;stroke:black;stroke-width:0.5}
</style>
 <g id="Notes">
  <rect height="2200" id="artboard" style="fill:white;opacity:1" width="3300" x="0" y="0"/>
  <line style="fill:none;stroke:black;opacity:1;stroke-width:0.5;" x1="263" x2="3036" y1="292" y2="292"/>
  <text style="stroke:none;fill:black;font-family:sans-serif;font-size:13;font-weight:bold;" transform="matrix(1 0 0 1 263 322)">Weight/Scale Variations</text>
  <text style="stroke:none;fill:black;font-family:sans-serif;font-size:13;text-anchor:middle;" transform="matrix(1 0 0 1 559.711 322)">Ultralight</text>
  <text style="stroke:none;fill:black;font-family:sans-serif;font-size:13;text-anchor:middle;" transform="matrix(1 0 0 1 856.422 322)">Thin</text>
  <text style="stroke:none;fill:black;font-family:sans-serif;font-size:13;text-anchor:middle;" transform="matrix(1 0 0 1 1153.13 322)">Light</text>
  <text style="stroke:none;fill:black;font-family:sans-serif;font-size:13;text-anchor:middle;" transform="matrix(1 0 0 1 1449.84 322)">Regular</text>
  <text style="stroke:none;fill:black;font-family:sans-serif;font-size:13;text-anchor:middle;" transform="matrix(1 0 0 1 1746.56 322)">Medium</text>
  <text style="stroke:none;fill:black;font-family:sans-serif;font-size:13;text-anchor:middle;" transform="matrix(1 0 0 1 2043.27 322)">Semibold</text>
  <text style="stroke:none;fill:black;font-family:sans-serif;font-size:13;text-anchor:middle;" transform="matrix(1 0 0 1 2339.98 322)">Bold</text>
  <text style="stroke:none;fill:black;font-family:sans-serif;font-size:13;text-anchor:middle;" transform="matrix(1 0 0 1 2636.69 322)">Heavy</text>
  <text style="stroke:none;fill:black;font-family:sans-serif;font-size:13;text-anchor:middle;" transform="matrix(1 0 0 1 2933.4 322)">Black</text>
  <line style="fill:none;stroke:black;opacity:1;stroke-width:0.5;" x1="263" x2="3036" y1="1903" y2="1903"/>
  <g transform="matrix(0.2 0 0 0.2 263 1933)">
   <path d="m46.2402 4.15039c21.7773 0 39.4531-17.627 39.4531-39.4043s-17.6758-39.4043-39.4531-39.4043c-21.7285 0-39.4043 17.627-39.4043 39.4043s17.6758 39.4043 39.4043 39.4043Zm0-7.42188c-17.6758 0-31.9336-14.3066-31.9336-31.9824s14.2578-31.9824 31.9336-31.9824 31.9824 14.3066 31.9824 31.9824-14.3066 31.9824-31.9824 31.9824Zm-17.9688-31.9824c0 2.14844 1.51367 3.61328 3.75977 3.61328h10.498v10.5957c0 2.19727 1.46484 3.71094 3.61328 3.71094 2.24609 0 3.71094-1.51367 3.71094-3.71094v-10.5957h10.5957c2.19727 0 3.71094-1.46484 3.71094-3.61328 0-2.19727-1.51367-3.71094-3.71094-3.71094h-10.5957v-10.5469c0-2.24609-1.46484-3.75977-3.71094-3.75977-2.14844 0-3.61328 1.51367-3.61328 3.75977v10.5469h-10.498c-2.24609 0-3.75977 1.51367-3.75977 3.71094Z"/>
  </g>
  <g transform="matrix(0.2 0 0 0.2 281.506 1933)">
   <path d="m58.5449 14.5508c27.4902 0 49.8047-22.3145 49.8047-49.8047s-22.3145-49.8047-49.8047-49.8047-49.8047 22.3145-49.8047 49.8047 22.3145 49.8047 49.8047 49.8047Zm0-8.30078c-22.9492 0-41.5039-18.5547-41.5039-41.5039s18.5547-41.5039 41.5039-41.5039 41.5039 18.5547 41.5039 41.5039-18.5547 41.5039-41.5039 41.5039Zm-22.6562-41.5039c0 2.39258 1.66016 4.00391 4.15039 4.00391h14.3555v14.4043c0 2.44141 1.66016 4.15039 4.05273 4.15039 2.44141 0 4.15039-1.66016 4.15039-4.15039v-14.4043h14.4043c2.44141 0 4.15039-1.61133 4.15039-4.00391 0-2.44141-1.70898-4.15039-4.15039-4.15039h-14.4043v-14.3555c0-2.49023-1.70898-4.19922-4.15039-4.19922-2.39258 0-4.05273 1.70898-4.05273 4.19922v14.3555h-14.3555c-2.49023 0-4.15039 1.70898-4.15039 4.15039Z"/>
  </g>
  <g transform="matrix(0.2 0 0 0.2 304.924 1933)">
   <path d="m74.8535 28.3203c35.1074 0 63.623-28.4668 63.623-63.5742s-28.5156-63.623-63.623-63.623-63.5742 28.5156-63.5742 63.623 28.4668 63.5742 63.5742 63.5742Zm0-9.08203c-30.127 0-54.4922-24.3652-54.4922-54.4922s24.3652-54.4922 54.4922-54.4922 54.4922 24.3652 54.4922 54.4922-24.3652 54.4922-54.4922 54.4922Zm-28.8574-54.4922c0 2.58789 1.85547 4.39453 4.58984 4.39453h19.7266v19.7754c0 2.68555 1.85547 4.58984 4.44336 4.58984 2.68555 0 4.54102-1.85547 4.54102-4.58984v-19.7754h19.7754c2.68555 0 4.58984-1.80664 4.58984-4.39453 0-2.73438-1.85547-4.58984-4.58984-4.58984h-19.7754v-19.7266c0-2.73438-1.85547-4.63867-4.54102-4.63867-2.58789 0-4.44336 1.9043-4.44336 4.63867v19.7266h-19.7266c-2.73438 0-4.58984 1.85547-4.58984 4.58984Z"/>
  </g>
  <text style="stroke:none;fill:black;font-family:sans-serif;font-size:13;font-weight:bold;" transform="matrix(1 0 0 1 263 1953)">Design Variations</text>
  <text style="stroke:none;fill:black;font-family:sans-serif;font-size:13;" transform="matrix(1 0 0 1 263 1971)">Symbols are supported in up to nine weights and three scales.</text>
  <text style="stroke:none;fill:black;font-family:sans-serif;font-size:13;" transform="matrix(1 0 0 1 263 1989)">For optimal layout with text and other symbols, vertically align</text>
  <text style="stroke:none;fill:black;font-family:sans-serif;font-size:13;" transform="matrix(1 0 0 1 263 2007)">symbols with the adjacent text.</text>
  <line style="fill:none;stroke:#00AEEF;stroke-width:0.5;opacity:1.0;" x1="776" x2="776" y1="1919" y2="1933"/>
  <g transform="matrix(0.2 0 0 0.2 776 1933)">
   <path d="m16.5527 0.78125c2.58789 0 3.85742-0.976562 4.78516-3.71094l6.29883-17.2363h28.8086l6.29883 17.2363c0.927734 2.73438 2.19727 3.71094 4.73633 3.71094 2.58789 0 4.24805-1.5625 4.24805-4.00391 0-0.830078-0.146484-1.61133-0.537109-2.63672l-22.9004-60.9863c-1.12305-2.97852-3.125-4.49219-6.25-4.49219-3.02734 0-5.07812 1.46484-6.15234 4.44336l-22.9004 61.084c-0.390625 1.02539-0.537109 1.80664-0.537109 2.63672 0 2.44141 1.5625 3.95508 4.10156 3.95508Zm13.4766-28.3691 11.8652-32.8613h0.244141l11.8652 32.8613Z"/>
  </g>
  <line style="fill:none;stroke:#00AEEF;stroke-width:0.5;opacity:1.0;" x1="792.836" x2="792.836" y1="1919" y2="1933"/>
  <text style="stroke:none;fill:black;font-family:sans-serif;font-size:13;font-weight:bold;" transform="matrix(1 0 0 1 776 1953)">Margins</text>
  <text style="stroke:none;fill:black;font-family:sans-serif;font-size:13;" transform="matrix(1 0 0 1 776 1971)">Leading and trailing margins on the left and right side of each symbol</text>
  <text style="stroke:none;fill:black;font-family:sans-serif;font-size:13;" transform="matrix(1 0 0 1 776 1989)">can be adjusted by modifying the x-location of the margin guidelines.</text>
  <text style="stroke:none;fill:black;font-family:sans-serif;font-size:13;" transform="matrix(1 0 0 1 776 2007)">Modifications are automatically applied proportionally to all</text>
  <text style="stroke:none;fill:black;font-family:sans-serif;font-size:13;" transform="matrix(1 0 0 1 776 2025)">scales and weights.</text>
  <g transform="matrix(0.2 0 0 0.2 1289 1933)">
   <path d="m14.209 9.32617 8.49609 8.54492c4.29688 4.3457 9.22852 4.05273 13.8672-1.07422l53.4668-58.9355-4.83398-4.88281-53.0762 58.3984c-1.75781 2.00195-3.41797 2.49023-5.76172 0.146484l-5.85938-5.81055c-2.34375-2.29492-1.80664-4.00391 0.195312-5.81055l57.373-54.0039-4.88281-4.83398-57.959 54.4434c-4.93164 4.58984-5.32227 9.47266-1.02539 13.8184Zm32.0801-90.9668c-2.09961 2.05078-2.24609 4.93164-1.07422 6.88477 1.17188 1.80664 3.4668 2.97852 6.68945 2.14844 7.32422-1.70898 14.9414-2.00195 22.0703 2.68555l-2.92969 7.27539c-1.70898 4.15039-0.830078 7.08008 1.85547 9.81445l11.4746 11.5723c2.44141 2.44141 4.49219 2.53906 7.32422 2.05078l5.32227-0.976562 3.32031 3.36914-0.195312 2.7832c-0.195312 2.49023 0.439453 4.39453 2.88086 6.78711l3.80859 3.71094c2.39258 2.39258 5.46875 2.53906 7.8125 0.195312l14.5508-14.5996c2.34375-2.34375 2.24609-5.32227-0.146484-7.71484l-3.85742-3.80859c-2.39258-2.39258-4.24805-3.17383-6.64062-2.97852l-2.88086 0.244141-3.22266-3.17383 1.2207-5.61523c0.634766-2.83203-0.146484-5.0293-3.07617-7.95898l-10.9863-10.9375c-16.6992-16.6016-38.8672-16.2109-53.3203-1.75781Zm7.4707 1.85547c12.1582-8.88672 28.6133-7.37305 39.7461 3.75977l12.1582 12.0605c1.17188 1.17188 1.36719 2.09961 1.02539 3.80859l-1.61133 7.42188 7.51953 7.42188 4.93164-0.292969c1.26953-0.0488281 1.66016 0.0488281 2.63672 1.02539l2.88086 2.88086-12.207 12.207-2.88086-2.88086c-0.976562-0.976562-1.12305-1.36719-1.07422-2.68555l0.341797-4.88281-7.4707-7.42188-7.61719 1.26953c-1.61133 0.341797-2.34375 0.195312-3.56445-0.976562l-10.0098-10.0098c-1.26953-1.17188-1.41602-2.00195-0.634766-3.85742l4.39453-10.4492c-7.8125-7.27539-17.9688-10.4004-28.125-7.42188-0.78125 0.195312-1.07422-0.439453-0.439453-0.976562Z"/>
  </g>
  <text style="stroke:none;fill:black;font-family:sans-serif;font-size:13;font-weight:bold;" transform="matrix(1 0 0 1 1289 1953)">Exporting</text>
  <text style="stroke:none;fill:black;font-family:sans-serif;font-size:13;" transform="matrix(1 0 0 1 1289 1971)">Symbols should be outlined when exporting to ensure the</text>
  <text style="stroke:none;fill:black;font-family:sans-serif;font-size:13;" transform="matrix(1 0 0 1 1289 1989)">design is preserved when submitting to Xcode.</text>
  <text id="template-version" style="stroke:none;fill:black;font-family:sans-serif;font-size:13;text-anchor:end;" transform="matrix(1 0 0 1 3036 1933)">Template v.6.0</text>
  <text style="stroke:none;fill:black;font-family:sans-serif;font-size:13;text-anchor:end;" transform="matrix(1 0 0 1 3036 1951)">Requires Xcode 16 or greater</text>
  <text id="descriptive-name" style="stroke:none;fill:black;font-family:sans-serif;font-size:13;text-anchor:end;" transform="matrix(1 0 0 1 3036 1969)">Generated from guitars</text>
  <text style="stroke:none;fill:black;font-family:sans-serif;font-size:13;text-anchor:end;" transform="matrix(1 0 0 1 3036 1987)">Typeset at 100.0 points</text>
  <text style="stroke:none;fill:black;font-family:sans-serif;font-size:13;" transform="matrix(1 0 0 1 263 726)">Small</text>
  <text style="stroke:none;fill:black;font-family:sans-serif;font-size:13;" transform="matrix(1 0 0 1 263 1156)">Medium</text>
  <text style="stroke:none;fill:black;font-family:sans-serif;font-size:13;" transform="matrix(1 0 0 1 263 1586)">Large</text>
 </g>
 <g id="Guides">
  <g id="H-reference" style="fill:#27AAE1;stroke:none;" transform="matrix(1 0 0 1 339 696)">
   <path d="M0.993654 0L3.63775 0L29.3281-67.1323L30.0303-67.1323L30.0303-70.459L28.1226-70.459ZM11.6885-24.4799L46.9815-24.4799L46.2315-26.7285L12.4385-26.7285ZM55.1196 0L57.7637 0L30.6382-70.459L29.4326-70.459L29.4326-67.1323Z"/>
  </g>
  <line id="Baseline-S" style="fill:none;stroke:#27AAE1;opacity:1;stroke-width:0.5;" x1="263" x2="3036" y1="696" y2="696"/>
  <line id="Capline-S" style="fill:none;stroke:#27AAE1;opacity:1;stroke-width:0.5;" x1="263" x2="3036" y1="625.541" y2="625.541"/>
  <g id="H-reference" style="fill:#27AAE1;stroke:none;" transform="matrix(1 0 0 1 339 1126)">
   <path d="M0.993654 0L3.63775 0L29.3281-67.1323L30.0303-67.1323L30.0303-70.459L28.1226-70.459ZM11.6885-24.4799L46.9815-24.4799L46.2315-26.7285L12.4385-26.7285ZM55.1196 0L57.7637 0L30.6382-70.459L29.4326-70.459L29.4326-67.1323Z"/>
  </g>
  <line id="Baseline-M" style="fill:none;stroke:#27AAE1;opacity:1;stroke-width:0.5;" x1="263" x2="3036" y1="1126" y2="1126"/>
  <line id="Capline-M" style="fill:none;stroke:#27AAE1;opacity:1;stroke-width:0.5;" x1="263" x2="3036" y1="1055.54" y2="1055.54"/>
  <g id="H-reference" style="fill:#27AAE1;stroke:none;" transform="matrix(1 0 0 1 339 1556)">
   <path d="M0.993654 0L3.63775 0L29.3281-67.1323L30.0303-67.1323L30.0303-70.459L28.1226-70.459ZM11.6885-24.4799L46.9815-24.4799L46.2315-26.7285L12.4385-26.7285ZM55.1196 0L57.7637 0L30.6382-70.459L29.4326-70.459L29.4326-67.1323Z"/>
  </g>
  <line id="Baseline-L" style="fill:none;stroke:#27AAE1;opacity:1;stroke-width:0.5;" x1="263" x2="3036" y1="1556" y2="1556"/>
  <line id="Capline-L" style="fill:none;stroke:#27AAE1;opacity:1;stroke-width:0.5;" x1="263" x2="3036" y1="1485.54" y2="1485.54"/>
  <line id="right-margin-Black-S" style="fill:none;stroke:#00AEEF;stroke-width:0.5;opacity:1.0;" x1="3000.22" x2="3000.22" y1="600.785" y2="720.121"/>
  <line id="left-margin-Black-S" style="fill:none;stroke:#00AEEF;stroke-width:0.5;opacity:1.0;" x1="2866.58" x2="2866.58" y1="600.785" y2="720.121"/>
  <line id="right-margin-Regular-S" style="fill:none;stroke:#00AEEF;stroke-width:0.5;opacity:1.0;" x1="1509.81" x2="1509.81" y1="600.785" y2="720.121"/>
  <line id="left-margin-Regular-S" style="fill:none;stroke:#00AEEF;stroke-width:0.5;opacity:1.0;" x1="1389.88" x2="1389.88" y1="600.785" y2="720.121"/>
  <line id="right-margin-Ultralight-S" style="fill:none;stroke:#00AEEF;stroke-width:0.5;opacity:1.0;" x1="613.496" x2="613.496" y1="600.785" y2="720.121"/>
  <line id="left-margin-Ultralight-S" style="fill:none;stroke:#00AEEF;stroke-width:0.5;opacity:1.0;" x1="505.926" x2="505.926" y1="600.785" y2="720.121"/>
 </g>
 <g id="Symbols">
  <g id="Black-S" transform="matrix(1 0 0 1 2866.58 696)">
   <path class="monochrome-0 multicolor-0:tintColor hierarchical-0:tertiary SFSymbolsPreviewWireframe" d="M104.199 9.47266C116.162 9.47266 123.877 3.56445 123.877-5.76172C123.877-14.4531 118.555-15.5273 118.555-19.4336C118.555-21.7285 119.775-23.9746 119.775-27.832C119.775-33.8867 115.186-37.9883 108.252-39.1113L108.252-63.5742C108.252-64.8438 108.301-65.0391 108.984-65.5273C110.059-66.3086 110.449-66.9922 110.4-68.0664L109.814-77.9297C109.717-79.2969 108.74-80.1758 107.471-80.1758L100.928-80.1758C99.6582-80.1758 98.6816-79.2969 98.584-77.9297L97.998-68.0664C97.9492-67.041 98.3398-66.3086 99.4141-65.5273C100.098-65.0391 100.146-64.8438 100.146-63.5742L100.146-39.1113C93.2129-37.9883 88.623-33.8867 88.623-27.832C88.623-23.9746 89.8438-21.7285 89.8438-19.4336C89.8438-15.5273 84.5215-14.4531 84.5215-5.76172C84.5215 3.56445 92.2363 9.47266 104.199 9.47266ZM104.199 2.68555C96.0938 2.68555 91.3086-0.488281 91.3086-5.76172C91.3086-11.8652 96.7285-14.3555 96.7285-19.5312C96.7285-22.3633 95.5078-25.2441 95.5078-27.832C95.5078-31.1035 98.3398-32.7637 104.199-32.7637C110.059-32.7637 112.891-31.1035 112.891-27.832C112.891-25.2441 111.67-22.3633 111.67-19.5312C111.67-14.3555 117.09-11.8652 117.09-5.76172C117.09-0.488281 112.305 2.68555 104.199 2.68555ZM104.199-16.0645C106.641-16.0645 108.643-18.1152 108.643-20.5566C108.643-22.998 106.641-25.0488 104.199-25.0488C101.758-25.0488 99.707-23.0469 99.707-20.5566C99.707-18.0664 101.758-16.0645 104.199-16.0645ZM99.7559-4.49219L108.594-4.49219C109.863-4.49219 110.84-5.51758 110.84-6.73828C110.84-7.91016 109.863-8.93555 108.594-8.93555L99.7559-8.93555C98.4863-8.93555 97.5098-7.91016 97.5098-6.73828C97.5098-5.51758 98.4863-4.49219 99.7559-4.49219Z"/>
   <path class="monochrome-1 multicolor-1:tintColor hierarchical-1:primary SFSymbolsPreviewWireframe" d="M68.8965 14.5508C82.4219 14.5508 93.457 6.05469 93.457-8.10547C93.457-13.8672 91.6992-18.9453 88.5742-22.2168C89.5508-23.9746 91.4551-27.002 91.4551-32.3242C91.4551-38.4766 86.5723-43.2617 80.3711-43.2617C79.3945-43.2617 78.5156-43.1641 77.7344-42.9688L77.7344-59.7656C78.9551-61.0352 79.6387-62.6465 79.834-64.6484L80.6152-73.1445C80.8594-75.7812 79.7363-78.3203 77.7832-80.0293L74.3164-83.0566C72.8516-84.375 70.8984-85.0586 68.8965-85.0586C66.8945-85.0586 64.9414-84.375 63.4766-83.0566L60.0098-80.0293C58.0566-78.3203 56.9336-75.7812 57.1777-73.1445L57.959-64.6484C58.1543-62.6465 58.8379-61.0352 60.0586-59.7656L60.0586-42.9688C59.2773-43.1641 58.3984-43.2617 57.4219-43.2617C51.2207-43.2617 46.3379-38.4766 46.3379-32.3242C46.3379-27.002 48.2422-23.9746 49.2188-22.2168C46.0938-18.9453 44.3359-13.8672 44.3359-8.10547C44.3359 6.05469 55.3711 14.5508 68.8965 14.5508Z"/>
   <path class="monochrome-2 multicolor-2:tintColor hierarchical-2:secondary SFSymbolsPreviewWireframe" d="M68.8965 9.66797C80.6641 9.66797 88.5742 2.58789 88.5742-8.10547C88.5742-16.9922 83.6914-18.75 83.6914-22.2168C83.6914-25.8789 86.5723-27.9297 86.5723-32.3242C86.5723-35.791 83.8867-38.3789 80.3711-38.3789C78.2227-38.3789 77.0996-37.5488 76.1719-36.7676C75.3906-36.1816 74.7559-35.5469 73.877-35.5469C73.1934-35.5469 72.8516-35.9375 72.8516-36.6211L72.8516-61.6699C72.8516-62.0117 72.9492-62.207 73.4375-62.5C74.4141-63.1348 74.8047-63.7695 74.9023-65.0391L75.6836-73.584C75.7812-74.6582 75.293-75.6836 74.5117-76.3672L71.0938-79.3457C70.459-79.8828 69.7266-80.1758 68.8965-80.1758C68.0176-80.1758 67.2852-79.8828 66.6504-79.3457L63.2324-76.3672C62.4512-75.6836 61.9629-74.6582 62.0605-73.584L62.8418-65.0391C62.9395-63.7695 63.3789-63.1348 64.3555-62.5C64.7949-62.207 64.9414-62.0605 64.9414-61.6699L64.9414-36.5723C64.9414-35.9375 64.502-35.498 63.8672-35.498C63.0371-35.498 62.4023-36.1816 61.6211-36.7676C60.6934-37.5488 59.5703-38.3789 57.4219-38.3789C53.9062-38.3789 51.2207-35.791 51.2207-32.3242C51.2207-27.9297 54.1016-25.8789 54.1016-22.2168C54.1016-18.75 49.2188-16.9922 49.2188-8.10547C49.2188 3.07617 57.7148 9.66797 68.8965 9.66797ZM68.8965 2.83203C60.9863 2.83203 56.0547-1.36719 56.0547-8.10547C56.0547-15.0879 60.791-17.627 60.791-22.2168C60.791-26.5137 58.3496-29.1992 58.3496-31.3477C58.3496-31.4941 58.4473-31.5918 58.5938-31.5918C59.2285-31.5918 60.6445-28.6133 64.1113-28.6133C66.2598-28.6133 67.8711-29.4434 68.8477-31.0547L68.9453-31.0547C69.9707-29.4922 71.5332-28.6621 73.6328-28.6621C77.1484-28.6621 78.5645-31.5918 79.1992-31.5918C79.3457-31.5918 79.4434-31.4941 79.4434-31.3477C79.4434-29.1992 77.002-26.5137 77.002-22.2168C77.002-17.627 81.7383-15.0879 81.7383-8.10547C81.7383-1.36719 76.8066 2.83203 68.8965 2.83203ZM61.9629-9.17969C63.1836-8.78906 64.5996-9.57031 64.9414-10.791L66.7969-17.7734C67.1387-18.9941 66.4551-20.2637 65.2344-20.6543C63.916-21.0938 62.6465-20.3125 62.3047-19.043L60.4004-12.0605C60.0586-10.8887 60.791-9.61914 61.9629-9.17969ZM75.6348-9.13086C76.9043-9.32617 77.6855-10.7422 77.3438-12.0605L75.4395-19.043C75.0977-20.2148 73.9258-20.9473 72.6562-20.7031C71.4355-20.5078 70.6543-19.1406 70.9961-17.7734L72.8516-10.791C73.1445-9.66797 74.4141-8.88672 75.6348-9.13086Z"/>
   <path class="monochrome-3 multicolor-3:tintColor hierarchical-3:primary SFSymbolsPreviewWireframe" d="M6.05469-1.80664C2.68555 5.76172 6.68945 14.5508 16.2598 14.5508C19.2383 14.5508 22.0215 13.5742 25.7812 10.4492L33.0566 4.44336L40.3809 10.4492C44.1406 13.5742 46.9238 14.5508 49.9023 14.5508C59.4727 14.5508 63.4766 5.76172 60.1074-1.80664L41.9922-42.334L41.9922-60.3027C41.9922-69.0918 43.5059-75 43.5059-77.3926C43.5059-81.6895 40.1855-85.0586 35.8887-85.0586C33.3496-85.0586 31.1523-83.9355 29.1504-81.543L20.3613-71.4844C17.0898-67.6758 18.3105-61.9141 22.9492-60.0098L24.1211-59.4727L24.1211-42.2363Z"/>
   <path class="monochrome-4 multicolor-4:tintColor hierarchical-4:primary SFSymbolsPreviewWireframe" d="M10.498 0.195312C8.69141 4.24805 10.0098 9.66797 16.2598 9.66797C18.3105 9.66797 20.0684 8.83789 22.6562 6.68945L32.4707-1.36719C32.666-1.5625 32.8613-1.61133 33.0566-1.61133C33.3008-1.61133 33.4961-1.5625 33.6914-1.36719L43.5059 6.68945C46.0938 8.83789 47.8516 9.66797 49.9023 9.66797C56.1523 9.66797 57.4707 4.24805 55.6641 0.195312L37.1094-41.3086L37.1094-60.3027C37.1094-69.2383 38.623-75.9277 38.623-77.3926C38.623-79.0039 37.5-80.1758 35.8887-80.1758C34.8145-80.1758 33.9355-79.6387 32.8613-78.3691L24.0723-68.3105C22.9492-66.9922 23.2422-65.1367 24.8535-64.502C28.3203-62.9395 29.0039-62.5977 29.0039-60.3027L29.0039-41.2109ZM17.1875 1.70898L33.0566-34.2285L33.0566-34.2285L48.9746 1.70898C49.1699 2.14844 48.8281 2.39258 48.4863 2.05078L36.7676-7.8125C35.4004-8.98438 34.1309-9.52148 33.0566-9.52148C32.0312-9.52148 30.7617-8.98438 29.3945-7.8125L17.6758 2.05078C17.334 2.39258 16.9922 2.14844 17.1875 1.70898ZM35.2051-18.3594C36.4746-18.3594 37.5977-19.4824 37.5977-20.752C37.5977-22.0703 36.4746-23.0957 35.2051-23.0957C33.8867-23.0957 32.7637-22.0703 32.7637-20.752C32.7637-19.4824 33.9355-18.3594 35.2051-18.3594ZM37.6953-12.793C38.9648-12.793 40.0879-13.8672 40.0879-15.1855C40.0879-16.4551 38.9648-17.5781 37.6953-17.5781C36.377-17.5781 35.2539-16.4551 35.2539-15.1855C35.2539-13.8672 36.377-12.793 37.6953-12.793ZM40.332-7.22656C41.6504-7.22656 42.7246-8.34961 42.7246-9.66797C42.7246-10.9863 41.6016-12.0605 40.332-12.0605C39.0137-12.0605 37.8906-10.9375 37.8906-9.66797C37.8906-8.34961 39.0137-7.22656 40.332-7.22656Z"/>
  </g>
  <g id="Regular-S" transform="matrix(1 0 0 1 1389.88 696)">
   <path class="monochrome-0 multicolor-0:tintColor hierarchical-0:tertiary SFSymbolsPreviewWireframe" d="M92.627 5.71289C103.32 5.71289 110.156 0.537109 110.156-7.56836C110.156-15.625 105.029-17.4805 105.029-20.7031C105.029-23.1934 106.152-25.5371 106.152-28.8086C106.152-34.2773 102.441-37.7441 95.8008-38.4766L95.8008-60.9375C95.8008-62.4023 95.8984-62.793 96.7773-63.3789C97.5586-63.916 97.9492-64.4043 97.9004-65.1855L97.3145-74.6094C97.2656-75.5371 96.582-76.2207 95.752-76.2207L89.4531-76.2207C88.623-76.2207 87.9883-75.5371 87.9395-74.6094L87.3535-65.1855C87.3047-64.4043 87.6953-63.916 88.4277-63.3789C89.3555-62.7441 89.4531-62.3535 89.4531-60.9375L89.4531-38.4766C82.8125-37.7441 79.1016-34.2773 79.1016-28.8086C79.1016-25.5371 80.2246-23.1934 80.2246-20.7031C80.2246-17.4805 75.0977-15.625 75.0977-7.56836C75.0977 0.537109 81.8848 5.71289 92.627 5.71289ZM92.627 0.927734C84.668 0.927734 79.8828-2.29492 79.8828-7.56836C79.8828-13.6719 85.0586-16.0645 85.0586-20.8008C85.0586-23.4863 83.8867-26.3184 83.8867-28.8086C83.8867-32.8613 87.5-34.0332 92.627-34.0332C97.7539-34.0332 101.318-32.8613 101.318-28.8086C101.318-26.3184 100.146-23.4863 100.146-20.8008C100.146-16.0645 105.322-13.6719 105.322-7.56836C105.322-2.29492 100.586 0.927734 92.627 0.927734ZM92.627-17.627C94.9707-17.627 96.8262-19.4824 96.8262-21.8262C96.8262-24.1699 94.9707-26.0742 92.627-26.0742C90.2832-26.0742 88.3301-24.1699 88.3301-21.8262C88.3301-19.4824 90.2344-17.627 92.627-17.627ZM87.7441-6.73828L97.4609-6.73828C98.4375-6.73828 99.2676-7.51953 99.2676-8.54492C99.2676-9.57031 98.4375-10.4004 97.4609-10.4004L87.7441-10.4004C86.7188-10.4004 85.8887-9.52148 85.8887-8.54492C85.8887-7.51953 86.7188-6.73828 87.7441-6.73828Z"/>
   <path class="monochrome-1 multicolor-1:tintColor hierarchical-1:primary SFSymbolsPreviewWireframe" d="M61.8652 7.86133C73.4375 7.86133 81.3965 0.78125 81.3965-9.81445C81.3965-18.2617 76.6602-22.0215 76.6602-23.3887C76.6602-25.3906 79.248-27.7832 79.248-32.6172C79.248-36.7188 76.3672-39.7949 72.4121-39.7949C70.0195-39.7949 68.2617-38.8672 66.9434-37.5977L66.9922-59.2285C68.0176-59.8145 68.6523-60.8398 68.8965-62.6465L69.6777-70.5078C69.7754-71.7773 69.2383-73.1934 68.1641-74.1699L64.8438-77.002C64.0625-77.7344 63.0371-78.1738 61.8652-78.1738C60.6934-78.1738 59.6191-77.7344 58.8867-77.002L55.5664-74.1699C54.5898-73.2422 53.9551-71.7773 54.0527-70.459L54.834-62.6465C54.9805-60.8887 55.7129-59.8633 56.7383-59.2773L56.8359-37.5488C55.5664-38.8184 53.6621-39.7949 51.3184-39.7949C47.3633-39.7949 44.4824-36.7188 44.4824-32.6172C44.4824-27.7832 47.0703-25.3906 47.0703-23.3887C47.0703-22.0215 42.334-18.2617 42.334-9.81445C42.334 0.78125 50.2441 7.86133 61.8652 7.86133Z"/>
   <path class="monochrome-2 multicolor-2:tintColor hierarchical-2:secondary SFSymbolsPreviewWireframe" d="M61.8652 5.9082C72.4121 5.9082 79.4434-0.341797 79.4434-9.81445C79.4434-17.2852 74.707-21.0938 74.707-23.3887C74.707-26.2207 77.2949-28.6133 77.2949-32.6172C77.2949-35.6934 75.2441-37.8418 72.4121-37.8418C69.9219-37.8418 68.3105-36.5723 67.4316-35.1074C66.748-33.9844 66.0645-33.252 65.6738-33.252C65.1367-33.252 64.9902-34.082 64.9902-35.8887L65.0391-59.5215C65.0391-60.5957 65.0391-60.5957 65.5762-60.7422C66.5039-61.0352 66.7969-61.5723 66.9434-62.8418L67.7246-70.6543C67.7734-71.3379 67.4805-72.1191 66.8457-72.7051L63.5742-75.5371C63.1348-75.9766 62.5488-76.2207 61.8652-76.2207C61.1816-76.2207 60.5957-75.9766 60.1562-75.5371L56.8848-72.7051C56.2988-72.168 55.957-71.3379 56.0059-70.6543L56.7871-62.8418C56.8848-61.6211 57.2754-61.0352 58.2031-60.7422C58.6426-60.6445 58.6914-60.5469 58.6914-59.5215L58.7891-35.8887C58.7891-34.2285 58.5938-33.252 58.1055-33.252C57.666-33.252 56.9824-33.9844 56.2988-35.1074C55.4199-36.5723 53.8086-37.8418 51.3184-37.8418C48.4863-37.8418 46.4355-35.6934 46.4355-32.6172C46.4355-28.6133 49.0234-26.2207 49.0234-23.3887C49.0234-21.0938 44.2871-17.2852 44.2871-9.81445C44.2871-0.341797 51.2695 5.9082 61.8652 5.9082ZM61.8652 1.07422C53.8574 1.07422 49.1211-2.97852 49.1211-9.81445C49.1211-16.7969 53.8086-19.0918 53.8086-23.291C53.8086-27.3438 51.1719-29.6387 51.1719-32.666C51.1719-32.959 51.416-33.2031 51.709-33.2031C53.3691-33.2031 54.3457-28.6133 58.252-28.6133C59.9121-28.6133 61.084-29.4434 61.7676-30.7129L61.9629-30.7129C62.6953-29.3945 63.916-28.6133 65.5273-28.6133C69.3359-28.6133 70.3613-33.2031 72.0215-33.2031C72.2656-33.2031 72.5098-32.959 72.5098-32.666C72.5098-29.6387 69.9219-27.3438 69.9219-23.291C69.9219-19.0918 74.6094-16.7969 74.6094-9.81445C74.6094-2.97852 69.873 1.07422 61.8652 1.07422ZM54.248-10.498C55.127-10.1562 56.0547-10.6445 56.3965-11.4746L59.5215-20.0195C59.8145-20.8496 59.375-21.875 58.4961-22.168C57.6172-22.4609 56.6895-22.0215 56.3477-21.1426L53.2715-12.5977C52.9785-11.7676 53.418-10.791 54.248-10.498ZM69.4824-10.498C70.3125-10.791 70.752-11.7676 70.459-12.5977L67.3828-21.1426C67.041-22.0215 66.0645-22.4609 65.2344-22.168C64.3555-21.875 63.916-20.8496 64.209-20.0195L67.334-11.4746C67.6758-10.6445 68.6035-10.1562 69.4824-10.498Z"/>
   <path class="monochrome-3 multicolor-3:tintColor hierarchical-3:primary SFSymbolsPreviewWireframe" d="M8.59375-2.63672C6.44531 2.09961 8.69141 7.76367 14.6973 7.76367C16.8945 7.76367 18.6523 6.88477 21.1426 4.88281L30.7129-3.125L40.2832 4.88281C42.7734 6.88477 44.5801 7.76367 46.7285 7.76367C52.7344 7.76367 54.9805 2.09961 52.8809-2.63672L35.8887-40.7227L35.8887-57.7637C35.8887-66.2598 37.3535-72.7051 37.3535-74.2188C37.3535-76.4648 35.7422-78.1738 33.4473-78.1738C32.2266-78.1738 31.1035-77.6367 29.5898-76.0254L21.1426-66.3086C19.4824-64.3555 20.0195-61.7188 22.2656-60.5469L25.5859-58.8379L25.5859-40.8691Z"/>
   <path class="monochrome-4 multicolor-4:tintColor hierarchical-4:primary SFSymbolsPreviewWireframe" d="M10.4004-1.85547C8.83789 1.5625 10.1074 5.81055 14.6973 5.81055C16.3574 5.81055 17.7246 5.17578 19.873 3.36914L30.127-5.17578C30.4199-5.46875 30.6152-5.51758 30.7129-5.51758C30.8594-5.51758 31.0059-5.46875 31.3477-5.17578L41.5527 3.36914C43.75 5.17578 45.0684 5.81055 46.7285 5.81055C51.3672 5.81055 52.5879 1.5625 51.0742-1.85547L33.9355-40.332L33.9355-57.7637C33.9355-66.4551 35.4004-72.9492 35.4004-74.2188C35.4004-75.3906 34.668-76.2207 33.4473-76.2207C32.7148-76.2207 32.0312-75.7812 31.0547-74.707L22.6074-65.0391C21.7773-64.0625 21.9727-62.8418 23.0957-62.3047C26.416-60.791 27.5391-60.3516 27.5391-57.7637L27.5391-40.4297ZM14.8438-0.195312L30.6641-36.1816L30.7617-36.1816L46.6309-0.195312C47.0215 0.732422 46.3379 1.26953 45.6055 0.634766L33.9355-9.13086C32.666-10.1562 31.6406-10.6445 30.7129-10.6445C29.7852-10.6445 28.7598-10.1562 27.5391-9.13086L15.8691 0.634766C15.1367 1.26953 14.4043 0.732422 14.8438-0.195312ZM34.5215-17.8223C35.5469-17.8223 36.4258-18.6523 36.4258-19.7266C36.4258-20.8008 35.5469-21.7285 34.5215-21.7285C33.4473-21.7285 32.5684-20.752 32.5684-19.7266C32.5684-18.7012 33.4473-17.8223 34.5215-17.8223ZM36.5723-12.9395C37.5977-12.9395 38.5254-13.8184 38.5254-14.8438C38.5254-15.9668 37.5977-16.8457 36.5723-16.8457C35.498-16.8457 34.5703-15.918 34.5703-14.8438C34.5703-13.8184 35.498-12.9395 36.5723-12.9395ZM38.5254-8.05664C39.5996-8.05664 40.5762-8.98438 40.5762-10.0098C40.5762-11.0352 39.6484-11.9629 38.5254-11.9629C37.5488-11.9629 36.6699-11.0352 36.6699-10.0098C36.6699-8.93555 37.5-8.05664 38.5254-8.05664Z"/>
  </g>
  <g id="Ultralight-S" transform="matrix(1 0 0 1 505.926 696)">
   <path class="monochrome-0 multicolor-0:tintColor hierarchical-0:tertiary SFSymbolsPreviewWireframe" d="M82.5006 3.48781C91.9679 3.48781 97.8048-0.779775 97.8048-7.56836C97.8048-14.6714 92.6324-16.981 92.6324-20.7031C92.6324-23.6475 93.8009-25.9458 93.8009-28.7632C93.8009-32.8696 90.3624-35.7461 84.9478-36.3877L84.9478-59.666C84.9478-61.4941 85.2271-62.0664 86.2423-62.7432C86.9327-63.1895 87.0963-63.4053 87.0474-63.9141L86.4615-73.3379C86.4127-73.8569 86.047-74.2227 85.6256-74.2227L79.3267-74.2227C78.9053-74.2227 78.543-73.8569 78.4942-73.3379L77.9991-63.9141C77.9503-63.4053 78.0684-63.1895 78.71-62.7432C79.7286-62.063 80.0079-61.4907 80.0079-59.666L80.0079-36.3877C74.5933-35.7461 71.2003-32.8696 71.2003-28.7632C71.2003-25.9458 72.3687-23.6475 72.3687-20.7031C72.3687-16.981 67.1964-14.6714 67.1964-7.56836C67.1964-0.779775 73.0753 3.48781 82.5006 3.48781ZM82.5006 1.38183C74.2237 1.38183 69.3477-2.02246 69.3477-7.56836C69.3477-13.8989 74.4781-16.2915 74.4781-20.8008C74.4781-23.4409 73.3062-26.1821 73.3062-28.7632C73.3062-32.7705 77.0557-34.4419 82.5006-34.4419C87.9454-34.4419 91.6915-32.7705 91.6915-28.7632C91.6915-26.1821 90.5196-23.4409 90.5196-20.8008C90.5196-16.2915 95.65-13.8989 95.65-7.56836C95.65-2.02246 90.7774 1.38183 82.5006 1.38183ZM82.5006-18.0356C84.5719-18.0356 86.2457-19.7549 86.2457-21.8262C86.2457-23.8975 84.5719-25.5747 82.5006-25.5747C80.4293-25.5747 78.7032-23.8975 78.7032-21.8262C78.7032-19.7549 80.4259-18.0356 82.5006-18.0356ZM77.6178-7.46484L87.3346-7.46484C87.857-7.46484 88.3238-7.88281 88.3238-8.4541C88.3238-9.02539 87.857-9.44678 87.3346-9.44678L77.6178-9.44678C77.0919-9.44678 76.6705-9.02198 76.6705-8.4541C76.6705-7.88281 77.0919-7.46484 77.6178-7.46484Z"/>
   <path class="monochrome-1 multicolor-1:tintColor hierarchical-1:primary SFSymbolsPreviewWireframe" d="M55.962 5.63625C66.3536 5.63625 73.2681-0.444815 73.2681-9.76904C73.2681-19.624 68.5318-21.3403 68.5318-23.3433C68.5318-26.1626 71.1197-28.3735 71.1197-32.6172C71.1197-35.7651 68.9654-37.7061 66.418-37.7061C63.8438-37.7061 62.3584-35.8701 60.4043-32.875L60.4078-58.502C61.524-58.9971 62.1587-59.9316 62.3121-61.4204L63.0479-69.2817C63.1456-70.5059 62.6539-71.604 61.7613-72.3535L58.441-75.231C57.7959-75.7818 56.8614-76.1758 55.962-76.1758C55.108-76.1758 54.17-75.7818 53.5284-75.231L50.2081-72.3535C49.3223-71.6074 48.8692-70.5059 48.9668-69.2783L49.7027-61.4204C49.8492-59.708 50.627-58.9097 51.607-58.5054L51.5684-32.7354C50.1172-34.5044 47.2139-37.7061 45.5059-37.7061C42.9585-37.7061 40.8042-35.7651 40.8042-32.6172C40.8042-28.3735 43.3921-26.1626 43.3921-23.3433C43.3921-21.3403 38.6558-19.624 38.6558-9.76904C38.6558-0.444815 45.6123 5.63625 55.962 5.63625Z"/>
   <path class="monochrome-2 multicolor-2:tintColor hierarchical-2:secondary SFSymbolsPreviewWireframe" d="M55.962 3.68312C65.3282 3.68312 71.315-1.61327 71.315-9.76904C71.315-18.1025 66.5787-20.231 66.5787-23.3433C66.5787-26.9019 69.1666-29.2944 69.1666-32.6172C69.1666-34.4673 68.0694-35.7529 66.418-35.7529C64.4727-35.7529 63.3609-33.8931 62.3912-32.4282C61.753-31.4868 61.251-30.7544 60.5425-30.7544C58.8248-30.7544 58.4512-34.2183 58.4512-35.8887L58.4546-58.25C58.4546-59.5059 58.5455-59.9146 59.4458-60.2427C60.0557-60.4448 60.2579-60.7549 60.3589-61.6157L61.0948-69.4282C61.1436-70.0664 60.896-70.5298 60.4883-70.8887L57.1714-73.7661C56.8682-74.0239 56.4185-74.2227 55.962-74.2227C55.5508-74.2227 55.1011-74.0239 54.7979-73.7661L51.481-70.8887C51.1221-70.5332 50.8711-70.0664 50.92-69.4282L51.6558-61.6157C51.7535-60.7583 51.8716-60.4448 52.4815-60.2427C53.3296-59.9634 53.5601-59.5933 53.5601-58.25L53.5215-35.8887C53.5215-34.2285 53.1446-30.7544 51.4756-30.7544C50.7183-30.7544 50.2164-31.4868 49.5782-32.4282C48.6085-33.8931 47.4512-35.7529 45.5059-35.7529C43.8999-35.7529 42.7574-34.4673 42.7574-32.6172C42.7574-29.2944 45.3452-26.9019 45.3452-23.3433C45.3452-20.231 40.6089-18.1025 40.6089-9.76904C40.6089-1.61327 46.6377 3.68312 55.962 3.68312ZM55.962 1.52832C47.9541 1.52832 42.7637-2.8877 42.7637-9.76904C42.7637-17.0239 47.4512-19.3188 47.4512-23.4727C47.4512-27.1621 44.8599-29.457 44.8599-32.6206C44.8599-33.0952 45.1495-33.4756 45.6241-33.4756C47.5113-33.4756 48.0792-28.7041 51.5313-28.7041C53.5093-28.7041 55.4532-30.8057 55.4556-35.6171L56.5137-35.6171C56.5196-30.8022 58.4668-28.7041 60.4869-28.7041C63.8414-28.7041 64.4126-33.4756 66.2998-33.4756C66.771-33.4756 67.0606-33.0952 67.0606-32.6206C67.0606-29.457 64.4727-27.1621 64.4727-23.4727C64.4727-19.3188 69.1602-17.0239 69.1602-9.76904C69.1602-2.8877 63.9698 1.52832 55.962 1.52832ZM48.5264-10.3164C49.0874-10.1562 49.6519-10.4175 49.8575-10.9297L53.3458-20.519C53.5479-21.0312 53.2447-21.648 52.729-21.8047C52.168-22.0068 51.649-21.749 51.4434-21.2334L47.9131-11.6441C47.711-11.1318 48.0142-10.5186 48.5264-10.3164ZM63.4429-10.3164C63.9551-10.5186 64.2584-11.1318 64.0562-11.6441L60.5713-21.2334C60.3658-21.749 59.7979-22.0068 59.2403-21.8047C58.7247-21.648 58.4214-21.0312 58.6236-20.519L62.1573-10.9297C62.3174-10.4175 62.8819-10.1562 63.4429-10.3164Z"/>
   <path class="monochrome-3 multicolor-3:tintColor hierarchical-3:primary SFSymbolsPreviewWireframe" d="M8.32129-1.36524C6.71777 2.28125 8.87305 5.584 12.4268 5.584C13.4888 5.584 14.7925 5.25001 16.2837 4.06544L28.4424-6.03123L40.6011 4.06544C42.0923 5.25001 43.354 5.584 44.458 5.584C48.0118 5.584 50.167 2.28125 48.5669-1.36524L32.8916-37.4986L32.8916-56.4922C32.8916-65.0337 34.3565-71.5244 34.3565-72.9473C34.3565-74.8301 33.0176-76.1758 31.1768-76.1758C30.1377-76.1758 29.1963-75.7749 27.8643-74.209L19.4624-64.5376C18.0747-62.9024 18.521-60.856 20.313-60.0474L24.042-58.3838L24.042-37.645Z"/>
   <path class="monochrome-4 multicolor-4:tintColor hierarchical-4:primary SFSymbolsPreviewWireframe" d="M10.1279-0.583994C9.15576 1.60791 10.1074 3.63088 12.4268 3.63088C13.1333 3.63088 13.9556 3.4048 15.0142 2.55176L26.5396-7.03758C27.4683-7.73924 27.9815-8.06053 28.4424-8.06053C28.9068-8.06053 29.4165-7.73924 30.3486-7.03758L41.8706 2.55176C42.9326 3.4048 43.7061 3.63088 44.458 3.63088C46.7808 3.63088 47.729 1.60791 46.7603-0.583994L30.9385-37.1079L30.9385-56.4922C30.9385-65.229 32.4033-71.7686 32.4033-72.9473C32.4033-73.7559 31.9434-74.2227 31.1768-74.2227C30.6714-74.2227 30.2149-73.9194 29.3291-72.936L20.9273-63.2681C20.415-62.6548 20.4741-62.1152 21.0977-61.8506C24.5088-60.3823 25.9951-59.625 25.9951-56.4922L25.9951-37.251ZM11.9375 0.349605L27.44-35.9092L29.3994-35.9092L44.9507 0.349605C45.4321 1.45898 44.3853 1.85986 43.7437 1.36132L31.438-8.8584C30.3047-9.79297 29.3701-10.3267 28.4424-10.3267C27.5147-10.3267 26.5801-9.79297 25.4502-8.8584L13.1446 1.36132C12.503 1.85986 11.4527 1.45898 11.9375 0.349605ZM33.5225-16.46C34.23-16.46 34.8818-17.1084 34.8818-17.8194C34.8818-18.6211 34.2754-19.231 33.5225-19.231C32.8115-19.231 32.1597-18.5723 32.1597-17.8194C32.1597-17.0664 32.7661-16.46 33.5225-16.46ZM35.3462-12.0313C36.1445-12.0313 36.7998-12.6377 36.7998-13.3452C36.7998-14.1504 36.1445-14.7569 35.3462-14.7569C34.6807-14.7569 34.0254-14.1016 34.0254-13.3452C34.0254-12.5923 34.6807-12.0313 35.3462-12.0313ZM37.2085-7.55713C38.0103-7.55713 38.669-8.21241 38.669-8.87452C38.669-9.67286 38.0137-10.3281 37.2085-10.3281C36.5952-10.3281 35.898-9.62745 35.898-8.87452C35.898-8.20899 36.5464-7.55713 37.2085-7.55713Z"/>
  </g>
 </g>
</svg>
