<?xml version="1.0" encoding="UTF-8"?>
<!--Generator: Apple Native CoreSVG 341-->
<!DOCTYPE svg
PUBLIC "-//W3C//DTD SVG 1.1//EN"
       "http://www.w3.org/Graphics/SVG/1.1/DTD/svg11.dtd">
<svg version="1.1" xmlns="http://www.w3.org/2000/svg" xmlns:xlink="http://www.w3.org/1999/xlink" viewBox="0 0 3300 2200">
 <!--glyph: "1012F4", point size: 100.0, font version: "20.0d10e1", template writer version: "138.0.0"-->
 <style>.monochrome-0 {-sfsymbols-motion-group:0;-sfsymbols-layer-tags:sailboat}

.multicolor-0:tintColor {-sfsymbols-motion-group:0;-sfsymbols-layer-tags:sailboat}

.hierarchical-0:primary {-sfsymbols-motion-group:0;-sfsymbols-layer-tags:sailboat}

.SFSymbolsPreviewWireframe {fill:none;opacity:1.0;stroke:black;stroke-width:0.5}
</style>
 <g id="Notes">
  <rect height="2200" id="artboard" style="fill:white;opacity:1" width="3300" x="0" y="0"/>
  <line style="fill:none;stroke:black;opacity:1;stroke-width:0.5;" x1="263" x2="3036" y1="292" y2="292"/>
  <text style="stroke:none;fill:black;font-family:sans-serif;font-size:13;font-weight:bold;" transform="matrix(1 0 0 1 263 322)">Weight/Scale Variations</text>
  <text style="stroke:none;fill:black;font-family:sans-serif;font-size:13;text-anchor:middle;" transform="matrix(1 0 0 1 559.711 322)">Ultralight</text>
  <text style="stroke:none;fill:black;font-family:sans-serif;font-size:13;text-anchor:middle;" transform="matrix(1 0 0 1 856.422 322)">Thin</text>
  <text style="stroke:none;fill:black;font-family:sans-serif;font-size:13;text-anchor:middle;" transform="matrix(1 0 0 1 1153.13 322)">Light</text>
  <text style="stroke:none;fill:black;font-family:sans-serif;font-size:13;text-anchor:middle;" transform="matrix(1 0 0 1 1449.84 322)">Regular</text>
  <text style="stroke:none;fill:black;font-family:sans-serif;font-size:13;text-anchor:middle;" transform="matrix(1 0 0 1 1746.56 322)">Medium</text>
  <text style="stroke:none;fill:black;font-family:sans-serif;font-size:13;text-anchor:middle;" transform="matrix(1 0 0 1 2043.27 322)">Semibold</text>
  <text style="stroke:none;fill:black;font-family:sans-serif;font-size:13;text-anchor:middle;" transform="matrix(1 0 0 1 2339.98 322)">Bold</text>
  <text style="stroke:none;fill:black;font-family:sans-serif;font-size:13;text-anchor:middle;" transform="matrix(1 0 0 1 2636.69 322)">Heavy</text>
  <text style="stroke:none;fill:black;font-family:sans-serif;font-size:13;text-anchor:middle;" transform="matrix(1 0 0 1 2933.4 322)">Black</text>
  <line style="fill:none;stroke:black;opacity:1;stroke-width:0.5;" x1="263" x2="3036" y1="1903" y2="1903"/>
  <g transform="matrix(0.2 0 0 0.2 263 1933)">
   <path d="m46.2402 4.15039c21.7773 0 39.4531-17.627 39.4531-39.4043s-17.6758-39.4043-39.4531-39.4043c-21.7285 0-39.4043 17.627-39.4043 39.4043s17.6758 39.4043 39.4043 39.4043Zm0-7.42188c-17.6758 0-31.9336-14.3066-31.9336-31.9824s14.2578-31.9824 31.9336-31.9824 31.9824 14.3066 31.9824 31.9824-14.3066 31.9824-31.9824 31.9824Zm-17.9688-31.9824c0 2.14844 1.51367 3.61328 3.75977 3.61328h10.498v10.5957c0 2.19727 1.46484 3.71094 3.61328 3.71094 2.24609 0 3.71094-1.51367 3.71094-3.71094v-10.5957h10.5957c2.19727 0 3.71094-1.46484 3.71094-3.61328 0-2.19727-1.51367-3.71094-3.71094-3.71094h-10.5957v-10.5469c0-2.24609-1.46484-3.75977-3.71094-3.75977-2.14844 0-3.61328 1.51367-3.61328 3.75977v10.5469h-10.498c-2.24609 0-3.75977 1.51367-3.75977 3.71094Z"/>
  </g>
  <g transform="matrix(0.2 0 0 0.2 281.506 1933)">
   <path d="m58.5449 14.5508c27.4902 0 49.8047-22.3145 49.8047-49.8047s-22.3145-49.8047-49.8047-49.8047-49.8047 22.3145-49.8047 49.8047 22.3145 49.8047 49.8047 49.8047Zm0-8.30078c-22.9492 0-41.5039-18.5547-41.5039-41.5039s18.5547-41.5039 41.5039-41.5039 41.5039 18.5547 41.5039 41.5039-18.5547 41.5039-41.5039 41.5039Zm-22.6562-41.5039c0 2.39258 1.66016 4.00391 4.15039 4.00391h14.3555v14.4043c0 2.44141 1.66016 4.15039 4.05273 4.15039 2.44141 0 4.15039-1.66016 4.15039-4.15039v-14.4043h14.4043c2.44141 0 4.15039-1.61133 4.15039-4.00391 0-2.44141-1.70898-4.15039-4.15039-4.15039h-14.4043v-14.3555c0-2.49023-1.70898-4.19922-4.15039-4.19922-2.39258 0-4.05273 1.70898-4.05273 4.19922v14.3555h-14.3555c-2.49023 0-4.15039 1.70898-4.15039 4.15039Z"/>
  </g>
  <g transform="matrix(0.2 0 0 0.2 304.924 1933)">
   <path d="m74.8535 28.3203c35.1074 0 63.623-28.4668 63.623-63.5742s-28.5156-63.623-63.623-63.623-63.5742 28.5156-63.5742 63.623 28.4668 63.5742 63.5742 63.5742Zm0-9.08203c-30.127 0-54.4922-24.3652-54.4922-54.4922s24.3652-54.4922 54.4922-54.4922 54.4922 24.3652 54.4922 54.4922-24.3652 54.4922-54.4922 54.4922Zm-28.8574-54.4922c0 2.58789 1.85547 4.39453 4.58984 4.39453h19.7266v19.7754c0 2.68555 1.85547 4.58984 4.44336 4.58984 2.68555 0 4.54102-1.85547 4.54102-4.58984v-19.7754h19.7754c2.68555 0 4.58984-1.80664 4.58984-4.39453 0-2.73438-1.85547-4.58984-4.58984-4.58984h-19.7754v-19.7266c0-2.73438-1.85547-4.63867-4.54102-4.63867-2.58789 0-4.44336 1.9043-4.44336 4.63867v19.7266h-19.7266c-2.73438 0-4.58984 1.85547-4.58984 4.58984Z"/>
  </g>
  <text style="stroke:none;fill:black;font-family:sans-serif;font-size:13;font-weight:bold;" transform="matrix(1 0 0 1 263 1953)">Design Variations</text>
  <text style="stroke:none;fill:black;font-family:sans-serif;font-size:13;" transform="matrix(1 0 0 1 263 1971)">Symbols are supported in up to nine weights and three scales.</text>
  <text style="stroke:none;fill:black;font-family:sans-serif;font-size:13;" transform="matrix(1 0 0 1 263 1989)">For optimal layout with text and other symbols, vertically align</text>
  <text style="stroke:none;fill:black;font-family:sans-serif;font-size:13;" transform="matrix(1 0 0 1 263 2007)">symbols with the adjacent text.</text>
  <line style="fill:none;stroke:#00AEEF;stroke-width:0.5;opacity:1.0;" x1="776" x2="776" y1="1919" y2="1933"/>
  <g transform="matrix(0.2 0 0 0.2 776 1933)">
   <path d="m16.5527 0.78125c2.58789 0 3.85742-0.976562 4.78516-3.71094l6.29883-17.2363h28.8086l6.29883 17.2363c0.927734 2.73438 2.19727 3.71094 4.73633 3.71094 2.58789 0 4.24805-1.5625 4.24805-4.00391 0-0.830078-0.146484-1.61133-0.537109-2.63672l-22.9004-60.9863c-1.12305-2.97852-3.125-4.49219-6.25-4.49219-3.02734 0-5.07812 1.46484-6.15234 4.44336l-22.9004 61.084c-0.390625 1.02539-0.537109 1.80664-0.537109 2.63672 0 2.44141 1.5625 3.95508 4.10156 3.95508Zm13.4766-28.3691 11.8652-32.8613h0.244141l11.8652 32.8613Z"/>
  </g>
  <line style="fill:none;stroke:#00AEEF;stroke-width:0.5;opacity:1.0;" x1="792.836" x2="792.836" y1="1919" y2="1933"/>
  <text style="stroke:none;fill:black;font-family:sans-serif;font-size:13;font-weight:bold;" transform="matrix(1 0 0 1 776 1953)">Margins</text>
  <text style="stroke:none;fill:black;font-family:sans-serif;font-size:13;" transform="matrix(1 0 0 1 776 1971)">Leading and trailing margins on the left and right side of each symbol</text>
  <text style="stroke:none;fill:black;font-family:sans-serif;font-size:13;" transform="matrix(1 0 0 1 776 1989)">can be adjusted by modifying the x-location of the margin guidelines.</text>
  <text style="stroke:none;fill:black;font-family:sans-serif;font-size:13;" transform="matrix(1 0 0 1 776 2007)">Modifications are automatically applied proportionally to all</text>
  <text style="stroke:none;fill:black;font-family:sans-serif;font-size:13;" transform="matrix(1 0 0 1 776 2025)">scales and weights.</text>
  <g transform="matrix(0.2 0 0 0.2 1289 1933)">
   <path d="m14.209 9.32617 8.49609 8.54492c4.29688 4.3457 9.22852 4.05273 13.8672-1.07422l53.4668-58.9355-4.83398-4.88281-53.0762 58.3984c-1.75781 2.00195-3.41797 2.49023-5.76172 0.146484l-5.85938-5.81055c-2.34375-2.29492-1.80664-4.00391 0.195312-5.81055l57.373-54.0039-4.88281-4.83398-57.959 54.4434c-4.93164 4.58984-5.32227 9.47266-1.02539 13.8184Zm32.0801-90.9668c-2.09961 2.05078-2.24609 4.93164-1.07422 6.88477 1.17188 1.80664 3.4668 2.97852 6.68945 2.14844 7.32422-1.70898 14.9414-2.00195 22.0703 2.68555l-2.92969 7.27539c-1.70898 4.15039-0.830078 7.08008 1.85547 9.81445l11.4746 11.5723c2.44141 2.44141 4.49219 2.53906 7.32422 2.05078l5.32227-0.976562 3.32031 3.36914-0.195312 2.7832c-0.195312 2.49023 0.439453 4.39453 2.88086 6.78711l3.80859 3.71094c2.39258 2.39258 5.46875 2.53906 7.8125 0.195312l14.5508-14.5996c2.34375-2.34375 2.24609-5.32227-0.146484-7.71484l-3.85742-3.80859c-2.39258-2.39258-4.24805-3.17383-6.64062-2.97852l-2.88086 0.244141-3.22266-3.17383 1.2207-5.61523c0.634766-2.83203-0.146484-5.0293-3.07617-7.95898l-10.9863-10.9375c-16.6992-16.6016-38.8672-16.2109-53.3203-1.75781Zm7.4707 1.85547c12.1582-8.88672 28.6133-7.37305 39.7461 3.75977l12.1582 12.0605c1.17188 1.17188 1.36719 2.09961 1.02539 3.80859l-1.61133 7.42188 7.51953 7.42188 4.93164-0.292969c1.26953-0.0488281 1.66016 0.0488281 2.63672 1.02539l2.88086 2.88086-12.207 12.207-2.88086-2.88086c-0.976562-0.976562-1.12305-1.36719-1.07422-2.68555l0.341797-4.88281-7.4707-7.42188-7.61719 1.26953c-1.61133 0.341797-2.34375 0.195312-3.56445-0.976562l-10.0098-10.0098c-1.26953-1.17188-1.41602-2.00195-0.634766-3.85742l4.39453-10.4492c-7.8125-7.27539-17.9688-10.4004-28.125-7.42188-0.78125 0.195312-1.07422-0.439453-0.439453-0.976562Z"/>
  </g>
  <text style="stroke:none;fill:black;font-family:sans-serif;font-size:13;font-weight:bold;" transform="matrix(1 0 0 1 1289 1953)">Exporting</text>
  <text style="stroke:none;fill:black;font-family:sans-serif;font-size:13;" transform="matrix(1 0 0 1 1289 1971)">Symbols should be outlined when exporting to ensure the</text>
  <text style="stroke:none;fill:black;font-family:sans-serif;font-size:13;" transform="matrix(1 0 0 1 1289 1989)">design is preserved when submitting to Xcode.</text>
  <text id="template-version" style="stroke:none;fill:black;font-family:sans-serif;font-size:13;text-anchor:end;" transform="matrix(1 0 0 1 3036 1933)">Template v.6.0</text>
  <text style="stroke:none;fill:black;font-family:sans-serif;font-size:13;text-anchor:end;" transform="matrix(1 0 0 1 3036 1951)">Requires Xcode 16 or greater</text>
  <text id="descriptive-name" style="stroke:none;fill:black;font-family:sans-serif;font-size:13;text-anchor:end;" transform="matrix(1 0 0 1 3036 1969)">Generated from sailboat</text>
  <text style="stroke:none;fill:black;font-family:sans-serif;font-size:13;text-anchor:end;" transform="matrix(1 0 0 1 3036 1987)">Typeset at 100.0 points</text>
  <text style="stroke:none;fill:black;font-family:sans-serif;font-size:13;" transform="matrix(1 0 0 1 263 726)">Small</text>
  <text style="stroke:none;fill:black;font-family:sans-serif;font-size:13;" transform="matrix(1 0 0 1 263 1156)">Medium</text>
  <text style="stroke:none;fill:black;font-family:sans-serif;font-size:13;" transform="matrix(1 0 0 1 263 1586)">Large</text>
 </g>
 <g id="Guides">
  <g id="H-reference" style="fill:#27AAE1;stroke:none;" transform="matrix(1 0 0 1 339 696)">
   <path d="M0.993654 0L3.63775 0L29.3281-67.1323L30.0303-67.1323L30.0303-70.459L28.1226-70.459ZM11.6885-24.4799L46.9815-24.4799L46.2315-26.7285L12.4385-26.7285ZM55.1196 0L57.7637 0L30.6382-70.459L29.4326-70.459L29.4326-67.1323Z"/>
  </g>
  <line id="Baseline-S" style="fill:none;stroke:#27AAE1;opacity:1;stroke-width:0.5;" x1="263" x2="3036" y1="696" y2="696"/>
  <line id="Capline-S" style="fill:none;stroke:#27AAE1;opacity:1;stroke-width:0.5;" x1="263" x2="3036" y1="625.541" y2="625.541"/>
  <g id="H-reference" style="fill:#27AAE1;stroke:none;" transform="matrix(1 0 0 1 339 1126)">
   <path d="M0.993654 0L3.63775 0L29.3281-67.1323L30.0303-67.1323L30.0303-70.459L28.1226-70.459ZM11.6885-24.4799L46.9815-24.4799L46.2315-26.7285L12.4385-26.7285ZM55.1196 0L57.7637 0L30.6382-70.459L29.4326-70.459L29.4326-67.1323Z"/>
  </g>
  <line id="Baseline-M" style="fill:none;stroke:#27AAE1;opacity:1;stroke-width:0.5;" x1="263" x2="3036" y1="1126" y2="1126"/>
  <line id="Capline-M" style="fill:none;stroke:#27AAE1;opacity:1;stroke-width:0.5;" x1="263" x2="3036" y1="1055.54" y2="1055.54"/>
  <g id="H-reference" style="fill:#27AAE1;stroke:none;" transform="matrix(1 0 0 1 339 1556)">
   <path d="M0.993654 0L3.63775 0L29.3281-67.1323L30.0303-67.1323L30.0303-70.459L28.1226-70.459ZM11.6885-24.4799L46.9815-24.4799L46.2315-26.7285L12.4385-26.7285ZM55.1196 0L57.7637 0L30.6382-70.459L29.4326-70.459L29.4326-67.1323Z"/>
  </g>
  <line id="Baseline-L" style="fill:none;stroke:#27AAE1;opacity:1;stroke-width:0.5;" x1="263" x2="3036" y1="1556" y2="1556"/>
  <line id="Capline-L" style="fill:none;stroke:#27AAE1;opacity:1;stroke-width:0.5;" x1="263" x2="3036" y1="1485.54" y2="1485.54"/>
  <line id="right-margin-Black-S" style="fill:none;stroke:#00AEEF;stroke-width:0.5;opacity:1.0;" x1="2989.41" x2="2989.41" y1="600.785" y2="720.121"/>
  <line id="left-margin-Black-S" style="fill:none;stroke:#00AEEF;stroke-width:0.5;opacity:1.0;" x1="2877.39" x2="2877.39" y1="600.785" y2="720.121"/>
  <line id="right-margin-Regular-S" style="fill:none;stroke:#00AEEF;stroke-width:0.5;opacity:1.0;" x1="1502.09" x2="1502.09" y1="600.785" y2="720.121"/>
  <line id="left-margin-Regular-S" style="fill:none;stroke:#00AEEF;stroke-width:0.5;opacity:1.0;" x1="1397.6" x2="1397.6" y1="600.785" y2="720.121"/>
  <line id="right-margin-Ultralight-S" style="fill:none;stroke:#00AEEF;stroke-width:0.5;opacity:1.0;" x1="609.55" x2="609.55" y1="600.785" y2="720.121"/>
  <line id="left-margin-Ultralight-S" style="fill:none;stroke:#00AEEF;stroke-width:0.5;opacity:1.0;" x1="509.872" x2="509.872" y1="600.785" y2="720.121"/>
 </g>
 <g id="Symbols">
  <g id="Black-S" transform="matrix(1 0 0 1 2877.39 696)">
   <path class="monochrome-0 multicolor-0:tintColor hierarchical-0:primary SFSymbolsPreviewWireframe" d="M46.2402-3.02734L56.4941-3.02734L62.6465-74.6582C62.6953-75.0488 63.2812-75.1465 63.4277-74.707C65.332-68.9941 66.4551-62.1094 66.4551-55.0293C66.4551-43.0176 63.1836-30.5176 54.8828-22.8027L53.5645-13.2324C65.3809-11.9629 77.4414-12.207 85.1562-13.4277C91.6016-14.4043 94.9219-17.1875 97.1191-22.9492C99.1211-28.2227 100.049-34.4727 100.049-40.918C100.049-57.8125 90.1855-78.7109 69.2383-89.5996C66.7969-90.8691 64.2578-91.5527 62.1582-91.5527C57.6172-91.5527 54.248-88.6719 53.8086-83.7891ZM72.9492-77.1484C83.6914-70.2148 90.1855-54.1504 90.1855-41.1133C90.1855-35.4492 89.3555-30.2734 87.9395-26.2207C87.207-24.2188 86.5723-23.6328 84.5215-23.291C80.0293-22.5098 73.8281-22.1191 67.1387-22.2168C73.5352-31.543 76.2695-43.457 76.2695-55.127C76.2695-62.8906 75.0488-70.5078 72.9492-77.1484ZM23.4863-13.0371C32.9102-12.0117 42.5293-12.0605 51.9531-13.1836L52.8809-23.0469C45.6055-21.9727 38.4766-21.7773 31.2012-22.4609C30.957-22.5098 30.9082-22.7051 31.0059-22.8516L55.8594-57.4707L57.4707-76.0742L19.4336-22.998C16.1621-18.4082 18.0664-13.623 23.4863-13.0371ZM20.9961 10.1562L29.0527 6.64062L27.0508 0.976562C26.9043 0.585938 27.1484 0.195312 27.5879 0.244141C45.0684 1.02539 63.9648 1.02539 81.543-1.12305C82.1289-1.2207 82.373-0.78125 81.9824-0.244141C80.957 1.17188 79.4922 2.58789 77.4902 4.00391L85.498 8.98438C90.2832 4.3457 94.3848-1.85547 94.3848-5.51758C94.3848-8.25195 92.0898-11.1328 87.4512-10.498C67.4316-7.66602 44.6289-7.66602 23.584-7.66602C18.7012-7.66602 15.9668-3.71094 17.5781 0.732422ZM54.0527 21.0449C66.5039 21.0449 67.7246 12.9395 72.9492 12.9395C78.1738 12.9395 79.0039 21.0449 92.6758 21.0449L96.9727 21.0449C99.9023 21.0449 102.246 18.7012 102.246 15.7715C102.246 12.8906 99.9023 10.5469 96.9727 10.5469L92.6758 10.5469C90.1855 10.5469 88.1836 9.66797 84.5703 7.08008C81.9824 5.17578 78.6621 2.44141 72.9492 2.44141C67.7246 2.44141 63.916 5.17578 61.3281 7.08008C58.5449 9.13086 56.7871 10.5469 54.0527 10.5469C51.3184 10.5469 49.5605 9.13086 46.7773 7.08008C44.1895 5.17578 40.3809 2.44141 35.1562 2.44141C29.9316 2.44141 26.123 5.17578 23.5352 7.08008C19.9219 9.66797 17.9199 10.5469 15.4297 10.5469L15.0391 10.5469C12.1094 10.5469 9.76562 12.8906 9.76562 15.7715C9.76562 18.7012 12.1094 21.0449 15.0391 21.0449L15.4297 21.0449C29.1016 21.0449 29.9316 12.9395 35.1562 12.9395C40.3809 12.9395 41.6016 21.0449 54.0527 21.0449Z"/>
  </g>
  <g id="Regular-S" transform="matrix(1 0 0 1 1397.6 696)">
   <path class="monochrome-0 multicolor-0:tintColor hierarchical-0:primary SFSymbolsPreviewWireframe" d="M44.7266-3.51562L51.3184-3.51562L58.0078-81.4941C58.0566-81.8848 58.5938-81.9336 58.7402-81.5918C62.1582-73.4375 64.209-63.5742 64.209-53.8574C64.209-41.3086 60.791-28.9551 52.3438-20.8496L51.3672-13.5254C62.5488-12.4023 73.7305-12.6953 80.957-13.8672C86.8164-14.7461 89.6484-17.0898 91.6504-22.3145C93.6035-27.4902 94.4824-33.4473 94.4824-39.7949C94.4824-56.2988 87.1094-75.1465 64.502-87.0117C62.3047-88.2324 60.2051-88.7695 58.3496-88.7695C54.6387-88.7695 52.002-86.5723 51.6602-82.5195ZM66.4062-79.1992C82.373-71.0449 87.793-54.248 87.793-39.9902C87.793-34.1309 86.9141-28.7598 85.4492-24.5117C84.5703-22.0703 83.3008-20.9961 80.8105-20.5566C75.5859-19.6777 67.9199-19.2383 60.0586-19.5312C67.627-29.0527 70.8008-41.3086 70.8008-53.6621C70.8008-62.4023 69.1895-71.2402 66.4062-79.1992ZM20.4102-13.4766C29.3457-12.5 38.5254-12.5 47.4609-13.4766L48.0469-20.0684C40.332-19.0918 32.5684-19.0918 24.9512-20.0195C24.8047-20.0684 24.7559-20.166 24.8535-20.3613L51.3184-57.2754L52.3438-69.5312L17.4805-20.8984C14.8926-17.334 16.2598-13.916 20.4102-13.4766ZM19.1406 10.5957L24.4141 8.54492L21.2891 0C21.2402-0.195312 21.3379-0.439453 21.582-0.439453C41.0156-0.439453 62.4023-0.439453 81.7871-3.22266C82.0801-3.27148 82.2754-3.02734 82.1289-2.7832C80.7129 0.390625 77.2949 4.63867 71.5332 6.05469L78.3691 9.52148C83.8379 6.54297 89.0625-0.78125 89.0625-4.98047C89.0625-7.42188 87.4023-9.375 83.9355-8.88672C63.8184-6.05469 40.8691-6.05469 19.8242-6.05469C16.0645-6.05469 14.1113-3.22266 15.332 0.195312ZM50.3418 18.2617C61.0352 18.2617 62.7441 10.498 68.5059 10.498C74.4141 10.498 75.3906 18.2617 87.6465 18.2617L91.6992 18.2617C93.3594 18.2617 94.7266 16.8945 94.7266 15.1855C94.7266 13.5254 93.3594 12.1582 91.6992 12.1582L87.6465 12.1582C83.6426 12.1582 81.3965 10.498 78.5156 8.44727C76.0254 6.64062 72.8516 4.39453 68.5059 4.39453C63.9648 4.39453 60.7422 6.78711 58.252 8.64258C55.6152 10.6445 53.6133 12.1582 50.3418 12.1582C47.0215 12.1582 45.0195 10.6445 42.3828 8.64258C39.8926 6.78711 36.6699 4.39453 32.1777 4.39453C27.7832 4.39453 24.6094 6.64062 22.1191 8.44727C19.2383 10.498 16.9922 12.1582 13.0371 12.1582L12.8418 12.1582C11.1328 12.1582 9.76562 13.5254 9.76562 15.1855C9.76562 16.8945 11.1328 18.2617 12.8418 18.2617L13.0371 18.2617C25.293 18.2617 26.2695 10.498 32.1777 10.498C37.9395 10.498 39.5996 18.2617 50.3418 18.2617Z"/>
  </g>
  <g id="Ultralight-S" transform="matrix(1 0 0 1 509.872 696)">
   <path class="monochrome-0 multicolor-0:tintColor hierarchical-0:primary SFSymbolsPreviewWireframe" d="M44.6812-4.92333L46.9136-4.92333L53.6939-81.2217C53.7427-81.7939 54.4615-81.979 54.6988-81.2739C57.481-72.8018 59.4864-62.439 59.4864-52.2227C59.4864-39.4014 56.2954-26.73 47.4395-17.9434L47.2803-14.4336C57.917-13.3105 68.7354-13.9214 75.3262-14.957C79.5508-15.5635 81.6563-17.2261 83.0225-20.8613C85.3389-27.0361 86.1724-32.5845 86.1724-38.7051C86.1724-54.8457 79.2081-72.5581 57.3726-84.1055C56.6285-84.4634 55.8457-84.6826 55.0347-84.6826C53.3218-84.6826 51.8203-83.7114 51.6147-81.2481ZM56.6886-81.9692C77.5596-70.9995 83.9785-54.3843 83.9785-38.7188C83.9785-32.6777 83.0996-27.2612 80.9991-21.6509C79.9839-18.8462 78.3511-17.5904 75.0435-17.1055C69.0015-16.1358 58.6563-15.6055 49.0694-16.4888C58.3634-26.1919 61.6734-39.3106 61.6734-52.3906C61.6734-62.811 59.5172-73.2837 56.6886-81.9692ZM18.4121-14.6572C26.6665-13.7261 38.4346-13.6807 46.689-14.4302L46.6846-16.6172C37.4258-15.8223 26.5743-15.9131 19.2749-16.7046C18.856-16.7534 18.7164-17.169 18.9957-17.5459L51.4546-62.8608L50.4365-65.1719L17.0718-18.5825C15.6191-16.6074 16.2598-14.8242 18.4121-14.6572ZM19.5947 9.82374L21.5078 8.63574L17.293-2.67918C17.1534-3.01072 17.3872-3.34568 17.813-3.34568C38.5181-3.34568 61.8574-3.34568 81.8779-6.12888C82.2163-6.17771 82.457-6.02439 82.4468-5.78025C82.3931-3.51462 79.3838 2.86769 73.4404 8.37059L75.3721 9.6123C80.9317 4.49953 84.6577-2.8701 84.6577-6.11571C84.6577-7.60351 83.5879-8.55762 81.8467-8.29639C61.7749-5.50977 38.5078-5.50977 17.4629-5.50977C15.3833-5.50977 14.52-3.99462 15.1958-2.166ZM48.3438 14.1748C57.5386 14.1748 59.0659 6.41116 66.5078 6.41116C74.0962 6.41116 75.1636 14.1748 85.6485 14.1748L88.8384 14.1748C89.4087 14.1748 89.9131 13.6704 89.9131 13.0967C89.9131 12.5264 89.4087 12.022 88.8384 12.022L85.6485 12.022C81.0088 12.022 78.3086 9.99854 75.4278 7.99317C72.9375 6.18653 70.2632 4.2583 66.5078 4.2583C62.648 4.2583 59.9702 6.2876 57.48 8.14307C54.8433 10.145 52.2964 12.022 48.3438 12.022C44.3877 12.022 41.8408 10.145 39.2041 8.14307C36.7139 6.2876 34.0362 4.2583 30.1797 4.2583C26.4209 4.2583 23.792 6.18653 21.3018 7.99317C18.4209 9.99854 15.6753 12.022 11.0391 12.022L10.8438 12.022C10.27 12.022 9.76562 12.5264 9.76562 13.0967C9.76562 13.6704 10.27 14.1748 10.8438 14.1748L11.0391 14.1748C21.524 14.1748 22.5913 6.41116 30.1797 6.41116C37.6216 6.41116 39.1455 14.1748 48.3438 14.1748Z"/>
  </g>
 </g>
</svg>
